{"glyphs":{"0":{"ha":833,"x_min":79,"x_max":754,"o":"m 417 -11 q 165 116 251 -11 q 79 489 79 243 q 165 863 79 736 q 417 990 251 990 q 668 863 582 990 q 754 490 754 736 q 668 117 754 244 q 417 -11 582 -11 m 417 65 q 605 169 544 65 q 665 490 665 272 q 605 811 665 708 q 417 914 544 914 q 228 811 289 914 q 168 490 168 708 q 229 169 168 274 q 417 65 290 65 z "},"1":{"ha":833,"x_min":189,"x_max":708,"o":"m 493 75 l 708 75 l 708 0 l 190 0 l 190 75 l 407 75 l 407 865 l 233 754 l 189 822 l 429 979 l 493 979 l 493 75 z "},"2":{"ha":833,"x_min":101,"x_max":743,"o":"m 743 75 l 743 0 l 125 0 l 125 64 l 474 453 q 581 603 547 538 q 614 733 614 668 q 563 868 614 821 q 419 915 513 915 q 138 797 272 915 l 101 865 q 247 956 160 922 q 419 990 333 990 q 625 923 550 990 q 700 738 700 856 q 661 574 700 653 q 533 396 622 494 l 240 75 l 743 75 z "},"3":{"ha":833,"x_min":86,"x_max":721,"o":"m 543 503 q 675 418 629 479 q 721 264 721 357 q 638 64 721 138 q 411 -10 554 -10 q 233 23 318 -10 q 86 115 147 56 l 122 183 q 410 65 254 65 q 576 117 518 65 q 635 264 635 168 q 393 460 635 460 l 289 460 l 289 535 l 372 535 q 551 588 488 535 q 614 740 614 642 q 563 869 614 824 q 419 915 511 915 q 138 797 272 915 l 101 865 q 245 957 161 924 q 421 990 329 990 q 624 924 549 990 q 700 744 700 858 q 658 595 700 660 q 543 503 617 531 z "},"4":{"ha":833,"x_min":76,"x_max":778,"o":"m 778 296 l 778 222 l 626 222 l 626 0 l 540 0 l 540 222 l 76 222 l 76 288 l 556 979 l 626 979 l 626 296 l 778 296 m 172 296 l 540 296 l 540 828 l 172 296 z "},"5":{"ha":833,"x_min":119,"x_max":758,"o":"m 453 608 q 615 569 546 608 q 722 461 685 531 q 758 300 758 392 q 719 140 758 210 q 606 30 679 69 q 438 -10 533 -10 q 265 24 350 -10 q 119 115 179 57 l 156 183 q 438 65 290 65 q 608 128 546 65 q 671 300 671 192 q 609 469 671 404 q 447 533 547 533 q 313 503 371 533 q 211 407 256 472 l 146 407 l 146 979 l 721 979 l 721 906 l 231 906 l 231 515 q 328 584 271 560 q 453 608 385 608 z "},"6":{"ha":832,"x_min":85,"x_max":758,"o":"m 450 610 q 610 571 540 610 q 719 462 681 532 q 758 300 758 392 q 718 140 758 211 q 607 29 678 69 q 447 -11 536 -11 q 179 112 274 -11 q 85 463 85 235 q 182 851 85 713 q 454 990 279 990 q 616 958 538 990 q 757 865 694 925 l 721 797 q 586 887 650 858 q 454 915 522 915 q 246 796 321 915 q 171 463 171 676 l 171 425 q 278 560 203 511 q 450 610 353 610 m 444 64 q 609 128 547 64 q 671 300 671 193 q 608 469 671 406 q 443 533 546 533 q 272 468 339 533 q 206 300 206 403 q 272 129 206 194 q 444 64 338 64 z "},"7":{"ha":833,"x_min":101,"x_max":732,"o":"m 101 979 l 732 979 l 732 917 l 267 0 l 175 0 l 636 904 l 101 904 l 101 979 z "},"8":{"ha":833,"x_min":72,"x_max":761,"o":"m 576 501 q 712 412 663 476 q 761 257 761 347 q 672 61 761 132 q 417 -10 582 -10 q 162 61 251 -10 q 72 257 72 132 q 121 413 72 349 q 257 501 169 476 q 138 590 182 529 q 94 732 94 651 q 179 921 94 851 q 417 990 264 990 q 654 921 569 990 q 739 732 739 851 q 695 590 739 651 q 576 501 651 529 m 182 728 q 242 585 182 636 q 417 533 301 533 q 592 585 532 533 q 651 728 651 636 q 592 866 651 817 q 417 915 532 915 q 242 866 301 915 q 182 728 182 817 m 417 65 q 674 261 674 65 q 417 458 674 458 q 160 261 160 458 q 417 65 160 65 z "},"9":{"ha":833,"x_min":76,"x_max":750,"o":"m 388 990 q 656 867 561 990 q 750 517 750 744 q 653 128 750 267 q 381 -11 556 -11 q 219 22 297 -11 q 78 114 140 54 l 114 182 q 249 92 185 121 q 381 64 313 64 q 589 183 514 64 q 664 517 664 303 l 664 554 q 557 419 632 468 q 385 369 482 369 q 224 408 294 369 q 115 517 154 447 q 76 679 76 588 q 117 839 76 768 q 228 950 157 910 q 388 990 299 990 m 392 446 q 563 511 496 446 q 629 679 629 576 q 563 850 629 785 q 390 915 497 915 q 226 851 288 915 q 164 679 164 786 q 226 510 164 574 q 392 446 289 446 z "},"\u0000":{"ha":0,"x_min":0,"x_max":0,"o":""},"\r":{"ha":350,"x_min":0,"x_max":0,"o":""}," ":{"ha":350,"x_min":0,"x_max":0,"o":""},"A":{"ha":1000,"x_min":36,"x_max":964,"o":"m 876 0 l 764 261 l 236 261 l 124 0 l 36 0 l 461 979 l 539 979 l 964 0 l 876 0 m 268 336 l 732 336 l 500 878 l 268 336 z "},"Á":{"ha":1000,"x_min":36,"x_max":964,"o":"m 876 0 l 764 261 l 236 261 l 124 0 l 36 0 l 461 979 l 539 979 l 964 0 l 876 0 m 268 336 l 732 336 l 500 878 l 268 336 m 532 1063 l 468 1063 l 607 1271 l 710 1271 l 532 1063 z "},"Ă":{"ha":1000,"x_min":36,"x_max":964,"o":"m 876 0 l 764 261 l 236 261 l 124 0 l 36 0 l 461 979 l 539 979 l 964 0 l 876 0 m 268 336 l 732 336 l 500 878 l 268 336 m 500 1081 q 279 1226 339 1081 l 343 1254 q 413 1172 376 1194 q 500 1149 450 1149 q 587 1172 550 1149 q 657 1254 624 1194 l 721 1226 q 500 1081 660 1081 z "},"Ắ":{"ha":1000,"x_min":36,"x_max":964,"o":"m 876 0 l 764 261 l 236 261 l 124 0 l 36 0 l 461 979 l 539 979 l 964 0 l 876 0 m 268 336 l 732 336 l 500 878 l 268 336 m 531 1203 l 469 1203 l 607 1400 l 710 1400 l 531 1203 m 500 1056 q 368 1090 425 1056 q 279 1201 311 1125 l 342 1229 q 411 1145 374 1168 q 500 1122 449 1122 q 589 1145 551 1122 q 658 1229 626 1168 l 721 1201 q 500 1056 660 1056 z "},"Ặ":{"ha":1000,"x_min":36,"x_max":964,"o":"m 876 0 l 764 261 l 236 261 l 124 0 l 36 0 l 461 979 l 539 979 l 964 0 l 876 0 m 268 336 l 732 336 l 500 878 l 268 336 m 446 -140 l 554 -140 l 554 -247 l 446 -247 l 446 -140 m 500 1081 q 279 1226 339 1081 l 343 1254 q 413 1172 376 1194 q 500 1149 450 1149 q 587 1172 550 1149 q 657 1254 624 1194 l 721 1226 q 500 1081 660 1081 z "},"Ằ":{"ha":1000,"x_min":36,"x_max":964,"o":"m 876 0 l 764 261 l 236 261 l 124 0 l 36 0 l 461 979 l 539 979 l 964 0 l 876 0 m 268 336 l 732 336 l 500 878 l 268 336 m 469 1203 l 290 1400 l 393 1400 l 531 1203 l 469 1203 m 500 1056 q 279 1201 340 1056 l 342 1229 q 411 1145 374 1168 q 500 1122 449 1122 q 589 1145 551 1122 q 658 1229 626 1168 l 721 1201 q 632 1090 689 1125 q 500 1056 575 1056 z "},"Ẳ":{"ha":1000,"x_min":36,"x_max":964,"o":"m 876 0 l 764 261 l 236 261 l 124 0 l 36 0 l 461 979 l 539 979 l 964 0 l 876 0 m 268 336 l 732 336 l 500 878 l 268 336 m 533 1203 l 468 1203 l 468 1226 q 483 1263 468 1250 q 526 1288 499 1276 q 554 1302 546 1296 q 563 1318 563 1308 q 547 1338 563 1331 q 503 1344 531 1344 q 417 1329 463 1344 l 397 1383 q 506 1407 451 1407 q 604 1383 568 1407 q 640 1319 640 1358 q 624 1281 640 1294 q 579 1256 608 1268 q 545 1238 557 1246 q 533 1215 533 1229 l 533 1203 m 500 1056 q 279 1201 340 1056 l 342 1229 q 411 1145 374 1168 q 500 1122 449 1122 q 589 1145 551 1122 q 658 1229 626 1168 l 721 1201 q 632 1090 689 1125 q 500 1056 575 1056 z "},"Ẵ":{"ha":1000,"x_min":36,"x_max":964,"o":"m 876 0 l 764 261 l 236 261 l 124 0 l 36 0 l 461 979 l 539 979 l 964 0 l 876 0 m 268 336 l 732 336 l 500 878 l 268 336 m 282 1271 q 313 1374 282 1336 q 399 1413 344 1413 q 456 1400 428 1413 q 517 1367 483 1388 q 540 1353 522 1364 q 573 1338 558 1343 q 599 1333 588 1333 q 647 1356 629 1333 q 664 1408 664 1378 l 718 1408 q 687 1305 718 1343 q 601 1267 656 1267 q 544 1279 572 1267 q 483 1313 517 1292 q 460 1326 478 1315 q 427 1341 442 1336 q 401 1346 413 1346 q 353 1324 371 1346 q 336 1271 336 1301 l 282 1271 m 500 1056 q 279 1201 340 1056 l 342 1229 q 411 1145 374 1168 q 500 1122 449 1122 q 589 1145 551 1122 q 658 1229 626 1168 l 721 1201 q 632 1090 689 1125 q 500 1056 575 1056 z "},"Â":{"ha":1000,"x_min":36,"x_max":964,"o":"m 876 0 l 764 261 l 236 261 l 124 0 l 36 0 l 461 979 l 539 979 l 964 0 l 876 0 m 268 336 l 732 336 l 500 878 l 268 336 m 394 1063 l 308 1063 l 468 1271 l 532 1271 l 692 1063 l 606 1063 l 500 1213 l 394 1063 z "},"Ấ":{"ha":1000,"x_min":36,"x_max":964,"o":"m 876 0 l 764 261 l 236 261 l 124 0 l 36 0 l 461 979 l 539 979 l 964 0 l 876 0 m 268 336 l 732 336 l 500 878 l 268 336 m 672 1203 l 614 1203 l 749 1400 l 850 1400 l 672 1203 m 394 1063 l 308 1063 l 468 1269 l 532 1269 l 692 1063 l 606 1063 l 500 1211 l 394 1063 z "},"Ậ":{"ha":1000,"x_min":36,"x_max":964,"o":"m 876 0 l 764 261 l 236 261 l 124 0 l 36 0 l 461 979 l 539 979 l 964 0 l 876 0 m 268 336 l 732 336 l 500 878 l 268 336 m 446 -140 l 554 -140 l 554 -247 l 446 -247 l 446 -140 m 394 1063 l 308 1063 l 468 1271 l 532 1271 l 692 1063 l 606 1063 l 500 1213 l 394 1063 z "},"Ầ":{"ha":1000,"x_min":36,"x_max":964,"o":"m 876 0 l 764 261 l 236 261 l 124 0 l 36 0 l 461 979 l 539 979 l 964 0 l 876 0 m 268 336 l 732 336 l 500 878 l 268 336 m 674 1203 l 522 1400 l 624 1400 l 732 1203 l 674 1203 m 394 1063 l 308 1063 l 468 1269 l 532 1269 l 692 1063 l 606 1063 l 500 1211 l 394 1063 z "},"Ẩ":{"ha":1000,"x_min":36,"x_max":964,"o":"m 876 0 l 764 261 l 236 261 l 124 0 l 36 0 l 461 979 l 539 979 l 964 0 l 876 0 m 268 336 l 732 336 l 500 878 l 268 336 m 678 1203 l 613 1203 l 613 1226 q 628 1263 613 1250 q 671 1288 643 1276 q 699 1302 690 1296 q 707 1318 707 1308 q 691 1338 707 1331 q 647 1344 675 1344 q 561 1329 607 1344 l 542 1383 q 650 1407 596 1407 q 749 1383 713 1407 q 785 1319 785 1358 q 769 1281 785 1294 q 724 1256 753 1268 q 690 1238 701 1246 q 678 1215 678 1229 l 678 1203 m 394 1063 l 308 1063 l 468 1269 l 532 1269 l 692 1063 l 606 1063 l 500 1211 l 394 1063 z "},"Ẫ":{"ha":1000,"x_min":36,"x_max":964,"o":"m 876 0 l 764 261 l 236 261 l 124 0 l 36 0 l 461 979 l 539 979 l 964 0 l 876 0 m 268 336 l 732 336 l 500 878 l 268 336 m 282 1289 q 313 1386 282 1349 q 399 1424 344 1424 q 454 1415 428 1424 q 517 1388 481 1406 q 563 1367 544 1374 q 599 1360 582 1360 q 647 1381 629 1360 q 664 1428 664 1403 l 718 1428 q 687 1331 718 1368 q 601 1293 656 1293 q 546 1302 572 1293 q 483 1329 519 1311 q 437 1350 456 1343 q 401 1357 418 1357 q 353 1335 371 1357 q 336 1289 336 1314 l 282 1289 m 394 1063 l 308 1063 l 468 1269 l 532 1269 l 692 1063 l 606 1063 l 500 1211 l 394 1063 z "},"Ȁ":{"ha":1000,"x_min":36,"x_max":964,"o":"m 876 0 l 764 261 l 236 261 l 124 0 l 36 0 l 461 979 l 539 979 l 964 0 l 876 0 m 268 336 l 732 336 l 500 878 l 268 336 m 397 1063 l 261 1271 l 347 1271 l 446 1063 l 397 1063 m 554 1063 l 419 1271 l 506 1271 l 603 1063 l 554 1063 z "},"Ä":{"ha":1000,"x_min":36,"x_max":964,"o":"m 876 0 l 764 261 l 236 261 l 124 0 l 36 0 l 461 979 l 539 979 l 964 0 l 876 0 m 268 336 l 732 336 l 500 878 l 268 336 m 333 1218 l 438 1218 l 438 1118 l 333 1118 l 333 1218 m 563 1218 l 667 1218 l 667 1118 l 563 1118 l 563 1218 z "},"Ạ":{"ha":1000,"x_min":36,"x_max":964,"o":"m 876 0 l 764 261 l 236 261 l 124 0 l 36 0 l 461 979 l 539 979 l 964 0 l 876 0 m 268 336 l 732 336 l 500 878 l 268 336 m 446 -140 l 554 -140 l 554 -247 l 446 -247 l 446 -140 z "},"À":{"ha":1000,"x_min":36,"x_max":964,"o":"m 876 0 l 764 261 l 236 261 l 124 0 l 36 0 l 461 979 l 539 979 l 964 0 l 876 0 m 268 336 l 732 336 l 500 878 l 268 336 m 468 1063 l 290 1271 l 393 1271 l 532 1063 l 468 1063 z "},"Ả":{"ha":1000,"x_min":36,"x_max":964,"o":"m 876 0 l 764 261 l 236 261 l 124 0 l 36 0 l 461 979 l 539 979 l 964 0 l 876 0 m 268 336 l 732 336 l 500 878 l 268 336 m 533 1063 l 468 1063 l 468 1085 q 483 1124 468 1108 q 525 1153 499 1139 q 553 1172 544 1164 q 563 1189 563 1179 q 547 1208 563 1201 q 503 1215 531 1215 q 417 1199 461 1215 l 397 1254 q 506 1278 451 1278 q 604 1253 568 1278 q 640 1189 640 1229 q 624 1148 640 1163 q 578 1117 608 1133 q 544 1097 556 1107 q 533 1075 533 1088 l 533 1063 z "},"Ȃ":{"ha":1000,"x_min":36,"x_max":964,"o":"m 876 0 l 764 261 l 236 261 l 124 0 l 36 0 l 461 979 l 539 979 l 964 0 l 876 0 m 268 336 l 732 336 l 500 878 l 268 336 m 500 1256 q 721 1108 661 1256 l 657 1082 q 587 1165 624 1142 q 500 1188 550 1188 q 413 1165 450 1188 q 343 1082 376 1142 l 279 1108 q 500 1256 340 1256 z "},"Ā":{"ha":1000,"x_min":36,"x_max":964,"o":"m 876 0 l 764 261 l 236 261 l 124 0 l 36 0 l 461 979 l 539 979 l 964 0 l 876 0 m 268 336 l 732 336 l 500 878 l 268 336 m 294 1132 l 294 1204 l 706 1204 l 706 1132 l 294 1132 z "},"Ą":{"ha":1000,"x_min":36,"x_max":1021,"o":"m 1021 -235 q 908 -265 976 -265 q 794 -225 838 -265 q 750 -122 750 -185 q 778 -28 750 -69 q 861 38 807 14 l 764 261 l 236 261 l 124 0 l 36 0 l 461 979 l 539 979 l 964 0 l 950 0 q 856 -32 888 0 q 824 -112 824 -64 q 849 -179 824 -156 q 918 -203 875 -203 q 999 -178 957 -203 l 1021 -235 m 268 336 l 732 336 l 500 878 l 268 336 z "},"Å":{"ha":1000,"x_min":36,"x_max":964,"o":"m 764 261 l 236 261 l 124 0 l 36 0 l 447 947 q 385 997 408 964 q 363 1071 363 1029 q 403 1167 363 1128 q 500 1206 443 1206 q 597 1167 557 1206 q 638 1071 638 1128 q 614 996 638 1029 q 553 947 590 963 l 964 0 l 876 0 l 764 261 m 500 1143 q 451 1122 471 1143 q 432 1071 432 1101 q 451 1021 432 1042 q 500 1000 471 1000 q 549 1021 529 1000 q 569 1071 569 1042 q 550 1122 569 1101 q 500 1143 531 1143 m 268 336 l 732 336 l 500 878 l 268 336 z "},"Ǻ":{"ha":1000,"x_min":36,"x_max":964,"o":"m 764 261 l 236 261 l 124 0 l 36 0 l 447 947 q 385 997 408 964 q 363 1071 363 1029 q 403 1167 363 1128 q 500 1206 443 1206 q 575 1185 540 1206 l 692 1304 l 800 1304 l 615 1146 q 638 1071 638 1113 q 614 996 638 1029 q 553 947 590 963 l 964 0 l 876 0 l 764 261 m 500 1143 q 451 1122 471 1143 q 432 1071 432 1101 q 451 1021 432 1042 q 500 1000 471 1000 q 549 1021 529 1000 q 569 1071 569 1042 q 550 1122 569 1101 q 500 1143 531 1143 m 268 336 l 732 336 l 500 878 l 268 336 z "},"Ã":{"ha":1000,"x_min":36,"x_max":964,"o":"m 876 0 l 764 261 l 236 261 l 124 0 l 36 0 l 461 979 l 539 979 l 964 0 l 876 0 m 268 336 l 732 336 l 500 878 l 268 336 m 282 1099 q 313 1205 282 1165 q 399 1244 344 1244 q 455 1232 428 1244 q 517 1197 482 1219 q 565 1170 549 1178 q 599 1163 582 1163 q 647 1185 629 1163 q 664 1240 664 1208 l 718 1240 q 687 1133 718 1172 q 601 1094 656 1094 q 544 1107 572 1094 q 483 1140 517 1119 q 435 1167 451 1160 q 401 1175 418 1175 q 353 1153 371 1175 q 336 1099 336 1131 l 282 1099 z "},"Æ":{"ha":1374,"x_min":8,"x_max":1300,"o":"m 1300 904 l 688 904 l 765 535 l 1272 535 l 1272 460 l 782 460 l 864 75 l 1300 75 l 1300 0 l 800 0 l 744 261 l 254 261 l 100 0 l 8 0 l 599 979 l 1300 979 l 1300 904 m 299 336 l 729 336 l 617 872 l 299 336 z "},"Ǽ":{"ha":1374,"x_min":8,"x_max":1300,"o":"m 1300 904 l 688 904 l 765 535 l 1272 535 l 1272 460 l 782 460 l 864 75 l 1300 75 l 1300 0 l 800 0 l 744 261 l 254 261 l 100 0 l 8 0 l 599 979 l 1300 979 l 1300 904 m 299 336 l 729 336 l 617 872 l 299 336 m 722 1063 l 658 1063 l 797 1271 l 900 1271 l 722 1063 z "},"B":{"ha":931,"x_min":126,"x_max":840,"o":"m 663 501 q 794 419 747 481 q 840 265 840 357 q 756 68 840 136 q 518 0 672 0 l 126 0 l 126 979 l 504 979 q 736 913 654 979 q 818 722 818 846 q 777 586 818 643 q 663 501 736 529 m 211 535 l 492 535 q 671 583 610 535 q 732 724 732 632 q 492 906 732 906 l 211 906 l 211 535 m 513 74 q 695 120 636 74 q 754 263 754 167 q 513 460 754 460 l 211 460 l 211 74 l 513 74 z "},"C":{"ha":940,"x_min":89,"x_max":867,"o":"m 533 -11 q 297 49 397 -11 q 143 223 197 110 q 89 490 89 336 q 143 758 89 644 q 297 931 197 871 q 533 990 397 990 q 719 958 635 990 q 867 863 804 926 l 831 794 q 691 886 761 858 q 535 914 621 914 q 272 803 365 914 q 178 490 178 692 q 271 176 178 288 q 535 65 364 65 q 691 93 621 65 q 831 185 761 121 l 867 117 q 719 21 804 53 q 533 -11 635 -11 z "},"Ć":{"ha":940,"x_min":89,"x_max":867,"o":"m 533 -11 q 297 49 397 -11 q 143 223 197 110 q 89 490 89 336 q 143 758 89 644 q 297 931 197 871 q 533 990 397 990 q 719 958 635 990 q 867 863 804 926 l 831 794 q 691 886 761 858 q 535 914 621 914 q 272 803 365 914 q 178 490 178 692 q 271 176 178 288 q 535 65 364 65 q 691 93 621 65 q 831 185 761 121 l 867 117 q 719 21 804 53 q 533 -11 635 -11 m 565 1063 l 501 1063 l 640 1271 l 743 1271 l 565 1063 z "},"Č":{"ha":940,"x_min":89,"x_max":867,"o":"m 533 -11 q 297 49 397 -11 q 143 223 197 110 q 89 490 89 336 q 143 758 89 644 q 297 931 197 871 q 533 990 397 990 q 719 958 635 990 q 867 863 804 926 l 831 794 q 691 886 761 858 q 535 914 621 914 q 272 803 365 914 q 178 490 178 692 q 271 176 178 288 q 535 65 364 65 q 691 93 621 65 q 831 185 761 121 l 867 117 q 719 21 804 53 q 533 -11 635 -11 m 639 1271 l 725 1271 l 565 1063 l 501 1063 l 342 1271 l 428 1271 l 533 1121 l 639 1271 z "},"Ç":{"ha":940,"x_min":89,"x_max":867,"o":"m 535 65 q 691 93 621 65 q 831 185 761 121 l 867 117 q 728 24 807 57 q 553 -11 649 -8 l 547 -61 q 585 -57 565 -57 q 657 -81 626 -57 q 688 -153 688 -106 q 647 -234 688 -203 q 533 -265 606 -265 q 471 -259 504 -265 q 414 -239 438 -253 l 433 -186 q 536 -206 479 -206 q 597 -192 576 -206 q 617 -153 617 -178 q 604 -123 617 -133 q 567 -112 592 -112 q 500 -126 542 -112 l 474 -106 l 483 -8 q 272 65 361 1 q 136 236 183 128 q 89 490 89 344 q 143 758 89 644 q 297 931 197 871 q 533 990 397 990 q 719 958 635 990 q 867 863 804 926 l 831 794 q 691 886 761 858 q 535 914 621 914 q 272 803 365 914 q 178 490 178 692 q 271 176 178 288 q 535 65 364 65 z "},"Ḉ":{"ha":940,"x_min":89,"x_max":867,"o":"m 743 1271 l 565 1063 l 501 1063 l 640 1271 l 743 1271 m 535 65 q 691 93 621 65 q 831 185 761 121 l 867 117 q 728 24 807 57 q 553 -11 649 -8 l 547 -61 q 585 -57 565 -57 q 657 -81 626 -57 q 688 -153 688 -106 q 647 -234 688 -203 q 533 -265 606 -265 q 471 -259 504 -265 q 414 -239 438 -253 l 433 -186 q 536 -206 479 -206 q 597 -192 576 -206 q 617 -153 617 -178 q 604 -123 617 -133 q 567 -112 592 -112 q 500 -126 542 -112 l 474 -106 l 483 -8 q 272 65 361 1 q 136 236 183 128 q 89 490 89 344 q 143 758 89 644 q 297 931 197 871 q 533 990 397 990 q 719 958 635 990 q 867 863 804 926 l 831 794 q 691 886 761 858 q 535 914 621 914 q 272 803 365 914 q 178 490 178 692 q 271 176 178 288 q 535 65 364 65 z "},"Ĉ":{"ha":940,"x_min":89,"x_max":867,"o":"m 533 -11 q 297 49 397 -11 q 143 223 197 110 q 89 490 89 336 q 143 758 89 644 q 297 931 197 871 q 533 990 397 990 q 719 958 635 990 q 867 863 804 926 l 831 794 q 691 886 761 858 q 535 914 621 914 q 272 803 365 914 q 178 490 178 692 q 271 176 178 288 q 535 65 364 65 q 691 93 621 65 q 831 185 761 121 l 867 117 q 719 21 804 53 q 533 -11 635 -11 m 428 1063 l 342 1063 l 501 1271 l 565 1271 l 725 1063 l 639 1063 l 533 1213 l 428 1063 z "},"Ċ":{"ha":940,"x_min":89,"x_max":867,"o":"m 533 -11 q 297 49 397 -11 q 143 223 197 110 q 89 490 89 336 q 143 758 89 644 q 297 931 197 871 q 533 990 397 990 q 719 958 635 990 q 867 863 804 926 l 831 794 q 691 886 761 858 q 535 914 621 914 q 272 803 365 914 q 178 490 178 692 q 271 176 178 288 q 535 65 364 65 q 691 93 621 65 q 831 185 761 121 l 867 117 q 719 21 804 53 q 533 -11 635 -11 m 478 1222 l 589 1222 l 589 1115 l 478 1115 l 478 1222 z "},"D":{"ha":1015,"x_min":126,"x_max":928,"o":"m 126 979 l 442 979 q 801 852 675 979 q 928 490 928 725 q 801 128 928 256 q 442 0 674 0 l 126 0 l 126 979 m 438 75 q 737 179 636 75 q 838 490 838 283 q 438 904 838 904 l 213 904 l 213 75 l 438 75 z "},"Ǆ":{"ha":1806,"x_min":126,"x_max":1754,"o":"m 126 979 l 442 979 q 801 852 675 979 q 928 490 928 725 q 801 128 928 256 q 442 0 674 0 l 126 0 l 126 979 m 438 75 q 737 179 636 75 q 838 490 838 283 q 438 904 838 904 l 213 904 l 213 75 l 438 75 m 1154 74 l 1754 74 l 1754 0 l 1054 0 l 1054 63 l 1640 906 l 1054 906 l 1054 979 l 1740 979 l 1740 917 l 1154 74 m 1504 1271 l 1590 1271 l 1431 1063 l 1367 1063 l 1207 1271 l 1293 1271 l 1399 1121 l 1504 1271 z "},"Ð":{"ha":1028,"x_min":8,"x_max":939,"o":"m 454 979 q 813 852 686 979 q 939 490 939 725 q 813 128 939 256 q 454 0 686 0 l 139 0 l 139 461 l 8 461 l 8 532 l 139 532 l 139 979 l 454 979 m 450 75 q 749 179 649 75 q 850 490 850 283 q 450 904 850 904 l 224 904 l 224 532 l 494 532 l 494 461 l 224 461 l 224 75 l 450 75 z "},"Ď":{"ha":1015,"x_min":126,"x_max":928,"o":"m 126 979 l 442 979 q 801 852 675 979 q 928 490 928 725 q 801 128 928 256 q 442 0 674 0 l 126 0 l 126 979 m 438 75 q 737 179 636 75 q 838 490 838 283 q 438 904 838 904 l 213 904 l 213 75 l 438 75 m 613 1271 l 699 1271 l 539 1063 l 475 1063 l 315 1271 l 401 1271 l 507 1121 l 613 1271 z "},"Đ":{"ha":1028,"x_min":8,"x_max":939,"o":"m 454 979 q 813 852 686 979 q 939 490 939 725 q 813 128 939 256 q 454 0 686 0 l 139 0 l 139 461 l 8 461 l 8 532 l 139 532 l 139 979 l 454 979 m 450 75 q 749 179 649 75 q 850 490 850 283 q 450 904 850 904 l 224 904 l 224 532 l 494 532 l 494 461 l 224 461 l 224 75 l 450 75 z "},"Ḍ":{"ha":1015,"x_min":126,"x_max":928,"o":"m 126 979 l 442 979 q 801 852 675 979 q 928 490 928 725 q 801 128 928 256 q 442 0 674 0 l 126 0 l 126 979 m 438 75 q 737 179 636 75 q 838 490 838 283 q 438 904 838 904 l 213 904 l 213 75 l 438 75 m 454 -140 l 563 -140 l 563 -247 l 454 -247 l 454 -140 z "},"Ḏ":{"ha":1015,"x_min":126,"x_max":928,"o":"m 126 979 l 442 979 q 801 852 675 979 q 928 490 928 725 q 801 128 928 256 q 442 0 674 0 l 126 0 l 126 979 m 438 75 q 737 179 636 75 q 838 490 838 283 q 438 904 838 904 l 213 904 l 213 75 l 438 75 m 303 -229 l 303 -158 l 714 -158 l 714 -229 l 303 -229 z "},"ǅ":{"ha":1708,"x_min":126,"x_max":1647,"o":"m 126 979 l 442 979 q 801 852 675 979 q 928 490 928 725 q 801 128 928 256 q 442 0 674 0 l 126 0 l 126 979 m 438 75 q 737 179 636 75 q 838 490 838 283 q 438 904 838 904 l 213 904 l 213 75 l 438 75 m 1192 69 l 1647 69 l 1647 0 l 1083 0 l 1083 58 l 1529 606 l 1100 606 l 1100 674 l 1632 674 l 1632 610 l 1192 69 m 1472 1043 l 1558 1043 l 1400 764 l 1333 764 l 1175 1043 l 1261 1043 l 1367 833 l 1472 1043 z "},"E":{"ha":804,"x_min":126,"x_max":731,"o":"m 126 0 l 126 979 l 731 979 l 731 906 l 211 906 l 211 535 l 703 535 l 703 460 l 211 460 l 211 74 l 731 74 l 731 0 l 126 0 z "},"É":{"ha":804,"x_min":126,"x_max":731,"o":"m 126 0 l 126 979 l 731 979 l 731 906 l 211 906 l 211 535 l 703 535 l 703 460 l 211 460 l 211 74 l 731 74 l 731 0 l 126 0 m 479 1063 l 415 1063 l 554 1271 l 657 1271 l 479 1063 z "},"Ĕ":{"ha":804,"x_min":126,"x_max":731,"o":"m 126 0 l 126 979 l 731 979 l 731 906 l 211 906 l 211 535 l 703 535 l 703 460 l 211 460 l 211 74 l 731 74 l 731 0 l 126 0 m 447 1081 q 226 1226 286 1081 l 290 1254 q 360 1172 324 1194 q 447 1149 397 1149 q 534 1172 497 1149 q 604 1254 571 1194 l 668 1226 q 447 1081 607 1081 z "},"Ě":{"ha":804,"x_min":126,"x_max":731,"o":"m 126 0 l 126 979 l 731 979 l 731 906 l 211 906 l 211 535 l 703 535 l 703 460 l 211 460 l 211 74 l 731 74 l 731 0 l 126 0 m 553 1271 l 639 1271 l 479 1063 l 415 1063 l 256 1271 l 342 1271 l 447 1121 l 553 1271 z "},"Ȩ":{"ha":804,"x_min":126,"x_max":731,"o":"m 211 906 l 211 535 l 703 535 l 703 460 l 211 460 l 211 74 l 731 74 l 731 0 l 469 0 l 463 -61 q 500 -57 482 -57 q 572 -81 542 -57 q 603 -153 603 -106 q 562 -234 603 -203 q 449 -265 521 -265 q 386 -259 419 -265 q 329 -239 353 -253 l 349 -186 q 451 -206 394 -206 q 512 -192 492 -206 q 532 -153 532 -178 q 519 -123 532 -133 q 482 -112 507 -112 q 415 -126 457 -112 l 389 -106 l 400 0 l 126 0 l 126 979 l 731 979 l 731 906 l 211 906 z "},"Ḝ":{"ha":804,"x_min":126,"x_max":731,"o":"m 447 1081 q 226 1226 286 1081 l 290 1254 q 360 1172 324 1194 q 447 1149 397 1149 q 534 1172 497 1149 q 604 1254 571 1194 l 668 1226 q 447 1081 607 1081 m 211 906 l 211 535 l 703 535 l 703 460 l 211 460 l 211 74 l 731 74 l 731 0 l 469 0 l 463 -61 q 500 -57 482 -57 q 572 -81 542 -57 q 603 -153 603 -106 q 562 -234 603 -203 q 449 -265 521 -265 q 386 -259 419 -265 q 329 -239 353 -253 l 349 -186 q 451 -206 394 -206 q 512 -192 492 -206 q 532 -153 532 -178 q 519 -123 532 -133 q 482 -112 507 -112 q 415 -126 457 -112 l 389 -106 l 400 0 l 126 0 l 126 979 l 731 979 l 731 906 l 211 906 z "},"Ê":{"ha":804,"x_min":126,"x_max":731,"o":"m 126 0 l 126 979 l 731 979 l 731 906 l 211 906 l 211 535 l 703 535 l 703 460 l 211 460 l 211 74 l 731 74 l 731 0 l 126 0 m 342 1063 l 256 1063 l 415 1271 l 479 1271 l 639 1063 l 553 1063 l 447 1213 l 342 1063 z "},"Ế":{"ha":804,"x_min":126,"x_max":797,"o":"m 126 0 l 126 979 l 731 979 l 731 906 l 211 906 l 211 535 l 703 535 l 703 460 l 211 460 l 211 74 l 731 74 l 731 0 l 126 0 m 619 1203 l 561 1203 l 696 1400 l 797 1400 l 619 1203 m 342 1063 l 256 1063 l 415 1269 l 479 1269 l 639 1063 l 553 1063 l 447 1211 l 342 1063 z "},"Ệ":{"ha":804,"x_min":126,"x_max":731,"o":"m 126 0 l 126 979 l 731 979 l 731 906 l 211 906 l 211 535 l 703 535 l 703 460 l 211 460 l 211 74 l 731 74 l 731 0 l 126 0 m 393 -140 l 501 -140 l 501 -247 l 393 -247 l 393 -140 m 342 1063 l 256 1063 l 415 1271 l 479 1271 l 639 1063 l 553 1063 l 447 1213 l 342 1063 z "},"Ề":{"ha":804,"x_min":126,"x_max":731,"o":"m 126 0 l 126 979 l 731 979 l 731 906 l 211 906 l 211 535 l 703 535 l 703 460 l 211 460 l 211 74 l 731 74 l 731 0 l 126 0 m 621 1203 l 469 1400 l 571 1400 l 679 1203 l 621 1203 m 342 1063 l 256 1063 l 415 1269 l 479 1269 l 639 1063 l 553 1063 l 447 1211 l 342 1063 z "},"Ể":{"ha":804,"x_min":126,"x_max":732,"o":"m 126 0 l 126 979 l 731 979 l 731 906 l 211 906 l 211 535 l 703 535 l 703 460 l 211 460 l 211 74 l 731 74 l 731 0 l 126 0 m 625 1203 l 560 1203 l 560 1226 q 575 1263 560 1250 q 618 1288 590 1276 q 646 1302 638 1296 q 654 1318 654 1308 q 638 1338 654 1331 q 594 1344 622 1344 q 508 1329 554 1344 l 489 1383 q 597 1407 543 1407 q 696 1383 660 1407 q 732 1319 732 1358 q 716 1281 732 1294 q 671 1256 700 1268 q 637 1238 649 1246 q 625 1215 625 1229 l 625 1203 m 342 1063 l 256 1063 l 415 1269 l 479 1269 l 639 1063 l 553 1063 l 447 1211 l 342 1063 z "},"Ễ":{"ha":804,"x_min":126,"x_max":731,"o":"m 126 0 l 126 979 l 731 979 l 731 906 l 211 906 l 211 535 l 703 535 l 703 460 l 211 460 l 211 74 l 731 74 l 731 0 l 126 0 m 229 1289 q 260 1386 229 1349 q 346 1424 292 1424 q 401 1415 375 1424 q 464 1388 428 1406 q 510 1367 492 1374 q 546 1360 529 1360 q 594 1381 576 1360 q 611 1428 611 1403 l 665 1428 q 634 1331 665 1368 q 549 1293 603 1293 q 493 1302 519 1293 q 431 1329 467 1311 q 384 1350 403 1343 q 349 1357 365 1357 q 301 1335 318 1357 q 283 1289 283 1314 l 229 1289 m 342 1063 l 256 1063 l 415 1269 l 479 1269 l 639 1063 l 553 1063 l 447 1211 l 342 1063 z "},"Ȅ":{"ha":804,"x_min":126,"x_max":731,"o":"m 126 0 l 126 979 l 731 979 l 731 906 l 211 906 l 211 535 l 703 535 l 703 460 l 211 460 l 211 74 l 731 74 l 731 0 l 126 0 m 344 1063 l 208 1271 l 294 1271 l 393 1063 l 344 1063 m 501 1063 l 367 1271 l 453 1271 l 550 1063 l 501 1063 z "},"Ë":{"ha":804,"x_min":126,"x_max":731,"o":"m 126 0 l 126 979 l 731 979 l 731 906 l 211 906 l 211 535 l 703 535 l 703 460 l 211 460 l 211 74 l 731 74 l 731 0 l 126 0 m 281 1218 l 385 1218 l 385 1118 l 281 1118 l 281 1218 m 510 1218 l 614 1218 l 614 1118 l 510 1118 l 510 1218 z "},"Ė":{"ha":804,"x_min":126,"x_max":731,"o":"m 126 0 l 126 979 l 731 979 l 731 906 l 211 906 l 211 535 l 703 535 l 703 460 l 211 460 l 211 74 l 731 74 l 731 0 l 126 0 m 392 1222 l 503 1222 l 503 1115 l 392 1115 l 392 1222 z "},"Ẹ":{"ha":804,"x_min":126,"x_max":731,"o":"m 126 0 l 126 979 l 731 979 l 731 906 l 211 906 l 211 535 l 703 535 l 703 460 l 211 460 l 211 74 l 731 74 l 731 0 l 126 0 m 393 -140 l 501 -140 l 501 -247 l 393 -247 l 393 -140 z "},"È":{"ha":804,"x_min":126,"x_max":731,"o":"m 126 0 l 126 979 l 731 979 l 731 906 l 211 906 l 211 535 l 703 535 l 703 460 l 211 460 l 211 74 l 731 74 l 731 0 l 126 0 m 415 1063 l 238 1271 l 340 1271 l 479 1063 l 415 1063 z "},"Ẻ":{"ha":804,"x_min":126,"x_max":731,"o":"m 126 0 l 126 979 l 731 979 l 731 906 l 211 906 l 211 535 l 703 535 l 703 460 l 211 460 l 211 74 l 731 74 l 731 0 l 126 0 m 481 1063 l 415 1063 l 415 1085 q 431 1124 415 1108 q 472 1153 446 1139 q 501 1172 492 1164 q 510 1189 510 1179 q 494 1208 510 1201 q 450 1215 478 1215 q 364 1199 408 1215 l 344 1254 q 453 1278 399 1278 q 551 1253 515 1278 q 588 1189 588 1229 q 572 1148 588 1163 q 525 1117 556 1133 q 492 1097 503 1107 q 481 1075 481 1088 l 481 1063 z "},"Ȇ":{"ha":804,"x_min":126,"x_max":731,"o":"m 126 0 l 126 979 l 731 979 l 731 906 l 211 906 l 211 535 l 703 535 l 703 460 l 211 460 l 211 74 l 731 74 l 731 0 l 126 0 m 447 1256 q 668 1108 608 1256 l 604 1082 q 534 1165 571 1142 q 447 1188 497 1188 q 360 1165 397 1188 q 290 1082 324 1142 l 226 1108 q 447 1256 288 1256 z "},"Ē":{"ha":804,"x_min":126,"x_max":731,"o":"m 126 0 l 126 979 l 731 979 l 731 906 l 211 906 l 211 535 l 703 535 l 703 460 l 211 460 l 211 74 l 731 74 l 731 0 l 126 0 m 242 1132 l 242 1204 l 653 1204 l 653 1132 l 242 1132 z "},"Ḗ":{"ha":804,"x_min":126,"x_max":731,"o":"m 126 0 l 126 979 l 731 979 l 731 906 l 211 906 l 211 535 l 703 535 l 703 460 l 211 460 l 211 74 l 731 74 l 731 0 l 126 0 m 242 1132 l 242 1204 l 653 1204 l 653 1132 l 242 1132 m 479 1285 l 415 1285 l 554 1493 l 657 1493 l 479 1285 z "},"Ḕ":{"ha":804,"x_min":126,"x_max":731,"o":"m 126 0 l 126 979 l 731 979 l 731 906 l 211 906 l 211 535 l 703 535 l 703 460 l 211 460 l 211 74 l 731 74 l 731 0 l 126 0 m 242 1132 l 242 1204 l 653 1204 l 653 1132 l 242 1132 m 415 1285 l 238 1493 l 340 1493 l 479 1285 l 415 1285 z "},"Ę":{"ha":804,"x_min":126,"x_max":776,"o":"m 776 -235 q 663 -265 729 -265 q 548 -225 592 -265 q 504 -122 504 -185 q 561 0 504 -49 l 126 0 l 126 979 l 731 979 l 731 906 l 211 906 l 211 535 l 703 535 l 703 460 l 211 460 l 211 74 l 731 74 l 731 0 l 713 0 q 613 -31 647 0 q 579 -112 579 -62 q 604 -179 579 -156 q 672 -203 629 -203 q 754 -178 711 -203 l 776 -235 z "},"Ẽ":{"ha":804,"x_min":126,"x_max":731,"o":"m 126 0 l 126 979 l 731 979 l 731 906 l 211 906 l 211 535 l 703 535 l 703 460 l 211 460 l 211 74 l 731 74 l 731 0 l 126 0 m 229 1099 q 260 1205 229 1165 q 346 1244 292 1244 q 402 1232 375 1244 q 464 1197 429 1219 q 513 1170 496 1178 q 546 1163 529 1163 q 594 1185 576 1163 q 611 1240 611 1208 l 665 1240 q 634 1133 665 1172 q 549 1094 603 1094 q 492 1107 519 1094 q 431 1140 464 1119 q 382 1167 399 1160 q 349 1175 365 1175 q 301 1153 318 1175 q 283 1099 283 1131 l 229 1099 z "},"F":{"ha":768,"x_min":126,"x_max":717,"o":"m 126 0 l 126 979 l 717 979 l 717 906 l 213 906 l 213 535 l 689 535 l 689 460 l 213 460 l 213 0 l 126 0 z "},"G":{"ha":999,"x_min":89,"x_max":883,"o":"m 883 501 l 883 56 q 736 8 829 26 q 549 -11 643 -11 q 302 49 406 -11 q 144 221 199 108 q 89 490 89 333 q 143 759 89 646 q 299 931 197 872 q 540 990 401 990 q 874 863 746 990 l 838 794 q 697 886 768 858 q 539 914 626 914 q 272 803 365 914 q 178 490 178 693 q 273 174 178 283 q 549 64 368 64 q 685 76 618 64 q 806 108 751 88 l 806 429 l 547 429 l 547 501 l 883 501 z "},"Ğ":{"ha":999,"x_min":89,"x_max":883,"o":"m 883 501 l 883 56 q 736 8 829 26 q 549 -11 643 -11 q 302 49 406 -11 q 144 221 199 108 q 89 490 89 333 q 143 759 89 646 q 299 931 197 872 q 540 990 401 990 q 874 863 746 990 l 838 794 q 697 886 768 858 q 539 914 626 914 q 272 803 365 914 q 178 490 178 693 q 273 174 178 283 q 549 64 368 64 q 685 76 618 64 q 806 108 751 88 l 806 429 l 547 429 l 547 501 l 883 501 m 539 1081 q 318 1226 378 1081 l 382 1254 q 452 1172 415 1194 q 539 1149 489 1149 q 626 1172 589 1149 q 696 1254 663 1194 l 760 1226 q 539 1081 699 1081 z "},"Ǧ":{"ha":999,"x_min":89,"x_max":883,"o":"m 883 501 l 883 56 q 736 8 829 26 q 549 -11 643 -11 q 302 49 406 -11 q 144 221 199 108 q 89 490 89 333 q 143 759 89 646 q 299 931 197 872 q 540 990 401 990 q 874 863 746 990 l 838 794 q 697 886 768 858 q 539 914 626 914 q 272 803 365 914 q 178 490 178 693 q 273 174 178 283 q 549 64 368 64 q 685 76 618 64 q 806 108 751 88 l 806 429 l 547 429 l 547 501 l 883 501 m 644 1271 l 731 1271 l 571 1063 l 507 1063 l 347 1271 l 433 1271 l 539 1121 l 644 1271 z "},"Ĝ":{"ha":999,"x_min":89,"x_max":883,"o":"m 883 501 l 883 56 q 736 8 829 26 q 549 -11 643 -11 q 302 49 406 -11 q 144 221 199 108 q 89 490 89 333 q 143 759 89 646 q 299 931 197 872 q 540 990 401 990 q 874 863 746 990 l 838 794 q 697 886 768 858 q 539 914 626 914 q 272 803 365 914 q 178 490 178 693 q 273 174 178 283 q 549 64 368 64 q 685 76 618 64 q 806 108 751 88 l 806 429 l 547 429 l 547 501 l 883 501 m 433 1063 l 347 1063 l 507 1271 l 571 1271 l 731 1063 l 644 1063 l 539 1213 l 433 1063 z "},"Ģ":{"ha":999,"x_min":89,"x_max":883,"o":"m 883 501 l 883 56 q 736 8 829 26 q 549 -11 643 -11 q 302 49 406 -11 q 144 221 199 108 q 89 490 89 333 q 143 759 89 646 q 299 931 197 872 q 540 990 401 990 q 874 863 746 990 l 838 794 q 697 886 768 858 q 539 914 626 914 q 272 803 365 914 q 178 490 178 693 q 273 174 178 283 q 549 64 368 64 q 685 76 618 64 q 806 108 751 88 l 806 429 l 547 429 l 547 501 l 883 501 m 607 -103 l 607 -181 q 592 -275 607 -233 q 540 -354 576 -317 l 496 -321 q 534 -264 524 -290 q 546 -204 544 -237 l 490 -204 l 490 -103 l 607 -103 z "},"Ġ":{"ha":999,"x_min":89,"x_max":883,"o":"m 883 501 l 883 56 q 736 8 829 26 q 549 -11 643 -11 q 302 49 406 -11 q 144 221 199 108 q 89 490 89 333 q 143 759 89 646 q 299 931 197 872 q 540 990 401 990 q 874 863 746 990 l 838 794 q 697 886 768 858 q 539 914 626 914 q 272 803 365 914 q 178 490 178 693 q 273 174 178 283 q 549 64 368 64 q 685 76 618 64 q 806 108 751 88 l 806 429 l 547 429 l 547 501 l 883 501 m 483 1222 l 594 1222 l 594 1115 l 483 1115 l 483 1222 z "},"Ḡ":{"ha":999,"x_min":89,"x_max":883,"o":"m 883 501 l 883 56 q 736 8 829 26 q 549 -11 643 -11 q 302 49 406 -11 q 144 221 199 108 q 89 490 89 333 q 143 759 89 646 q 299 931 197 872 q 540 990 401 990 q 874 863 746 990 l 838 794 q 697 886 768 858 q 539 914 626 914 q 272 803 365 914 q 178 490 178 693 q 273 174 178 283 q 549 64 368 64 q 685 76 618 64 q 806 108 751 88 l 806 429 l 547 429 l 547 501 l 883 501 m 333 1132 l 333 1204 l 744 1204 l 744 1132 l 333 1132 z "},"H":{"ha":1047,"x_min":126,"x_max":921,"o":"m 836 979 l 921 979 l 921 0 l 836 0 l 836 460 l 211 460 l 211 0 l 126 0 l 126 979 l 211 979 l 211 535 l 836 535 l 836 979 z "},"Ħ":{"ha":1072,"x_min":8,"x_max":1064,"o":"m 1064 799 l 1064 728 l 933 728 l 933 0 l 847 0 l 847 460 l 224 460 l 224 0 l 139 0 l 139 728 l 8 728 l 8 799 l 139 799 l 139 979 l 224 979 l 224 799 l 847 799 l 847 979 l 933 979 l 933 799 l 1064 799 m 847 535 l 847 728 l 224 728 l 224 535 l 847 535 z "},"Ḫ":{"ha":1047,"x_min":126,"x_max":921,"o":"m 836 979 l 921 979 l 921 0 l 836 0 l 836 460 l 211 460 l 211 0 l 126 0 l 126 979 l 211 979 l 211 535 l 836 535 l 836 979 m 525 -287 q 393 -247 451 -287 q 304 -119 335 -206 l 368 -92 q 437 -189 399 -160 q 525 -218 475 -218 q 613 -189 575 -218 q 682 -92 651 -160 l 746 -118 q 658 -247 717 -206 q 525 -287 599 -287 z "},"Ĥ":{"ha":1047,"x_min":126,"x_max":921,"o":"m 836 979 l 921 979 l 921 0 l 836 0 l 836 460 l 211 460 l 211 0 l 126 0 l 126 979 l 211 979 l 211 535 l 836 535 l 836 979 m 418 1063 l 332 1063 l 492 1271 l 556 1271 l 715 1063 l 629 1063 l 524 1213 l 418 1063 z "},"Ḥ":{"ha":1047,"x_min":126,"x_max":921,"o":"m 836 979 l 921 979 l 921 0 l 836 0 l 836 460 l 211 460 l 211 0 l 126 0 l 126 979 l 211 979 l 211 535 l 836 535 l 836 979 m 471 -140 l 579 -140 l 579 -247 l 471 -247 l 471 -140 z "},"I":{"ha":339,"x_min":126,"x_max":213,"o":"m 126 0 l 126 979 l 213 979 l 213 0 l 126 0 z "},"Í":{"ha":339,"x_min":126,"x_max":379,"o":"m 126 0 l 126 979 l 213 979 l 213 0 l 126 0 m 201 1063 l 138 1063 l 276 1271 l 379 1271 l 201 1063 z "},"Ĭ":{"ha":339,"x_min":-51,"x_max":390,"o":"m 126 0 l 126 979 l 213 979 l 213 0 l 126 0 m 169 1081 q -51 1226 8 1081 l 13 1254 q 83 1172 46 1194 q 169 1149 119 1149 q 256 1172 219 1149 q 326 1254 293 1194 l 390 1226 q 169 1081 329 1081 z "},"Î":{"ha":339,"x_min":-22,"x_max":361,"o":"m 126 0 l 126 979 l 213 979 l 213 0 l 126 0 m 64 1063 l -22 1063 l 138 1271 l 201 1271 l 361 1063 l 275 1063 l 169 1213 l 64 1063 z "},"Ȉ":{"ha":339,"x_min":-69,"x_max":272,"o":"m 126 0 l 126 979 l 213 979 l 213 0 l 126 0 m 67 1063 l -69 1271 l 17 1271 l 115 1063 l 67 1063 m 224 1063 l 89 1271 l 175 1271 l 272 1063 l 224 1063 z "},"Ï":{"ha":339,"x_min":3,"x_max":336,"o":"m 126 0 l 126 979 l 213 979 l 213 0 l 126 0 m 3 1218 l 107 1218 l 107 1118 l 3 1118 l 3 1218 m 232 1218 l 336 1218 l 336 1118 l 232 1118 l 232 1218 z "},"Ḯ":{"ha":339,"x_min":3,"x_max":379,"o":"m 126 0 l 126 979 l 213 979 l 213 0 l 126 0 m 3 1218 l 107 1218 l 107 1118 l 3 1118 l 3 1218 m 232 1218 l 336 1218 l 336 1118 l 232 1118 l 232 1218 m 201 1285 l 138 1285 l 276 1493 l 379 1493 l 201 1285 z "},"İ":{"ha":339,"x_min":114,"x_max":225,"o":"m 126 0 l 126 979 l 213 979 l 213 0 l 126 0 m 114 1222 l 225 1222 l 225 1115 l 114 1115 l 114 1222 z "},"Ị":{"ha":339,"x_min":115,"x_max":224,"o":"m 126 0 l 126 979 l 213 979 l 213 0 l 126 0 m 115 -140 l 224 -140 l 224 -247 l 115 -247 l 115 -140 z "},"Ì":{"ha":339,"x_min":-40,"x_max":213,"o":"m 126 0 l 126 979 l 213 979 l 213 0 l 126 0 m 138 1063 l -40 1271 l 63 1271 l 201 1063 l 138 1063 z "},"Ỉ":{"ha":339,"x_min":67,"x_max":310,"o":"m 126 0 l 126 979 l 213 979 l 213 0 l 126 0 m 203 1063 l 138 1063 l 138 1085 q 153 1124 138 1108 q 194 1153 168 1139 q 223 1172 214 1164 q 232 1189 232 1179 q 216 1208 232 1201 q 172 1215 200 1215 q 86 1199 131 1215 l 67 1254 q 175 1278 121 1278 q 274 1253 238 1278 q 310 1189 310 1229 q 294 1148 310 1163 q 247 1117 278 1133 q 214 1097 225 1107 q 203 1075 203 1088 l 203 1063 z "},"Ȋ":{"ha":339,"x_min":-51,"x_max":390,"o":"m 126 0 l 126 979 l 213 979 l 213 0 l 126 0 m 169 1256 q 390 1108 331 1256 l 326 1082 q 256 1165 293 1142 q 169 1188 219 1188 q 83 1165 119 1188 q 13 1082 46 1142 l -51 1108 q 169 1256 10 1256 z "},"Ī":{"ha":339,"x_min":-36,"x_max":375,"o":"m 126 0 l 126 979 l 213 979 l 213 0 l 126 0 m -36 1132 l -36 1204 l 375 1204 l 375 1132 l -36 1132 z "},"Į":{"ha":339,"x_min":4,"x_max":276,"o":"m 276 -235 q 163 -265 229 -265 q 48 -225 92 -265 q 4 -122 4 -185 q 35 -27 4 -69 q 126 38 67 15 l 126 979 l 213 979 l 213 0 l 206 0 q 113 -32 146 0 q 79 -112 79 -64 q 104 -179 79 -156 q 172 -203 129 -203 q 254 -178 210 -203 l 276 -235 z "},"Ĩ":{"ha":339,"x_min":-49,"x_max":388,"o":"m 126 0 l 126 979 l 213 979 l 213 0 l 126 0 m -49 1099 q -17 1205 -49 1165 q 68 1244 14 1244 q 124 1232 97 1244 q 186 1197 151 1219 q 235 1170 218 1178 q 268 1163 251 1163 q 316 1185 299 1163 q 333 1240 333 1208 l 388 1240 q 356 1133 388 1172 q 271 1094 325 1094 q 214 1107 242 1094 q 153 1140 186 1119 q 104 1167 121 1160 q 71 1175 88 1175 q 23 1153 40 1175 q 6 1099 6 1131 l -49 1099 z "},"J":{"ha":432,"x_min":-12,"x_max":306,"o":"m -12 64 l 64 69 q 179 124 139 75 q 219 256 219 174 l 219 979 l 306 979 l 306 253 q 246 70 306 136 q 74 -3 186 4 l -6 -8 l -12 64 z "},"Ĵ":{"ha":432,"x_min":-12,"x_max":454,"o":"m -12 64 l 64 69 q 179 124 139 75 q 219 256 219 174 l 219 979 l 306 979 l 306 253 q 246 70 306 136 q 74 -3 186 4 l -6 -8 l -12 64 m 157 1063 l 71 1063 l 231 1271 l 294 1271 l 454 1063 l 368 1063 l 263 1213 l 157 1063 z "},"K":{"ha":851,"x_min":126,"x_max":854,"o":"m 854 0 l 739 0 l 213 468 l 213 0 l 126 0 l 126 979 l 213 979 l 213 525 l 713 979 l 825 979 l 296 501 l 854 0 z "},"Ķ":{"ha":851,"x_min":126,"x_max":854,"o":"m 854 0 l 739 0 l 213 468 l 213 0 l 126 0 l 126 979 l 213 979 l 213 525 l 713 979 l 825 979 l 296 501 l 854 0 m 488 -103 l 488 -181 q 472 -275 488 -233 q 421 -354 457 -317 l 376 -321 q 415 -264 404 -290 q 426 -204 425 -237 l 371 -204 l 371 -103 l 488 -103 z "},"L":{"ha":740,"x_min":126,"x_max":718,"o":"m 126 0 l 126 979 l 213 979 l 213 75 l 718 75 l 718 0 l 126 0 z "},"Ǉ":{"ha":1171,"x_min":126,"x_max":1043,"o":"m 126 0 l 126 979 l 213 979 l 213 75 l 676 75 l 676 0 l 126 0 m 726 64 l 803 69 q 958 236 958 82 l 958 979 l 1043 979 l 1043 240 q 985 66 1043 128 q 813 -3 926 4 l 732 -8 l 726 64 z "},"Ĺ":{"ha":740,"x_min":126,"x_max":718,"o":"m 126 0 l 126 979 l 213 979 l 213 75 l 718 75 l 718 0 l 126 0 m 201 1063 l 138 1063 l 276 1271 l 379 1271 l 201 1063 z "},"Ľ":{"ha":740,"x_min":126,"x_max":718,"o":"m 126 0 l 126 979 l 213 979 l 213 75 l 718 75 l 718 0 l 126 0 m 378 717 l 328 717 l 328 979 l 414 979 l 378 717 z "},"Ļ":{"ha":740,"x_min":126,"x_max":718,"o":"m 126 0 l 126 979 l 213 979 l 213 75 l 718 75 l 718 0 l 126 0 m 485 -103 l 485 -181 q 469 -275 485 -233 q 418 -354 454 -317 l 374 -321 q 412 -264 401 -290 q 424 -204 422 -237 l 368 -204 l 368 -103 l 485 -103 z "},"Ŀ":{"ha":740,"x_min":126,"x_max":718,"o":"m 126 0 l 126 979 l 213 979 l 213 75 l 718 75 l 718 0 l 126 0 m 411 546 l 529 546 l 529 435 l 411 435 l 411 546 z "},"Ḷ":{"ha":740,"x_min":126,"x_max":718,"o":"m 126 0 l 126 979 l 213 979 l 213 75 l 718 75 l 718 0 l 126 0 m 372 -140 l 481 -140 l 481 -247 l 372 -247 l 372 -140 z "},"ǈ":{"ha":1049,"x_min":126,"x_max":950,"o":"m 126 0 l 126 979 l 213 979 l 213 75 l 718 75 l 718 0 l 126 0 m 936 -4 q 704 -250 936 -235 l 643 -254 l 635 -186 l 696 -182 q 812 -133 772 -176 q 851 -12 851 -90 l 851 674 l 936 674 l 936 -4 m 839 958 l 950 958 l 950 851 l 839 851 l 839 958 z "},"Ḻ":{"ha":740,"x_min":126,"x_max":718,"o":"m 126 0 l 126 979 l 213 979 l 213 75 l 718 75 l 718 0 l 126 0 m 221 -229 l 221 -158 l 632 -158 l 632 -229 l 221 -229 z "},"Ł":{"ha":753,"x_min":-7,"x_max":731,"o":"m 224 75 l 731 75 l 731 0 l 139 0 l 139 429 l 31 367 l -7 429 l 139 513 l 139 979 l 224 979 l 224 563 l 468 703 l 504 640 l 224 478 l 224 75 z "},"M":{"ha":1167,"x_min":126,"x_max":1040,"o":"m 968 979 l 1040 979 l 1040 0 l 960 0 l 960 808 l 617 154 l 553 154 l 207 803 l 208 0 l 126 0 l 126 979 l 199 979 l 586 238 l 968 979 z "},"Ṃ":{"ha":1167,"x_min":126,"x_max":1040,"o":"m 968 979 l 1040 979 l 1040 0 l 960 0 l 960 808 l 617 154 l 553 154 l 207 803 l 208 0 l 126 0 l 126 979 l 199 979 l 586 238 l 968 979 m 529 -140 l 638 -140 l 638 -247 l 529 -247 l 529 -140 z "},"N":{"ha":1021,"x_min":126,"x_max":894,"o":"m 814 979 l 894 979 l 894 0 l 828 0 l 207 835 l 207 0 l 126 0 l 126 979 l 194 979 l 814 146 l 814 979 z "},"Ǌ":{"ha":1453,"x_min":126,"x_max":1326,"o":"m 814 979 l 894 979 l 894 0 l 828 0 l 207 835 l 207 0 l 126 0 l 126 979 l 194 979 l 814 146 l 814 979 m 1008 64 l 1085 69 q 1200 124 1160 75 q 1240 256 1240 174 l 1240 979 l 1326 979 l 1326 253 q 1267 70 1326 136 q 1094 -3 1207 4 l 1015 -8 l 1008 64 z "},"Ń":{"ha":1021,"x_min":126,"x_max":894,"o":"m 814 979 l 894 979 l 894 0 l 828 0 l 207 835 l 207 0 l 126 0 l 126 979 l 194 979 l 814 146 l 814 979 m 543 1063 l 479 1063 l 618 1271 l 721 1271 l 543 1063 z "},"Ň":{"ha":1021,"x_min":126,"x_max":894,"o":"m 814 979 l 894 979 l 894 0 l 828 0 l 207 835 l 207 0 l 126 0 l 126 979 l 194 979 l 814 146 l 814 979 m 617 1271 l 703 1271 l 543 1063 l 479 1063 l 319 1271 l 406 1271 l 511 1121 l 617 1271 z "},"Ņ":{"ha":1021,"x_min":126,"x_max":894,"o":"m 814 979 l 894 979 l 894 0 l 828 0 l 207 835 l 207 0 l 126 0 l 126 979 l 194 979 l 814 146 l 814 979 m 569 -103 l 569 -181 q 554 -275 569 -233 q 503 -354 539 -317 l 458 -321 q 497 -264 486 -290 q 508 -204 507 -237 l 453 -204 l 453 -103 l 569 -103 z "},"Ṅ":{"ha":1021,"x_min":126,"x_max":894,"o":"m 814 979 l 894 979 l 894 0 l 828 0 l 207 835 l 207 0 l 126 0 l 126 979 l 194 979 l 814 146 l 814 979 m 456 1222 l 567 1222 l 567 1115 l 456 1115 l 456 1222 z "},"Ṇ":{"ha":1021,"x_min":126,"x_max":894,"o":"m 814 979 l 894 979 l 894 0 l 828 0 l 207 835 l 207 0 l 126 0 l 126 979 l 194 979 l 814 146 l 814 979 m 457 -140 l 565 -140 l 565 -247 l 457 -247 l 457 -140 z "},"Ŋ":{"ha":1021,"x_min":126,"x_max":894,"o":"m 894 979 l 894 -8 q 664 -253 894 -237 l 583 -258 l 578 -186 l 653 -181 q 814 -14 814 -168 l 814 17 l 207 835 l 207 0 l 126 0 l 126 979 l 194 979 l 814 146 l 814 979 l 894 979 z "},"ǋ":{"ha":1329,"x_min":126,"x_max":1231,"o":"m 814 979 l 894 979 l 894 0 l 828 0 l 207 835 l 207 0 l 126 0 l 126 979 l 194 979 l 814 146 l 814 979 m 1217 -4 q 985 -250 1217 -235 l 924 -254 l 915 -186 l 976 -182 q 1092 -133 1053 -176 q 1132 -12 1132 -90 l 1132 674 l 1217 674 l 1217 -4 m 1119 958 l 1231 958 l 1231 851 l 1119 851 l 1119 958 z "},"Ṉ":{"ha":1021,"x_min":126,"x_max":894,"o":"m 814 979 l 894 979 l 894 0 l 828 0 l 207 835 l 207 0 l 126 0 l 126 979 l 194 979 l 814 146 l 814 979 m 306 -229 l 306 -158 l 717 -158 l 717 -229 l 306 -229 z "},"Ñ":{"ha":1021,"x_min":126,"x_max":894,"o":"m 814 979 l 894 979 l 894 0 l 828 0 l 207 835 l 207 0 l 126 0 l 126 979 l 194 979 l 814 146 l 814 979 m 293 1099 q 324 1205 293 1165 q 410 1244 356 1244 q 466 1232 439 1244 q 528 1197 493 1219 q 576 1170 560 1178 q 610 1163 593 1163 q 658 1185 640 1163 q 675 1240 675 1208 l 729 1240 q 698 1133 729 1172 q 613 1094 667 1094 q 556 1107 583 1094 q 494 1140 528 1119 q 446 1167 463 1160 q 413 1175 429 1175 q 365 1153 382 1175 q 347 1099 347 1131 l 293 1099 z "},"O":{"ha":1051,"x_min":89,"x_max":963,"o":"m 525 -11 q 293 49 392 -11 q 142 223 194 110 q 89 489 89 336 q 142 756 89 643 q 292 930 194 869 q 525 990 390 990 q 758 930 660 990 q 910 757 857 869 q 963 490 963 644 q 910 223 963 336 q 758 49 857 110 q 525 -11 660 -11 m 525 65 q 782 176 690 65 q 874 490 874 288 q 783 803 874 693 q 525 914 692 914 q 269 803 360 914 q 178 490 178 692 q 269 177 178 289 q 525 65 360 65 z "},"Ó":{"ha":1051,"x_min":89,"x_max":963,"o":"m 525 -11 q 293 49 392 -11 q 142 223 194 110 q 89 489 89 336 q 142 756 89 643 q 292 930 194 869 q 525 990 390 990 q 758 930 660 990 q 910 757 857 869 q 963 490 963 644 q 910 223 963 336 q 758 49 857 110 q 525 -11 660 -11 m 525 65 q 782 176 690 65 q 874 490 874 288 q 783 803 874 693 q 525 914 692 914 q 269 803 360 914 q 178 490 178 692 q 269 177 178 289 q 525 65 360 65 m 557 1063 l 493 1063 l 632 1271 l 735 1271 l 557 1063 z "},"Ŏ":{"ha":1051,"x_min":89,"x_max":963,"o":"m 525 -11 q 293 49 392 -11 q 142 223 194 110 q 89 489 89 336 q 142 756 89 643 q 292 930 194 869 q 525 990 390 990 q 758 930 660 990 q 910 757 857 869 q 963 490 963 644 q 910 223 963 336 q 758 49 857 110 q 525 -11 660 -11 m 525 65 q 782 176 690 65 q 874 490 874 288 q 783 803 874 693 q 525 914 692 914 q 269 803 360 914 q 178 490 178 692 q 269 177 178 289 q 525 65 360 65 m 525 1081 q 304 1226 364 1081 l 368 1254 q 438 1172 401 1194 q 525 1149 475 1149 q 612 1172 575 1149 q 682 1254 649 1194 l 746 1226 q 525 1081 685 1081 z "},"Ô":{"ha":1051,"x_min":89,"x_max":963,"o":"m 525 -11 q 293 49 392 -11 q 142 223 194 110 q 89 489 89 336 q 142 756 89 643 q 292 930 194 869 q 525 990 390 990 q 758 930 660 990 q 910 757 857 869 q 963 490 963 644 q 910 223 963 336 q 758 49 857 110 q 525 -11 660 -11 m 525 65 q 782 176 690 65 q 874 490 874 288 q 783 803 874 693 q 525 914 692 914 q 269 803 360 914 q 178 490 178 692 q 269 177 178 289 q 525 65 360 65 m 419 1063 l 333 1063 l 493 1271 l 557 1271 l 717 1063 l 631 1063 l 525 1213 l 419 1063 z "},"Ố":{"ha":1051,"x_min":89,"x_max":963,"o":"m 525 -11 q 293 49 392 -11 q 142 223 194 110 q 89 489 89 336 q 142 756 89 643 q 292 930 194 869 q 525 990 390 990 q 758 930 660 990 q 910 757 857 869 q 963 490 963 644 q 910 223 963 336 q 758 49 857 110 q 525 -11 660 -11 m 525 65 q 782 176 690 65 q 874 490 874 288 q 783 803 874 693 q 525 914 692 914 q 269 803 360 914 q 178 490 178 692 q 269 177 178 289 q 525 65 360 65 m 697 1203 l 639 1203 l 774 1400 l 875 1400 l 697 1203 m 419 1063 l 333 1063 l 493 1269 l 557 1269 l 717 1063 l 631 1063 l 525 1211 l 419 1063 z "},"Ộ":{"ha":1051,"x_min":89,"x_max":963,"o":"m 525 -11 q 293 49 392 -11 q 142 223 194 110 q 89 489 89 336 q 142 756 89 643 q 292 930 194 869 q 525 990 390 990 q 758 930 660 990 q 910 757 857 869 q 963 490 963 644 q 910 223 963 336 q 758 49 857 110 q 525 -11 660 -11 m 525 65 q 782 176 690 65 q 874 490 874 288 q 783 803 874 693 q 525 914 692 914 q 269 803 360 914 q 178 490 178 692 q 269 177 178 289 q 525 65 360 65 m 471 -140 l 579 -140 l 579 -247 l 471 -247 l 471 -140 m 419 1063 l 333 1063 l 493 1271 l 557 1271 l 717 1063 l 631 1063 l 525 1213 l 419 1063 z "},"Ồ":{"ha":1051,"x_min":89,"x_max":963,"o":"m 525 -11 q 293 49 392 -11 q 142 223 194 110 q 89 489 89 336 q 142 756 89 643 q 292 930 194 869 q 525 990 390 990 q 758 930 660 990 q 910 757 857 869 q 963 490 963 644 q 910 223 963 336 q 758 49 857 110 q 525 -11 660 -11 m 525 65 q 782 176 690 65 q 874 490 874 288 q 783 803 874 693 q 525 914 692 914 q 269 803 360 914 q 178 490 178 692 q 269 177 178 289 q 525 65 360 65 m 699 1203 l 547 1400 l 649 1400 l 757 1203 l 699 1203 m 419 1063 l 333 1063 l 493 1269 l 557 1269 l 717 1063 l 631 1063 l 525 1211 l 419 1063 z "},"Ổ":{"ha":1051,"x_min":89,"x_max":963,"o":"m 525 -11 q 293 49 392 -11 q 142 223 194 110 q 89 489 89 336 q 142 756 89 643 q 292 930 194 869 q 525 990 390 990 q 758 930 660 990 q 910 757 857 869 q 963 490 963 644 q 910 223 963 336 q 758 49 857 110 q 525 -11 660 -11 m 525 65 q 782 176 690 65 q 874 490 874 288 q 783 803 874 693 q 525 914 692 914 q 269 803 360 914 q 178 490 178 692 q 269 177 178 289 q 525 65 360 65 m 703 1203 l 638 1203 l 638 1226 q 653 1263 638 1250 q 696 1288 668 1276 q 724 1302 715 1296 q 732 1318 732 1308 q 716 1338 732 1331 q 672 1344 700 1344 q 586 1329 632 1344 l 567 1383 q 675 1407 621 1407 q 774 1383 738 1407 q 810 1319 810 1358 q 794 1281 810 1294 q 749 1256 778 1268 q 715 1238 726 1246 q 703 1215 703 1229 l 703 1203 m 419 1063 l 333 1063 l 493 1269 l 557 1269 l 717 1063 l 631 1063 l 525 1211 l 419 1063 z "},"Ỗ":{"ha":1051,"x_min":89,"x_max":963,"o":"m 525 -11 q 293 49 392 -11 q 142 223 194 110 q 89 489 89 336 q 142 756 89 643 q 292 930 194 869 q 525 990 390 990 q 758 930 660 990 q 910 757 857 869 q 963 490 963 644 q 910 223 963 336 q 758 49 857 110 q 525 -11 660 -11 m 525 65 q 782 176 690 65 q 874 490 874 288 q 783 803 874 693 q 525 914 692 914 q 269 803 360 914 q 178 490 178 692 q 269 177 178 289 q 525 65 360 65 m 307 1289 q 338 1386 307 1349 q 424 1424 369 1424 q 479 1415 453 1424 q 542 1388 506 1406 q 588 1367 569 1374 q 624 1360 607 1360 q 672 1381 654 1360 q 689 1428 689 1403 l 743 1428 q 712 1331 743 1368 q 626 1293 681 1293 q 571 1302 597 1293 q 508 1329 544 1311 q 462 1350 481 1343 q 426 1357 443 1357 q 378 1335 396 1357 q 361 1289 361 1314 l 307 1289 m 419 1063 l 333 1063 l 493 1269 l 557 1269 l 717 1063 l 631 1063 l 525 1211 l 419 1063 z "},"Ȍ":{"ha":1051,"x_min":89,"x_max":963,"o":"m 525 -11 q 293 49 392 -11 q 142 223 194 110 q 89 489 89 336 q 142 756 89 643 q 292 930 194 869 q 525 990 390 990 q 758 930 660 990 q 910 757 857 869 q 963 490 963 644 q 910 223 963 336 q 758 49 857 110 q 525 -11 660 -11 m 525 65 q 782 176 690 65 q 874 490 874 288 q 783 803 874 693 q 525 914 692 914 q 269 803 360 914 q 178 490 178 692 q 269 177 178 289 q 525 65 360 65 m 422 1063 l 286 1271 l 372 1271 l 471 1063 l 422 1063 m 579 1063 l 444 1271 l 531 1271 l 628 1063 l 579 1063 z "},"Ö":{"ha":1051,"x_min":89,"x_max":963,"o":"m 525 -11 q 293 49 392 -11 q 142 223 194 110 q 89 489 89 336 q 142 756 89 643 q 292 930 194 869 q 525 990 390 990 q 758 930 660 990 q 910 757 857 869 q 963 490 963 644 q 910 223 963 336 q 758 49 857 110 q 525 -11 660 -11 m 525 65 q 782 176 690 65 q 874 490 874 288 q 783 803 874 693 q 525 914 692 914 q 269 803 360 914 q 178 490 178 692 q 269 177 178 289 q 525 65 360 65 m 358 1218 l 463 1218 l 463 1118 l 358 1118 l 358 1218 m 588 1218 l 692 1218 l 692 1118 l 588 1118 l 588 1218 z "},"Ȫ":{"ha":1051,"x_min":89,"x_max":963,"o":"m 525 -11 q 293 49 392 -11 q 142 223 194 110 q 89 489 89 336 q 142 756 89 643 q 292 930 194 869 q 525 990 390 990 q 758 930 660 990 q 910 757 857 869 q 963 490 963 644 q 910 223 963 336 q 758 49 857 110 q 525 -11 660 -11 m 525 65 q 782 176 690 65 q 874 490 874 288 q 783 803 874 693 q 525 914 692 914 q 269 803 360 914 q 178 490 178 692 q 269 177 178 289 q 525 65 360 65 m 358 1218 l 463 1218 l 463 1118 l 358 1118 l 358 1218 m 588 1218 l 692 1218 l 692 1118 l 588 1118 l 588 1218 m 319 1354 l 319 1426 l 731 1426 l 731 1354 l 319 1354 z "},"Ȱ":{"ha":1051,"x_min":89,"x_max":963,"o":"m 525 -11 q 293 49 392 -11 q 142 223 194 110 q 89 489 89 336 q 142 756 89 643 q 292 930 194 869 q 525 990 390 990 q 758 930 660 990 q 910 757 857 869 q 963 490 963 644 q 910 223 963 336 q 758 49 857 110 q 525 -11 660 -11 m 525 65 q 782 176 690 65 q 874 490 874 288 q 783 803 874 693 q 525 914 692 914 q 269 803 360 914 q 178 490 178 692 q 269 177 178 289 q 525 65 360 65 m 469 1222 l 581 1222 l 581 1115 l 469 1115 l 469 1222 m 319 1354 l 319 1426 l 731 1426 l 731 1354 l 319 1354 z "},"Ọ":{"ha":1051,"x_min":89,"x_max":963,"o":"m 525 -11 q 293 49 392 -11 q 142 223 194 110 q 89 489 89 336 q 142 756 89 643 q 292 930 194 869 q 525 990 390 990 q 758 930 660 990 q 910 757 857 869 q 963 490 963 644 q 910 223 963 336 q 758 49 857 110 q 525 -11 660 -11 m 525 65 q 782 176 690 65 q 874 490 874 288 q 783 803 874 693 q 525 914 692 914 q 269 803 360 914 q 178 490 178 692 q 269 177 178 289 q 525 65 360 65 m 471 -140 l 579 -140 l 579 -247 l 471 -247 l 471 -140 z "},"Ò":{"ha":1051,"x_min":89,"x_max":963,"o":"m 525 -11 q 293 49 392 -11 q 142 223 194 110 q 89 489 89 336 q 142 756 89 643 q 292 930 194 869 q 525 990 390 990 q 758 930 660 990 q 910 757 857 869 q 963 490 963 644 q 910 223 963 336 q 758 49 857 110 q 525 -11 660 -11 m 525 65 q 782 176 690 65 q 874 490 874 288 q 783 803 874 693 q 525 914 692 914 q 269 803 360 914 q 178 490 178 692 q 269 177 178 289 q 525 65 360 65 m 493 1063 l 315 1271 l 418 1271 l 557 1063 l 493 1063 z "},"Ỏ":{"ha":1051,"x_min":89,"x_max":963,"o":"m 525 -11 q 293 49 392 -11 q 142 223 194 110 q 89 489 89 336 q 142 756 89 643 q 292 930 194 869 q 525 990 390 990 q 758 930 660 990 q 910 757 857 869 q 963 490 963 644 q 910 223 963 336 q 758 49 857 110 q 525 -11 660 -11 m 525 65 q 782 176 690 65 q 874 490 874 288 q 783 803 874 693 q 525 914 692 914 q 269 803 360 914 q 178 490 178 692 q 269 177 178 289 q 525 65 360 65 m 558 1063 l 493 1063 l 493 1085 q 508 1124 493 1108 q 550 1153 524 1139 q 578 1172 569 1164 q 588 1189 588 1179 q 572 1208 588 1201 q 528 1215 556 1215 q 442 1199 486 1215 l 422 1254 q 531 1278 476 1278 q 629 1253 593 1278 q 665 1189 665 1229 q 649 1148 665 1163 q 603 1117 633 1133 q 569 1097 581 1107 q 558 1075 558 1088 l 558 1063 z "},"Ơ":{"ha":1051,"x_min":89,"x_max":963,"o":"m 963 1121 q 912 978 963 1031 q 771 919 861 925 q 914 749 865 858 q 963 490 963 639 q 909 223 963 336 q 757 49 856 110 q 525 -11 658 -11 q 294 49 393 -11 q 142 223 196 110 q 89 489 89 336 q 142 756 89 643 q 294 930 194 869 q 531 990 393 990 q 636 985 567 990 q 725 979 700 979 q 849 1016 813 981 q 886 1135 886 1051 l 886 1154 l 963 1154 l 963 1121 m 874 490 q 783 803 874 693 q 525 914 692 914 q 269 803 360 914 q 178 490 178 692 q 269 177 178 289 q 525 65 360 65 q 782 176 690 65 q 874 490 874 288 z "},"Ớ":{"ha":1051,"x_min":89,"x_max":963,"o":"m 963 1121 q 912 978 963 1031 q 771 919 861 925 q 914 749 865 858 q 963 490 963 639 q 909 223 963 336 q 757 49 856 110 q 525 -11 658 -11 q 294 49 393 -11 q 142 223 196 110 q 89 489 89 336 q 142 756 89 643 q 294 930 194 869 q 531 990 393 990 q 636 985 567 990 q 725 979 700 979 q 849 1016 813 981 q 886 1135 886 1051 l 886 1154 l 963 1154 l 963 1121 m 874 490 q 783 803 874 693 q 525 914 692 914 q 269 803 360 914 q 178 490 178 692 q 269 177 178 289 q 525 65 360 65 q 782 176 690 65 q 874 490 874 288 m 557 1063 l 493 1063 l 632 1271 l 735 1271 l 557 1063 z "},"Ợ":{"ha":1051,"x_min":89,"x_max":963,"o":"m 963 1121 q 912 978 963 1031 q 771 919 861 925 q 914 749 865 858 q 963 490 963 639 q 909 223 963 336 q 757 49 856 110 q 525 -11 658 -11 q 294 49 393 -11 q 142 223 196 110 q 89 489 89 336 q 142 756 89 643 q 294 930 194 869 q 531 990 393 990 q 636 985 567 990 q 725 979 700 979 q 849 1016 813 981 q 886 1135 886 1051 l 886 1154 l 963 1154 l 963 1121 m 874 490 q 783 803 874 693 q 525 914 692 914 q 269 803 360 914 q 178 490 178 692 q 269 177 178 289 q 525 65 360 65 q 782 176 690 65 q 874 490 874 288 m 472 -140 l 581 -140 l 581 -247 l 472 -247 l 472 -140 z "},"Ờ":{"ha":1051,"x_min":89,"x_max":963,"o":"m 963 1121 q 912 978 963 1031 q 771 919 861 925 q 914 749 865 858 q 963 490 963 639 q 909 223 963 336 q 757 49 856 110 q 525 -11 658 -11 q 294 49 393 -11 q 142 223 196 110 q 89 489 89 336 q 142 756 89 643 q 294 930 194 869 q 531 990 393 990 q 636 985 567 990 q 725 979 700 979 q 849 1016 813 981 q 886 1135 886 1051 l 886 1154 l 963 1154 l 963 1121 m 874 490 q 783 803 874 693 q 525 914 692 914 q 269 803 360 914 q 178 490 178 692 q 269 177 178 289 q 525 65 360 65 q 782 176 690 65 q 874 490 874 288 m 493 1063 l 315 1271 l 418 1271 l 557 1063 l 493 1063 z "},"Ở":{"ha":1051,"x_min":89,"x_max":963,"o":"m 963 1121 q 912 978 963 1031 q 771 919 861 925 q 914 749 865 858 q 963 490 963 639 q 909 223 963 336 q 757 49 856 110 q 525 -11 658 -11 q 294 49 393 -11 q 142 223 196 110 q 89 489 89 336 q 142 756 89 643 q 294 930 194 869 q 531 990 393 990 q 636 985 567 990 q 725 979 700 979 q 849 1016 813 981 q 886 1135 886 1051 l 886 1154 l 963 1154 l 963 1121 m 874 490 q 783 803 874 693 q 525 914 692 914 q 269 803 360 914 q 178 490 178 692 q 269 177 178 289 q 525 65 360 65 q 782 176 690 65 q 874 490 874 288 m 558 1063 l 493 1063 l 493 1085 q 508 1124 493 1108 q 550 1153 524 1139 q 578 1172 569 1164 q 588 1189 588 1179 q 572 1208 588 1201 q 528 1215 556 1215 q 442 1199 486 1215 l 422 1254 q 531 1278 476 1278 q 629 1253 593 1278 q 665 1189 665 1229 q 649 1148 665 1163 q 603 1117 633 1133 q 569 1097 581 1107 q 558 1075 558 1088 l 558 1063 z "},"Ỡ":{"ha":1051,"x_min":89,"x_max":963,"o":"m 963 1121 q 912 978 963 1031 q 771 919 861 925 q 914 749 865 858 q 963 490 963 639 q 909 223 963 336 q 757 49 856 110 q 525 -11 658 -11 q 294 49 393 -11 q 142 223 196 110 q 89 489 89 336 q 142 756 89 643 q 294 930 194 869 q 531 990 393 990 q 636 985 567 990 q 725 979 700 979 q 849 1016 813 981 q 886 1135 886 1051 l 886 1154 l 963 1154 l 963 1121 m 874 490 q 783 803 874 693 q 525 914 692 914 q 269 803 360 914 q 178 490 178 692 q 269 177 178 289 q 525 65 360 65 q 782 176 690 65 q 874 490 874 288 m 307 1099 q 338 1205 307 1165 q 424 1244 369 1244 q 480 1232 453 1244 q 542 1197 507 1219 q 590 1170 574 1178 q 624 1163 607 1163 q 672 1185 654 1163 q 689 1240 689 1208 l 743 1240 q 712 1133 743 1172 q 626 1094 681 1094 q 569 1107 597 1094 q 508 1140 542 1119 q 460 1167 476 1160 q 426 1175 443 1175 q 378 1153 396 1175 q 361 1099 361 1131 l 307 1099 z "},"Ő":{"ha":1051,"x_min":89,"x_max":963,"o":"m 525 -11 q 293 49 392 -11 q 142 223 194 110 q 89 489 89 336 q 142 756 89 643 q 292 930 194 869 q 525 990 390 990 q 758 930 660 990 q 910 757 857 869 q 963 490 963 644 q 910 223 963 336 q 758 49 857 110 q 525 -11 660 -11 m 525 65 q 782 176 690 65 q 874 490 874 288 q 783 803 874 693 q 525 914 692 914 q 269 803 360 914 q 178 490 178 692 q 269 177 178 289 q 525 65 360 65 m 483 1063 l 435 1063 l 532 1271 l 618 1271 l 483 1063 m 615 1063 l 567 1063 l 664 1271 l 750 1271 l 615 1063 z "},"Ȏ":{"ha":1051,"x_min":89,"x_max":963,"o":"m 525 -11 q 293 49 392 -11 q 142 223 194 110 q 89 489 89 336 q 142 756 89 643 q 292 930 194 869 q 525 990 390 990 q 758 930 660 990 q 910 757 857 869 q 963 490 963 644 q 910 223 963 336 q 758 49 857 110 q 525 -11 660 -11 m 525 65 q 782 176 690 65 q 874 490 874 288 q 783 803 874 693 q 525 914 692 914 q 269 803 360 914 q 178 490 178 692 q 269 177 178 289 q 525 65 360 65 m 525 1256 q 746 1108 686 1256 l 682 1082 q 612 1165 649 1142 q 525 1188 575 1188 q 438 1165 475 1188 q 368 1082 401 1142 l 304 1108 q 525 1256 365 1256 z "},"Ō":{"ha":1051,"x_min":89,"x_max":963,"o":"m 525 -11 q 293 49 392 -11 q 142 223 194 110 q 89 489 89 336 q 142 756 89 643 q 292 930 194 869 q 525 990 390 990 q 758 930 660 990 q 910 757 857 869 q 963 490 963 644 q 910 223 963 336 q 758 49 857 110 q 525 -11 660 -11 m 525 65 q 782 176 690 65 q 874 490 874 288 q 783 803 874 693 q 525 914 692 914 q 269 803 360 914 q 178 490 178 692 q 269 177 178 289 q 525 65 360 65 m 319 1132 l 319 1204 l 731 1204 l 731 1132 l 319 1132 z "},"Ṓ":{"ha":1051,"x_min":89,"x_max":963,"o":"m 525 -11 q 293 49 392 -11 q 142 223 194 110 q 89 489 89 336 q 142 756 89 643 q 292 930 194 869 q 525 990 390 990 q 758 930 660 990 q 910 757 857 869 q 963 490 963 644 q 910 223 963 336 q 758 49 857 110 q 525 -11 660 -11 m 525 65 q 782 176 690 65 q 874 490 874 288 q 783 803 874 693 q 525 914 692 914 q 269 803 360 914 q 178 490 178 692 q 269 177 178 289 q 525 65 360 65 m 319 1132 l 319 1204 l 731 1204 l 731 1132 l 319 1132 m 557 1285 l 493 1285 l 632 1493 l 735 1493 l 557 1285 z "},"Ṑ":{"ha":1051,"x_min":89,"x_max":963,"o":"m 525 -11 q 293 49 392 -11 q 142 223 194 110 q 89 489 89 336 q 142 756 89 643 q 292 930 194 869 q 525 990 390 990 q 758 930 660 990 q 910 757 857 869 q 963 490 963 644 q 910 223 963 336 q 758 49 857 110 q 525 -11 660 -11 m 525 65 q 782 176 690 65 q 874 490 874 288 q 783 803 874 693 q 525 914 692 914 q 269 803 360 914 q 178 490 178 692 q 269 177 178 289 q 525 65 360 65 m 319 1132 l 319 1204 l 731 1204 l 731 1132 l 319 1132 m 493 1285 l 315 1493 l 418 1493 l 557 1285 l 493 1285 z "},"Ǫ":{"ha":1051,"x_min":89,"x_max":963,"o":"m 651 4 q 547 -112 547 -25 q 572 -178 547 -154 q 640 -203 597 -203 q 722 -178 675 -203 l 744 -235 q 631 -265 696 -265 q 517 -226 561 -265 q 472 -122 472 -186 q 518 -11 472 -60 q 291 51 388 -10 q 142 225 194 113 q 89 489 89 338 q 142 756 89 643 q 293 930 194 869 q 525 990 392 990 q 758 930 660 990 q 910 757 857 869 q 963 490 963 644 q 881 172 963 299 q 651 4 800 46 m 178 490 q 269 177 178 289 q 525 65 360 65 q 782 176 690 65 q 874 490 874 288 q 783 803 874 693 q 525 914 692 914 q 269 803 360 914 q 178 490 178 692 z "},"Ø":{"ha":1051,"x_min":89,"x_max":963,"o":"m 806 897 q 922 728 882 832 q 963 490 963 625 q 910 223 963 336 q 758 49 857 110 q 525 -11 660 -11 q 307 42 400 -11 l 249 -57 l 188 -21 l 247 82 q 130 251 171 147 q 89 489 89 354 q 142 756 89 643 q 292 930 194 869 q 525 990 390 990 q 746 938 651 990 l 803 1036 l 865 1000 l 806 897 m 178 490 q 289 154 178 265 l 706 869 q 525 914 629 914 q 269 803 360 914 q 178 490 178 692 m 525 65 q 782 176 690 65 q 874 490 874 288 q 764 825 874 713 l 346 110 q 525 65 422 65 z "},"Ǿ":{"ha":1051,"x_min":89,"x_max":963,"o":"m 806 897 q 922 728 882 832 q 963 490 963 625 q 910 223 963 336 q 758 49 857 110 q 525 -11 660 -11 q 307 42 400 -11 l 249 -57 l 188 -21 l 247 82 q 130 251 171 147 q 89 489 89 354 q 142 756 89 643 q 292 930 194 869 q 525 990 390 990 q 746 938 651 990 l 803 1036 l 865 1000 l 806 897 m 178 490 q 289 154 178 265 l 706 869 q 525 914 629 914 q 269 803 360 914 q 178 490 178 692 m 525 65 q 782 176 690 65 q 874 490 874 288 q 764 825 874 713 l 346 110 q 525 65 422 65 m 557 1063 l 493 1063 l 632 1271 l 735 1271 l 557 1063 z "},"Õ":{"ha":1051,"x_min":89,"x_max":963,"o":"m 525 -11 q 293 49 392 -11 q 142 223 194 110 q 89 489 89 336 q 142 756 89 643 q 292 930 194 869 q 525 990 390 990 q 758 930 660 990 q 910 757 857 869 q 963 490 963 644 q 910 223 963 336 q 758 49 857 110 q 525 -11 660 -11 m 525 65 q 782 176 690 65 q 874 490 874 288 q 783 803 874 693 q 525 914 692 914 q 269 803 360 914 q 178 490 178 692 q 269 177 178 289 q 525 65 360 65 m 307 1099 q 338 1205 307 1165 q 424 1244 369 1244 q 480 1232 453 1244 q 542 1197 507 1219 q 590 1170 574 1178 q 624 1163 607 1163 q 672 1185 654 1163 q 689 1240 689 1208 l 743 1240 q 712 1133 743 1172 q 626 1094 681 1094 q 569 1107 597 1094 q 508 1140 542 1119 q 460 1167 476 1160 q 426 1175 443 1175 q 378 1153 396 1175 q 361 1099 361 1131 l 307 1099 z "},"Ṍ":{"ha":1051,"x_min":89,"x_max":963,"o":"m 525 -11 q 293 49 392 -11 q 142 223 194 110 q 89 489 89 336 q 142 756 89 643 q 292 930 194 869 q 525 990 390 990 q 758 930 660 990 q 910 757 857 869 q 963 490 963 644 q 910 223 963 336 q 758 49 857 110 q 525 -11 660 -11 m 525 65 q 782 176 690 65 q 874 490 874 288 q 783 803 874 693 q 525 914 692 914 q 269 803 360 914 q 178 490 178 692 q 269 177 178 289 q 525 65 360 65 m 307 1099 q 338 1205 307 1165 q 424 1244 369 1244 q 480 1232 453 1244 q 542 1197 507 1219 q 590 1170 574 1178 q 624 1163 607 1163 q 672 1185 654 1163 q 689 1240 689 1208 l 743 1240 q 712 1133 743 1172 q 626 1094 681 1094 q 569 1107 597 1094 q 508 1140 542 1119 q 460 1167 476 1160 q 426 1175 443 1175 q 378 1153 396 1175 q 361 1099 361 1131 l 307 1099 m 557 1285 l 493 1285 l 632 1493 l 735 1493 l 557 1285 z "},"Ṏ":{"ha":1051,"x_min":89,"x_max":963,"o":"m 525 -11 q 293 49 392 -11 q 142 223 194 110 q 89 489 89 336 q 142 756 89 643 q 292 930 194 869 q 525 990 390 990 q 758 930 660 990 q 910 757 857 869 q 963 490 963 644 q 910 223 963 336 q 758 49 857 110 q 525 -11 660 -11 m 525 65 q 782 176 690 65 q 874 490 874 288 q 783 803 874 693 q 525 914 692 914 q 269 803 360 914 q 178 490 178 692 q 269 177 178 289 q 525 65 360 65 m 307 1099 q 338 1205 307 1165 q 424 1244 369 1244 q 480 1232 453 1244 q 542 1197 507 1219 q 590 1170 574 1178 q 624 1163 607 1163 q 672 1185 654 1163 q 689 1240 689 1208 l 743 1240 q 712 1133 743 1172 q 626 1094 681 1094 q 569 1107 597 1094 q 508 1140 542 1119 q 460 1167 476 1160 q 426 1175 443 1175 q 378 1153 396 1175 q 361 1099 361 1131 l 307 1099 m 358 1440 l 463 1440 l 463 1340 l 358 1340 l 358 1440 m 588 1440 l 692 1440 l 692 1340 l 588 1340 l 588 1440 z "},"Ȭ":{"ha":1051,"x_min":89,"x_max":963,"o":"m 525 -11 q 293 49 392 -11 q 142 223 194 110 q 89 489 89 336 q 142 756 89 643 q 292 930 194 869 q 525 990 390 990 q 758 930 660 990 q 910 757 857 869 q 963 490 963 644 q 910 223 963 336 q 758 49 857 110 q 525 -11 660 -11 m 525 65 q 782 176 690 65 q 874 490 874 288 q 783 803 874 693 q 525 914 692 914 q 269 803 360 914 q 178 490 178 692 q 269 177 178 289 q 525 65 360 65 m 307 1099 q 338 1205 307 1165 q 424 1244 369 1244 q 480 1232 453 1244 q 542 1197 507 1219 q 590 1170 574 1178 q 624 1163 607 1163 q 672 1185 654 1163 q 689 1240 689 1208 l 743 1240 q 712 1133 743 1172 q 626 1094 681 1094 q 569 1107 597 1094 q 508 1140 542 1119 q 460 1167 476 1160 q 426 1175 443 1175 q 378 1153 396 1175 q 361 1099 361 1131 l 307 1099 m 319 1354 l 319 1426 l 731 1426 l 731 1354 l 319 1354 z "},"Œ":{"ha":1453,"x_min":89,"x_max":1379,"o":"m 574 0 q 215 128 342 0 q 89 490 89 256 q 215 852 89 725 q 574 979 340 979 l 1379 979 l 1379 906 l 858 906 l 858 535 l 1351 535 l 1351 460 l 858 460 l 858 74 l 1379 74 l 1379 0 l 574 0 m 775 74 l 775 906 l 578 906 q 178 490 178 906 q 278 178 178 283 q 578 74 379 74 l 775 74 z "},"P":{"ha":886,"x_min":126,"x_max":818,"o":"m 126 979 l 497 979 q 734 906 650 979 q 818 697 818 832 q 733 487 818 561 q 497 413 649 413 l 213 413 l 213 0 l 126 0 l 126 979 m 492 486 q 732 697 732 486 q 492 906 732 906 l 213 906 l 213 486 l 492 486 z "},"Þ":{"ha":886,"x_min":126,"x_max":818,"o":"m 510 758 q 738 691 658 758 q 818 500 818 624 q 737 306 818 375 q 510 238 656 238 l 211 238 l 211 0 l 126 0 l 126 979 l 211 979 l 211 758 l 510 758 m 504 311 q 676 358 619 311 q 732 500 732 404 q 676 640 732 594 q 504 685 619 685 l 211 685 l 211 311 l 504 311 z "},"Q":{"ha":1051,"x_min":89,"x_max":963,"o":"m 678 13 q 731 -21 707 3 q 779 -86 754 -44 l 868 -231 l 799 -271 l 692 -96 q 525 -11 639 -11 q 294 49 393 -11 q 142 223 196 110 q 89 489 89 336 q 142 756 89 643 q 293 930 194 869 q 525 990 392 990 q 758 930 660 990 q 910 757 857 869 q 963 490 963 644 q 888 183 963 308 q 678 13 813 57 m 178 490 q 269 177 178 289 q 525 65 360 65 q 782 176 690 65 q 874 490 874 288 q 783 803 874 693 q 525 914 692 914 q 269 803 360 914 q 178 490 178 692 z "},"R":{"ha":947,"x_min":126,"x_max":876,"o":"m 876 0 l 782 0 l 617 314 q 539 401 583 378 q 417 425 494 425 l 213 425 l 213 0 l 126 0 l 126 979 l 518 979 q 756 909 672 979 q 839 704 839 839 q 773 522 839 590 q 585 438 707 453 q 649 399 621 426 q 701 328 678 372 l 876 0 m 513 499 q 754 706 754 499 q 694 856 754 807 q 513 906 635 906 l 211 906 l 211 499 l 513 499 z "},"Ŕ":{"ha":947,"x_min":126,"x_max":876,"o":"m 876 0 l 782 0 l 617 314 q 539 401 583 378 q 417 425 494 425 l 213 425 l 213 0 l 126 0 l 126 979 l 518 979 q 756 909 672 979 q 839 704 839 839 q 773 522 839 590 q 585 438 707 453 q 649 399 621 426 q 701 328 678 372 l 876 0 m 513 499 q 754 706 754 499 q 694 856 754 807 q 513 906 635 906 l 211 906 l 211 499 l 513 499 m 500 1063 l 436 1063 l 575 1271 l 678 1271 l 500 1063 z "},"Ř":{"ha":947,"x_min":126,"x_max":876,"o":"m 876 0 l 782 0 l 617 314 q 539 401 583 378 q 417 425 494 425 l 213 425 l 213 0 l 126 0 l 126 979 l 518 979 q 756 909 672 979 q 839 704 839 839 q 773 522 839 590 q 585 438 707 453 q 649 399 621 426 q 701 328 678 372 l 876 0 m 513 499 q 754 706 754 499 q 694 856 754 807 q 513 906 635 906 l 211 906 l 211 499 l 513 499 m 574 1271 l 660 1271 l 500 1063 l 436 1063 l 276 1271 l 363 1271 l 468 1121 l 574 1271 z "},"Ŗ":{"ha":947,"x_min":126,"x_max":876,"o":"m 876 0 l 782 0 l 617 314 q 539 401 583 378 q 417 425 494 425 l 213 425 l 213 0 l 126 0 l 126 979 l 518 979 q 756 909 672 979 q 839 704 839 839 q 773 522 839 590 q 585 438 707 453 q 649 399 621 426 q 701 328 678 372 l 876 0 m 513 499 q 754 706 754 499 q 694 856 754 807 q 513 906 635 906 l 211 906 l 211 499 l 513 499 m 526 -103 l 526 -181 q 511 -275 526 -233 q 460 -354 496 -317 l 415 -321 q 453 -264 443 -290 q 465 -204 464 -237 l 410 -204 l 410 -103 l 526 -103 z "},"Ȑ":{"ha":947,"x_min":126,"x_max":876,"o":"m 876 0 l 782 0 l 617 314 q 539 401 583 378 q 417 425 494 425 l 213 425 l 213 0 l 126 0 l 126 979 l 518 979 q 756 909 672 979 q 839 704 839 839 q 773 522 839 590 q 585 438 707 453 q 649 399 621 426 q 701 328 678 372 l 876 0 m 513 499 q 754 706 754 499 q 694 856 754 807 q 513 906 635 906 l 211 906 l 211 499 l 513 499 m 365 1063 l 229 1271 l 315 1271 l 414 1063 l 365 1063 m 522 1063 l 388 1271 l 474 1271 l 571 1063 l 522 1063 z "},"Ṛ":{"ha":947,"x_min":126,"x_max":876,"o":"m 876 0 l 782 0 l 617 314 q 539 401 583 378 q 417 425 494 425 l 213 425 l 213 0 l 126 0 l 126 979 l 518 979 q 756 909 672 979 q 839 704 839 839 q 773 522 839 590 q 585 438 707 453 q 649 399 621 426 q 701 328 678 372 l 876 0 m 513 499 q 754 706 754 499 q 694 856 754 807 q 513 906 635 906 l 211 906 l 211 499 l 513 499 m 414 -140 l 522 -140 l 522 -247 l 414 -247 l 414 -140 z "},"Ȓ":{"ha":947,"x_min":126,"x_max":876,"o":"m 876 0 l 782 0 l 617 314 q 539 401 583 378 q 417 425 494 425 l 213 425 l 213 0 l 126 0 l 126 979 l 518 979 q 756 909 672 979 q 839 704 839 839 q 773 522 839 590 q 585 438 707 453 q 649 399 621 426 q 701 328 678 372 l 876 0 m 513 499 q 754 706 754 499 q 694 856 754 807 q 513 906 635 906 l 211 906 l 211 499 l 513 499 m 468 1256 q 689 1108 629 1256 l 625 1082 q 555 1165 592 1142 q 468 1188 518 1188 q 381 1165 418 1188 q 311 1082 344 1142 l 247 1108 q 468 1256 308 1256 z "},"Ṟ":{"ha":947,"x_min":126,"x_max":876,"o":"m 876 0 l 782 0 l 617 314 q 539 401 583 378 q 417 425 494 425 l 213 425 l 213 0 l 126 0 l 126 979 l 518 979 q 756 909 672 979 q 839 704 839 839 q 773 522 839 590 q 585 438 707 453 q 649 399 621 426 q 701 328 678 372 l 876 0 m 513 499 q 754 706 754 499 q 694 856 754 807 q 513 906 635 906 l 211 906 l 211 499 l 513 499 m 263 -229 l 263 -158 l 674 -158 l 674 -229 l 263 -229 z "},"S":{"ha":843,"x_min":68,"x_max":778,"o":"m 431 -11 q 226 20 315 -11 q 68 117 138 51 l 104 185 q 252 92 178 119 q 431 65 326 65 q 623 116 554 65 q 692 258 692 167 q 658 347 692 313 q 574 399 625 381 q 436 438 522 418 q 252 489 322 463 q 133 569 182 515 q 85 713 85 622 q 128 858 85 796 q 249 956 171 921 q 433 990 328 990 q 619 958 533 990 q 767 863 704 925 l 731 794 q 590 885 661 857 q 433 914 519 914 q 240 861 310 914 q 171 714 171 808 q 231 592 171 632 q 408 525 292 553 l 444 517 q 622 465 557 489 q 733 392 688 442 q 778 260 778 343 q 735 118 778 179 q 613 23 692 57 q 431 -11 535 -11 z "},"Ś":{"ha":843,"x_min":68,"x_max":778,"o":"m 431 -11 q 226 20 315 -11 q 68 117 138 51 l 104 185 q 252 92 178 119 q 431 65 326 65 q 623 116 554 65 q 692 258 692 167 q 658 347 692 313 q 574 399 625 381 q 436 438 522 418 q 252 489 322 463 q 133 569 182 515 q 85 713 85 622 q 128 858 85 796 q 249 956 171 921 q 433 990 328 990 q 619 958 533 990 q 767 863 704 925 l 731 794 q 590 885 661 857 q 433 914 519 914 q 240 861 310 914 q 171 714 171 808 q 231 592 171 632 q 408 525 292 553 l 444 517 q 622 465 557 489 q 733 392 688 442 q 778 260 778 343 q 735 118 778 179 q 613 23 692 57 q 431 -11 535 -11 m 454 1063 l 390 1063 l 529 1271 l 632 1271 l 454 1063 z "},"Ṥ":{"ha":843,"x_min":68,"x_max":778,"o":"m 431 -11 q 226 20 315 -11 q 68 117 138 51 l 104 185 q 252 92 178 119 q 431 65 326 65 q 623 116 554 65 q 692 258 692 167 q 658 347 692 313 q 574 399 625 381 q 436 438 522 418 q 252 489 322 463 q 133 569 182 515 q 85 713 85 622 q 128 858 85 796 q 249 956 171 921 q 433 990 328 990 q 619 958 533 990 q 767 863 704 925 l 731 794 q 590 885 661 857 q 433 914 519 914 q 240 861 310 914 q 171 714 171 808 q 231 592 171 632 q 408 525 292 553 l 444 517 q 622 465 557 489 q 733 392 688 442 q 778 260 778 343 q 735 118 778 179 q 613 23 692 57 q 431 -11 535 -11 m 457 1063 l 393 1063 l 532 1271 l 635 1271 l 457 1063 m 214 1272 l 325 1272 l 325 1165 l 214 1165 l 214 1272 z "},"Š":{"ha":843,"x_min":68,"x_max":778,"o":"m 431 -11 q 226 20 315 -11 q 68 117 138 51 l 104 185 q 252 92 178 119 q 431 65 326 65 q 623 116 554 65 q 692 258 692 167 q 658 347 692 313 q 574 399 625 381 q 436 438 522 418 q 252 489 322 463 q 133 569 182 515 q 85 713 85 622 q 128 858 85 796 q 249 956 171 921 q 433 990 328 990 q 619 958 533 990 q 767 863 704 925 l 731 794 q 590 885 661 857 q 433 914 519 914 q 240 861 310 914 q 171 714 171 808 q 231 592 171 632 q 408 525 292 553 l 444 517 q 622 465 557 489 q 733 392 688 442 q 778 260 778 343 q 735 118 778 179 q 613 23 692 57 q 431 -11 535 -11 m 528 1271 l 614 1271 l 454 1063 l 390 1063 l 231 1271 l 317 1271 l 422 1121 l 528 1271 z "},"Ṧ":{"ha":843,"x_min":68,"x_max":778,"o":"m 431 -11 q 226 20 315 -11 q 68 117 138 51 l 104 185 q 252 92 178 119 q 431 65 326 65 q 623 116 554 65 q 692 258 692 167 q 658 347 692 313 q 574 399 625 381 q 436 438 522 418 q 252 489 322 463 q 133 569 182 515 q 85 713 85 622 q 128 858 85 796 q 249 956 171 921 q 433 990 328 990 q 619 958 533 990 q 767 863 704 925 l 731 794 q 590 885 661 857 q 433 914 519 914 q 240 861 310 914 q 171 714 171 808 q 231 592 171 632 q 408 525 292 553 l 444 517 q 622 465 557 489 q 733 392 688 442 q 778 260 778 343 q 735 118 778 179 q 613 23 692 57 q 431 -11 535 -11 m 528 1271 l 614 1271 l 454 1063 l 390 1063 l 231 1271 l 317 1271 l 422 1121 l 528 1271 m 367 1444 l 478 1444 l 478 1338 l 367 1338 l 367 1444 z "},"Ş":{"ha":843,"x_min":68,"x_max":778,"o":"m 778 260 q 738 121 778 181 q 623 26 697 61 q 449 -11 549 -8 l 443 -61 q 481 -57 463 -57 q 553 -81 522 -57 q 583 -153 583 -106 q 542 -234 583 -203 q 429 -265 501 -265 q 367 -259 400 -265 q 310 -239 333 -253 l 329 -186 q 432 -206 375 -206 q 492 -192 472 -206 q 513 -153 513 -178 q 500 -123 513 -133 q 463 -112 488 -112 q 396 -126 438 -112 l 369 -106 l 379 -10 q 68 117 188 3 l 104 185 q 252 92 178 119 q 431 65 326 65 q 623 116 554 65 q 692 258 692 167 q 658 347 692 313 q 574 399 625 381 q 436 438 522 418 q 252 489 322 463 q 133 569 182 515 q 85 713 85 622 q 128 858 85 796 q 249 956 171 921 q 433 990 328 990 q 619 958 533 990 q 767 863 704 925 l 731 794 q 590 885 661 857 q 433 914 519 914 q 240 861 310 914 q 171 714 171 808 q 231 592 171 632 q 408 525 292 553 l 444 517 q 622 465 557 489 q 733 392 688 442 q 778 260 778 343 z "},"Ŝ":{"ha":843,"x_min":68,"x_max":778,"o":"m 431 -11 q 226 20 315 -11 q 68 117 138 51 l 104 185 q 252 92 178 119 q 431 65 326 65 q 623 116 554 65 q 692 258 692 167 q 658 347 692 313 q 574 399 625 381 q 436 438 522 418 q 252 489 322 463 q 133 569 182 515 q 85 713 85 622 q 128 858 85 796 q 249 956 171 921 q 433 990 328 990 q 619 958 533 990 q 767 863 704 925 l 731 794 q 590 885 661 857 q 433 914 519 914 q 240 861 310 914 q 171 714 171 808 q 231 592 171 632 q 408 525 292 553 l 444 517 q 622 465 557 489 q 733 392 688 442 q 778 260 778 343 q 735 118 778 179 q 613 23 692 57 q 431 -11 535 -11 m 317 1063 l 231 1063 l 390 1271 l 454 1271 l 614 1063 l 528 1063 l 422 1213 l 317 1063 z "},"Ș":{"ha":843,"x_min":68,"x_max":778,"o":"m 431 -11 q 226 20 315 -11 q 68 117 138 51 l 104 185 q 252 92 178 119 q 431 65 326 65 q 623 116 554 65 q 692 258 692 167 q 658 347 692 313 q 574 399 625 381 q 436 438 522 418 q 252 489 322 463 q 133 569 182 515 q 85 713 85 622 q 128 858 85 796 q 249 956 171 921 q 433 990 328 990 q 619 958 533 990 q 767 863 704 925 l 731 794 q 590 885 661 857 q 433 914 519 914 q 240 861 310 914 q 171 714 171 808 q 231 592 171 632 q 408 525 292 553 l 444 517 q 622 465 557 489 q 733 392 688 442 q 778 260 778 343 q 735 118 778 179 q 613 23 692 57 q 431 -11 535 -11 m 486 -103 l 486 -181 q 471 -275 486 -233 q 419 -354 456 -317 l 375 -321 q 413 -264 403 -290 q 425 -204 424 -237 l 369 -204 l 369 -103 l 486 -103 z "},"Ṡ":{"ha":843,"x_min":68,"x_max":778,"o":"m 431 -11 q 226 20 315 -11 q 68 117 138 51 l 104 185 q 252 92 178 119 q 431 65 326 65 q 623 116 554 65 q 692 258 692 167 q 658 347 692 313 q 574 399 625 381 q 436 438 522 418 q 252 489 322 463 q 133 569 182 515 q 85 713 85 622 q 128 858 85 796 q 249 956 171 921 q 433 990 328 990 q 619 958 533 990 q 767 863 704 925 l 731 794 q 590 885 661 857 q 433 914 519 914 q 240 861 310 914 q 171 714 171 808 q 231 592 171 632 q 408 525 292 553 l 444 517 q 622 465 557 489 q 733 392 688 442 q 778 260 778 343 q 735 118 778 179 q 613 23 692 57 q 431 -11 535 -11 m 367 1222 l 478 1222 l 478 1115 l 367 1115 l 367 1222 z "},"Ṣ":{"ha":843,"x_min":68,"x_max":778,"o":"m 431 -11 q 226 20 315 -11 q 68 117 138 51 l 104 185 q 252 92 178 119 q 431 65 326 65 q 623 116 554 65 q 692 258 692 167 q 658 347 692 313 q 574 399 625 381 q 436 438 522 418 q 252 489 322 463 q 133 569 182 515 q 85 713 85 622 q 128 858 85 796 q 249 956 171 921 q 433 990 328 990 q 619 958 533 990 q 767 863 704 925 l 731 794 q 590 885 661 857 q 433 914 519 914 q 240 861 310 914 q 171 714 171 808 q 231 592 171 632 q 408 525 292 553 l 444 517 q 622 465 557 489 q 733 392 688 442 q 778 260 778 343 q 735 118 778 179 q 613 23 692 57 q 431 -11 535 -11 m 374 -140 l 482 -140 l 482 -247 l 374 -247 l 374 -140 z "},"Ṩ":{"ha":843,"x_min":68,"x_max":778,"o":"m 431 -11 q 226 20 315 -11 q 68 117 138 51 l 104 185 q 252 92 178 119 q 431 65 326 65 q 623 116 554 65 q 692 258 692 167 q 658 347 692 313 q 574 399 625 381 q 436 438 522 418 q 252 489 322 463 q 133 569 182 515 q 85 713 85 622 q 128 858 85 796 q 249 956 171 921 q 433 990 328 990 q 619 958 533 990 q 767 863 704 925 l 731 794 q 590 885 661 857 q 433 914 519 914 q 240 861 310 914 q 171 714 171 808 q 231 592 171 632 q 408 525 292 553 l 444 517 q 622 465 557 489 q 733 392 688 442 q 778 260 778 343 q 735 118 778 179 q 613 23 692 57 q 431 -11 535 -11 m 374 -140 l 482 -140 l 482 -247 l 374 -247 l 374 -140 m 367 1222 l 478 1222 l 478 1115 l 367 1115 l 367 1222 z "},"ẞ":{"ha":947,"x_min":126,"x_max":857,"o":"m 651 510 q 803 426 750 489 q 857 267 857 363 q 819 122 857 185 q 715 25 782 60 q 558 -10 647 -10 q 422 14 488 -10 q 306 81 357 38 l 340 151 q 444 87 394 107 q 547 67 494 67 q 713 121 653 67 q 772 269 772 175 q 710 412 772 364 q 526 460 647 460 l 340 460 l 340 535 l 479 535 q 647 585 588 535 q 707 728 707 635 q 647 863 707 814 q 482 913 588 913 q 278 844 344 913 q 211 631 211 775 l 211 0 l 126 0 l 126 640 q 483 989 126 989 q 710 919 626 989 q 793 731 793 850 q 756 594 793 651 q 651 510 719 536 z "},"Ə":{"ha":1021,"x_min":89,"x_max":932,"o":"m 479 990 q 720 930 618 990 q 877 757 822 869 q 932 490 932 644 q 881 224 932 338 q 734 50 829 111 q 511 -11 639 -11 q 287 49 382 -11 q 140 222 192 110 q 89 485 89 333 l 89 535 l 843 535 q 738 816 832 717 q 481 915 644 915 q 167 794 300 915 l 131 863 q 285 956 193 922 q 479 990 376 990 m 511 65 q 750 168 663 65 q 844 458 838 271 l 176 458 q 272 169 183 272 q 511 65 360 65 z "},"T":{"ha":819,"x_min":17,"x_max":803,"o":"m 368 0 l 368 904 l 17 904 l 17 979 l 803 979 l 803 904 l 453 904 l 453 0 l 368 0 z "},"Ŧ":{"ha":819,"x_min":17,"x_max":803,"o":"m 803 904 l 453 904 l 453 532 l 653 532 l 653 461 l 453 461 l 453 0 l 368 0 l 368 461 l 167 461 l 167 532 l 368 532 l 368 904 l 17 904 l 17 979 l 803 979 l 803 904 z "},"Ť":{"ha":819,"x_min":17,"x_max":803,"o":"m 368 0 l 368 904 l 17 904 l 17 979 l 803 979 l 803 904 l 453 904 l 453 0 l 368 0 m 515 1271 l 601 1271 l 442 1063 l 378 1063 l 218 1271 l 304 1271 l 410 1121 l 515 1271 z "},"Ţ":{"ha":819,"x_min":17,"x_max":803,"o":"m 432 0 l 425 -61 q 463 -57 444 -57 q 535 -81 504 -57 q 565 -153 565 -106 q 524 -234 565 -203 q 411 -265 483 -265 q 349 -259 382 -265 q 292 -239 315 -253 l 311 -186 q 414 -206 357 -206 q 474 -192 454 -206 q 494 -153 494 -178 q 482 -123 494 -133 q 444 -112 469 -112 q 378 -126 419 -112 l 351 -106 l 365 28 l 368 28 l 368 904 l 17 904 l 17 979 l 803 979 l 803 904 l 453 904 l 453 0 l 432 0 z "},"Ț":{"ha":819,"x_min":17,"x_max":803,"o":"m 368 0 l 368 904 l 17 904 l 17 979 l 803 979 l 803 904 l 453 904 l 453 0 l 368 0 m 468 -103 l 468 -181 q 453 -275 468 -233 q 401 -354 438 -317 l 357 -321 q 395 -264 385 -290 q 407 -204 406 -237 l 351 -204 l 351 -103 l 468 -103 z "},"Ṭ":{"ha":819,"x_min":17,"x_max":803,"o":"m 368 0 l 368 904 l 17 904 l 17 979 l 803 979 l 803 904 l 453 904 l 453 0 l 368 0 m 356 -140 l 464 -140 l 464 -247 l 356 -247 l 356 -140 z "},"Ṯ":{"ha":819,"x_min":17,"x_max":803,"o":"m 368 0 l 368 904 l 17 904 l 17 979 l 803 979 l 803 904 l 453 904 l 453 0 l 368 0 m 204 -229 l 204 -158 l 615 -158 l 615 -229 l 204 -229 z "},"U":{"ha":1000,"x_min":119,"x_max":879,"o":"m 500 -11 q 216 88 313 -11 q 119 378 119 186 l 119 979 l 206 979 l 206 368 q 500 65 206 65 q 720 142 646 65 q 794 368 794 218 l 794 979 l 879 979 l 879 378 q 783 88 879 186 q 500 -11 686 -11 z "},"Ú":{"ha":1000,"x_min":119,"x_max":879,"o":"m 500 -11 q 216 88 313 -11 q 119 378 119 186 l 119 979 l 206 979 l 206 368 q 500 65 206 65 q 720 142 646 65 q 794 368 794 218 l 794 979 l 879 979 l 879 378 q 783 88 879 186 q 500 -11 686 -11 m 532 1063 l 468 1063 l 607 1271 l 710 1271 l 532 1063 z "},"Ŭ":{"ha":1000,"x_min":119,"x_max":879,"o":"m 500 -11 q 216 88 313 -11 q 119 378 119 186 l 119 979 l 206 979 l 206 368 q 500 65 206 65 q 720 142 646 65 q 794 368 794 218 l 794 979 l 879 979 l 879 378 q 783 88 879 186 q 500 -11 686 -11 m 500 1081 q 279 1226 339 1081 l 343 1254 q 413 1172 376 1194 q 500 1149 450 1149 q 587 1172 550 1149 q 657 1254 624 1194 l 721 1226 q 500 1081 660 1081 z "},"Û":{"ha":1000,"x_min":119,"x_max":879,"o":"m 500 -11 q 216 88 313 -11 q 119 378 119 186 l 119 979 l 206 979 l 206 368 q 500 65 206 65 q 720 142 646 65 q 794 368 794 218 l 794 979 l 879 979 l 879 378 q 783 88 879 186 q 500 -11 686 -11 m 394 1063 l 308 1063 l 468 1271 l 532 1271 l 692 1063 l 606 1063 l 500 1213 l 394 1063 z "},"Ȕ":{"ha":1000,"x_min":119,"x_max":879,"o":"m 500 -11 q 216 88 313 -11 q 119 378 119 186 l 119 979 l 206 979 l 206 368 q 500 65 206 65 q 720 142 646 65 q 794 368 794 218 l 794 979 l 879 979 l 879 378 q 783 88 879 186 q 500 -11 686 -11 m 397 1063 l 261 1271 l 347 1271 l 446 1063 l 397 1063 m 554 1063 l 419 1271 l 506 1271 l 603 1063 l 554 1063 z "},"Ü":{"ha":1000,"x_min":119,"x_max":879,"o":"m 500 -11 q 216 88 313 -11 q 119 378 119 186 l 119 979 l 206 979 l 206 368 q 500 65 206 65 q 720 142 646 65 q 794 368 794 218 l 794 979 l 879 979 l 879 378 q 783 88 879 186 q 500 -11 686 -11 m 333 1218 l 438 1218 l 438 1118 l 333 1118 l 333 1218 m 563 1218 l 667 1218 l 667 1118 l 563 1118 l 563 1218 z "},"Ụ":{"ha":1000,"x_min":119,"x_max":879,"o":"m 500 -11 q 216 88 313 -11 q 119 378 119 186 l 119 979 l 206 979 l 206 368 q 500 65 206 65 q 720 142 646 65 q 794 368 794 218 l 794 979 l 879 979 l 879 378 q 783 88 879 186 q 500 -11 686 -11 m 446 -140 l 554 -140 l 554 -247 l 446 -247 l 446 -140 z "},"Ù":{"ha":1000,"x_min":119,"x_max":879,"o":"m 500 -11 q 216 88 313 -11 q 119 378 119 186 l 119 979 l 206 979 l 206 368 q 500 65 206 65 q 720 142 646 65 q 794 368 794 218 l 794 979 l 879 979 l 879 378 q 783 88 879 186 q 500 -11 686 -11 m 468 1063 l 290 1271 l 393 1271 l 532 1063 l 468 1063 z "},"Ủ":{"ha":1000,"x_min":119,"x_max":879,"o":"m 500 -11 q 216 88 313 -11 q 119 378 119 186 l 119 979 l 206 979 l 206 368 q 500 65 206 65 q 720 142 646 65 q 794 368 794 218 l 794 979 l 879 979 l 879 378 q 783 88 879 186 q 500 -11 686 -11 m 533 1063 l 468 1063 l 468 1085 q 483 1124 468 1108 q 525 1153 499 1139 q 553 1172 544 1164 q 563 1189 563 1179 q 547 1208 563 1201 q 503 1215 531 1215 q 417 1199 461 1215 l 397 1254 q 506 1278 451 1278 q 604 1253 568 1278 q 640 1189 640 1229 q 624 1148 640 1163 q 578 1117 608 1133 q 544 1097 556 1107 q 533 1075 533 1088 l 533 1063 z "},"Ư":{"ha":1000,"x_min":119,"x_max":1044,"o":"m 1044 1154 l 1044 1121 q 1001 986 1044 1038 q 879 922 958 935 l 879 378 q 783 88 879 186 q 500 -11 686 -11 q 216 88 313 -11 q 119 378 119 186 l 119 979 l 206 979 l 206 368 q 500 65 206 65 q 720 142 646 65 q 794 368 794 218 l 794 979 l 819 979 q 932 1017 897 981 q 967 1135 967 1053 l 967 1154 l 1044 1154 z "},"Ứ":{"ha":1000,"x_min":119,"x_max":1044,"o":"m 1044 1154 l 1044 1121 q 1001 986 1044 1038 q 879 922 958 935 l 879 378 q 783 88 879 186 q 500 -11 686 -11 q 216 88 313 -11 q 119 378 119 186 l 119 979 l 206 979 l 206 368 q 500 65 206 65 q 720 142 646 65 q 794 368 794 218 l 794 979 l 819 979 q 932 1017 897 981 q 967 1135 967 1053 l 967 1154 l 1044 1154 m 532 1063 l 468 1063 l 607 1271 l 710 1271 l 532 1063 z "},"Ự":{"ha":1000,"x_min":119,"x_max":1044,"o":"m 1044 1154 l 1044 1121 q 1001 986 1044 1038 q 879 922 958 935 l 879 378 q 783 88 879 186 q 500 -11 686 -11 q 216 88 313 -11 q 119 378 119 186 l 119 979 l 206 979 l 206 368 q 500 65 206 65 q 720 142 646 65 q 794 368 794 218 l 794 979 l 819 979 q 932 1017 897 981 q 967 1135 967 1053 l 967 1154 l 1044 1154 m 446 -140 l 554 -140 l 554 -247 l 446 -247 l 446 -140 z "},"Ừ":{"ha":1000,"x_min":119,"x_max":1044,"o":"m 1044 1154 l 1044 1121 q 1001 986 1044 1038 q 879 922 958 935 l 879 378 q 783 88 879 186 q 500 -11 686 -11 q 216 88 313 -11 q 119 378 119 186 l 119 979 l 206 979 l 206 368 q 500 65 206 65 q 720 142 646 65 q 794 368 794 218 l 794 979 l 819 979 q 932 1017 897 981 q 967 1135 967 1053 l 967 1154 l 1044 1154 m 468 1063 l 290 1271 l 393 1271 l 532 1063 l 468 1063 z "},"Ử":{"ha":1000,"x_min":119,"x_max":1044,"o":"m 1044 1154 l 1044 1121 q 1001 986 1044 1038 q 879 922 958 935 l 879 378 q 783 88 879 186 q 500 -11 686 -11 q 216 88 313 -11 q 119 378 119 186 l 119 979 l 206 979 l 206 368 q 500 65 206 65 q 720 142 646 65 q 794 368 794 218 l 794 979 l 819 979 q 932 1017 897 981 q 967 1135 967 1053 l 967 1154 l 1044 1154 m 533 1063 l 468 1063 l 468 1085 q 483 1124 468 1108 q 525 1153 499 1139 q 553 1172 544 1164 q 563 1189 563 1179 q 547 1208 563 1201 q 503 1215 531 1215 q 417 1199 461 1215 l 397 1254 q 506 1278 451 1278 q 604 1253 568 1278 q 640 1189 640 1229 q 624 1148 640 1163 q 578 1117 608 1133 q 544 1097 556 1107 q 533 1075 533 1088 l 533 1063 z "},"Ữ":{"ha":1000,"x_min":119,"x_max":1044,"o":"m 1044 1154 l 1044 1121 q 1001 986 1044 1038 q 879 922 958 935 l 879 378 q 783 88 879 186 q 500 -11 686 -11 q 216 88 313 -11 q 119 378 119 186 l 119 979 l 206 979 l 206 368 q 500 65 206 65 q 720 142 646 65 q 794 368 794 218 l 794 979 l 819 979 q 932 1017 897 981 q 967 1135 967 1053 l 967 1154 l 1044 1154 m 282 1099 q 313 1205 282 1165 q 399 1244 344 1244 q 455 1232 428 1244 q 517 1197 482 1219 q 565 1170 549 1178 q 599 1163 582 1163 q 647 1185 629 1163 q 664 1240 664 1208 l 718 1240 q 687 1133 718 1172 q 601 1094 656 1094 q 544 1107 572 1094 q 483 1140 517 1119 q 435 1167 451 1160 q 401 1175 418 1175 q 353 1153 371 1175 q 336 1099 336 1131 l 282 1099 z "},"Ű":{"ha":1000,"x_min":119,"x_max":879,"o":"m 500 -11 q 216 88 313 -11 q 119 378 119 186 l 119 979 l 206 979 l 206 368 q 500 65 206 65 q 720 142 646 65 q 794 368 794 218 l 794 979 l 879 979 l 879 378 q 783 88 879 186 q 500 -11 686 -11 m 458 1063 l 410 1063 l 507 1271 l 593 1271 l 458 1063 m 590 1063 l 542 1063 l 639 1271 l 725 1271 l 590 1063 z "},"Ȗ":{"ha":1000,"x_min":119,"x_max":879,"o":"m 500 -11 q 216 88 313 -11 q 119 378 119 186 l 119 979 l 206 979 l 206 368 q 500 65 206 65 q 720 142 646 65 q 794 368 794 218 l 794 979 l 879 979 l 879 378 q 783 88 879 186 q 500 -11 686 -11 m 500 1256 q 721 1108 661 1256 l 657 1082 q 587 1165 624 1142 q 500 1188 550 1188 q 413 1165 450 1188 q 343 1082 376 1142 l 279 1108 q 500 1256 340 1256 z "},"Ū":{"ha":1000,"x_min":119,"x_max":879,"o":"m 500 -11 q 216 88 313 -11 q 119 378 119 186 l 119 979 l 206 979 l 206 368 q 500 65 206 65 q 720 142 646 65 q 794 368 794 218 l 794 979 l 879 979 l 879 378 q 783 88 879 186 q 500 -11 686 -11 m 294 1132 l 294 1204 l 706 1204 l 706 1132 l 294 1132 z "},"Ṻ":{"ha":1000,"x_min":119,"x_max":879,"o":"m 500 -11 q 216 88 313 -11 q 119 378 119 186 l 119 979 l 206 979 l 206 368 q 500 65 206 65 q 720 142 646 65 q 794 368 794 218 l 794 979 l 879 979 l 879 378 q 783 88 879 186 q 500 -11 686 -11 m 294 1132 l 294 1204 l 706 1204 l 706 1132 l 294 1132 m 333 1440 l 438 1440 l 438 1340 l 333 1340 l 333 1440 m 563 1440 l 667 1440 l 667 1340 l 563 1340 l 563 1440 z "},"Ų":{"ha":1000,"x_min":119,"x_max":879,"o":"m 879 979 l 879 378 q 821 137 879 229 q 649 8 763 44 q 559 -40 588 -11 q 531 -112 531 -69 q 556 -178 531 -154 q 624 -203 581 -203 q 706 -178 658 -203 l 728 -235 q 615 -265 682 -265 q 501 -226 544 -265 q 457 -122 457 -186 q 508 -11 457 -53 l 500 -11 q 216 88 313 -11 q 119 378 119 186 l 119 979 l 206 979 l 206 368 q 500 65 206 65 q 720 142 646 65 q 794 368 794 218 l 794 979 l 879 979 z "},"Ů":{"ha":1000,"x_min":119,"x_max":879,"o":"m 500 -11 q 216 88 313 -11 q 119 378 119 186 l 119 979 l 206 979 l 206 368 q 500 65 206 65 q 720 142 646 65 q 794 368 794 218 l 794 979 l 879 979 l 879 378 q 783 88 879 186 q 500 -11 686 -11 m 500 1056 q 403 1094 443 1056 q 363 1190 363 1133 q 403 1285 363 1246 q 500 1325 443 1325 q 597 1285 557 1325 q 638 1190 638 1246 q 597 1094 638 1133 q 500 1056 557 1056 m 500 1118 q 550 1139 531 1118 q 569 1190 569 1160 q 550 1241 569 1221 q 500 1261 531 1261 q 450 1241 469 1261 q 431 1190 431 1221 q 450 1139 431 1160 q 500 1118 469 1118 z "},"Ũ":{"ha":1000,"x_min":119,"x_max":879,"o":"m 500 -11 q 216 88 313 -11 q 119 378 119 186 l 119 979 l 206 979 l 206 368 q 500 65 206 65 q 720 142 646 65 q 794 368 794 218 l 794 979 l 879 979 l 879 378 q 783 88 879 186 q 500 -11 686 -11 m 282 1099 q 313 1205 282 1165 q 399 1244 344 1244 q 455 1232 428 1244 q 517 1197 482 1219 q 565 1170 549 1178 q 599 1163 582 1163 q 647 1185 629 1163 q 664 1240 664 1208 l 718 1240 q 687 1133 718 1172 q 601 1094 656 1094 q 544 1107 572 1094 q 483 1140 517 1119 q 435 1167 451 1160 q 401 1175 418 1175 q 353 1153 371 1175 q 336 1099 336 1131 l 282 1099 z "},"Ṹ":{"ha":1000,"x_min":119,"x_max":879,"o":"m 500 -11 q 216 88 313 -11 q 119 378 119 186 l 119 979 l 206 979 l 206 368 q 500 65 206 65 q 720 142 646 65 q 794 368 794 218 l 794 979 l 879 979 l 879 378 q 783 88 879 186 q 500 -11 686 -11 m 282 1099 q 313 1205 282 1165 q 399 1244 344 1244 q 455 1232 428 1244 q 517 1197 482 1219 q 565 1170 549 1178 q 599 1163 582 1163 q 647 1185 629 1163 q 664 1240 664 1208 l 718 1240 q 687 1133 718 1172 q 601 1094 656 1094 q 544 1107 572 1094 q 483 1140 517 1119 q 435 1167 451 1160 q 401 1175 418 1175 q 353 1153 371 1175 q 336 1099 336 1131 l 282 1099 m 532 1285 l 468 1285 l 607 1493 l 710 1493 l 532 1285 z "},"V":{"ha":944,"x_min":10,"x_max":935,"o":"m 847 979 l 935 979 l 511 0 l 433 0 l 10 979 l 99 979 l 474 110 l 847 979 z "},"W":{"ha":1522,"x_min":51,"x_max":1471,"o":"m 1386 979 l 1471 979 l 1131 0 l 1056 0 l 761 844 l 467 0 l 393 0 l 51 979 l 138 979 l 432 119 l 729 979 l 796 978 l 1092 122 l 1386 979 z "},"Ẃ":{"ha":1522,"x_min":51,"x_max":1471,"o":"m 1386 979 l 1471 979 l 1131 0 l 1056 0 l 761 844 l 467 0 l 393 0 l 51 979 l 138 979 l 432 119 l 729 979 l 796 978 l 1092 122 l 1386 979 m 793 1063 l 729 1063 l 868 1271 l 971 1271 l 793 1063 z "},"Ŵ":{"ha":1522,"x_min":51,"x_max":1471,"o":"m 1386 979 l 1471 979 l 1131 0 l 1056 0 l 761 844 l 467 0 l 393 0 l 51 979 l 138 979 l 432 119 l 729 979 l 796 978 l 1092 122 l 1386 979 m 656 1063 l 569 1063 l 729 1271 l 793 1271 l 953 1063 l 867 1063 l 761 1213 l 656 1063 z "},"Ẅ":{"ha":1522,"x_min":51,"x_max":1471,"o":"m 1386 979 l 1471 979 l 1131 0 l 1056 0 l 761 844 l 467 0 l 393 0 l 51 979 l 138 979 l 432 119 l 729 979 l 796 978 l 1092 122 l 1386 979 m 594 1218 l 699 1218 l 699 1118 l 594 1118 l 594 1218 m 824 1218 l 928 1218 l 928 1118 l 824 1118 l 824 1218 z "},"Ẁ":{"ha":1522,"x_min":51,"x_max":1471,"o":"m 1386 979 l 1471 979 l 1131 0 l 1056 0 l 761 844 l 467 0 l 393 0 l 51 979 l 138 979 l 432 119 l 729 979 l 796 978 l 1092 122 l 1386 979 m 729 1063 l 551 1271 l 654 1271 l 793 1063 l 729 1063 z "},"X":{"ha":886,"x_min":22,"x_max":864,"o":"m 492 501 l 864 0 l 763 0 l 443 436 l 125 0 l 22 0 l 394 503 l 43 979 l 143 979 l 444 567 l 746 979 l 844 979 l 492 501 z "},"Y":{"ha":821,"x_min":-11,"x_max":831,"o":"m 831 979 l 451 468 l 451 0 l 367 0 l 367 471 l -11 979 l 88 979 l 411 540 l 735 979 l 831 979 z "},"Ý":{"ha":821,"x_min":-11,"x_max":831,"o":"m 831 979 l 451 468 l 451 0 l 367 0 l 367 471 l -11 979 l 88 979 l 411 540 l 735 979 l 831 979 m 442 1063 l 378 1063 l 517 1271 l 619 1271 l 442 1063 z "},"Ŷ":{"ha":821,"x_min":-11,"x_max":831,"o":"m 831 979 l 451 468 l 451 0 l 367 0 l 367 471 l -11 979 l 88 979 l 411 540 l 735 979 l 831 979 m 304 1063 l 218 1063 l 378 1271 l 442 1271 l 601 1063 l 515 1063 l 410 1213 l 304 1063 z "},"Ÿ":{"ha":821,"x_min":-11,"x_max":831,"o":"m 831 979 l 451 468 l 451 0 l 367 0 l 367 471 l -11 979 l 88 979 l 411 540 l 735 979 l 831 979 m 243 1218 l 347 1218 l 347 1118 l 243 1118 l 243 1218 m 472 1218 l 576 1218 l 576 1118 l 472 1118 l 472 1218 z "},"Ẏ":{"ha":821,"x_min":-11,"x_max":831,"o":"m 831 979 l 451 468 l 451 0 l 367 0 l 367 471 l -11 979 l 88 979 l 411 540 l 735 979 l 831 979 m 354 1222 l 465 1222 l 465 1115 l 354 1115 l 354 1222 z "},"Ỵ":{"ha":821,"x_min":-11,"x_max":831,"o":"m 831 979 l 451 468 l 451 0 l 367 0 l 367 471 l -11 979 l 88 979 l 411 540 l 735 979 l 831 979 m 356 -140 l 464 -140 l 464 -247 l 356 -247 l 356 -140 z "},"Ỳ":{"ha":821,"x_min":-11,"x_max":831,"o":"m 831 979 l 451 468 l 451 0 l 367 0 l 367 471 l -11 979 l 88 979 l 411 540 l 735 979 l 831 979 m 378 1063 l 200 1271 l 303 1271 l 442 1063 l 378 1063 z "},"Ỷ":{"ha":821,"x_min":-11,"x_max":831,"o":"m 831 979 l 451 468 l 451 0 l 367 0 l 367 471 l -11 979 l 88 979 l 411 540 l 735 979 l 831 979 m 443 1063 l 378 1063 l 378 1085 q 393 1124 378 1108 q 435 1153 408 1139 q 463 1172 454 1164 q 472 1189 472 1179 q 456 1208 472 1201 q 413 1215 440 1215 q 326 1199 371 1215 l 307 1254 q 415 1278 361 1278 q 514 1253 478 1278 q 550 1189 550 1229 q 534 1148 550 1163 q 488 1117 518 1133 q 454 1097 465 1107 q 443 1075 443 1088 l 443 1063 z "},"Ȳ":{"ha":821,"x_min":-11,"x_max":831,"o":"m 831 979 l 451 468 l 451 0 l 367 0 l 367 471 l -11 979 l 88 979 l 411 540 l 735 979 l 831 979 m 204 1132 l 204 1204 l 615 1204 l 615 1132 l 204 1132 z "},"Ỹ":{"ha":821,"x_min":-11,"x_max":831,"o":"m 831 979 l 451 468 l 451 0 l 367 0 l 367 471 l -11 979 l 88 979 l 411 540 l 735 979 l 831 979 m 192 1099 q 223 1205 192 1165 q 308 1244 254 1244 q 365 1232 338 1244 q 426 1197 392 1219 q 475 1170 458 1178 q 508 1163 492 1163 q 556 1185 539 1163 q 574 1240 574 1208 l 628 1240 q 597 1133 628 1172 q 511 1094 565 1094 q 454 1107 482 1094 q 393 1140 426 1119 q 344 1167 361 1160 q 311 1175 328 1175 q 263 1153 281 1175 q 246 1099 246 1131 l 192 1099 z "},"Z":{"ha":811,"x_min":60,"x_max":760,"o":"m 160 74 l 760 74 l 760 0 l 60 0 l 60 63 l 646 906 l 60 906 l 60 979 l 746 979 l 746 917 l 160 74 z "},"Ź":{"ha":811,"x_min":60,"x_max":760,"o":"m 160 74 l 760 74 l 760 0 l 60 0 l 60 63 l 646 906 l 60 906 l 60 979 l 746 979 l 746 917 l 160 74 m 436 1063 l 372 1063 l 511 1271 l 614 1271 l 436 1063 z "},"Ž":{"ha":811,"x_min":60,"x_max":760,"o":"m 160 74 l 760 74 l 760 0 l 60 0 l 60 63 l 646 906 l 60 906 l 60 979 l 746 979 l 746 917 l 160 74 m 510 1271 l 596 1271 l 436 1063 l 372 1063 l 213 1271 l 299 1271 l 404 1121 l 510 1271 z "},"Ż":{"ha":811,"x_min":60,"x_max":760,"o":"m 160 74 l 760 74 l 760 0 l 60 0 l 60 63 l 646 906 l 60 906 l 60 979 l 746 979 l 746 917 l 160 74 m 349 1222 l 460 1222 l 460 1115 l 349 1115 l 349 1222 z "},"Ẓ":{"ha":811,"x_min":60,"x_max":760,"o":"m 160 74 l 760 74 l 760 0 l 60 0 l 60 63 l 646 906 l 60 906 l 60 979 l 746 979 l 746 917 l 160 74 m 360 -140 l 468 -140 l 468 -247 l 360 -247 l 360 -140 z "},"a":{"ha":731,"x_min":89,"x_max":621,"o":"m 378 690 q 560 626 500 690 q 621 433 621 563 l 621 0 l 538 0 l 538 121 q 453 24 508 58 q 325 -10 397 -10 q 206 17 260 -10 q 120 90 151 43 q 89 194 89 138 q 128 311 89 269 q 257 371 167 353 q 508 389 347 389 l 538 389 l 538 440 q 500 574 538 532 q 382 617 463 617 q 265 599 321 617 q 149 543 208 582 l 117 608 q 239 668 168 646 q 378 690 310 690 m 332 64 q 480 125 422 64 q 538 281 538 186 l 538 326 l 511 326 q 307 315 378 326 q 207 277 236 304 q 178 199 178 250 q 222 102 178 140 q 332 64 267 64 z "},"á":{"ha":731,"x_min":89,"x_max":621,"o":"m 378 690 q 560 626 500 690 q 621 433 621 563 l 621 0 l 538 0 l 538 121 q 453 24 508 58 q 325 -10 397 -10 q 206 17 260 -10 q 120 90 151 43 q 89 194 89 138 q 128 311 89 269 q 257 371 167 353 q 508 389 347 389 l 538 389 l 538 440 q 500 574 538 532 q 382 617 463 617 q 265 599 321 617 q 149 543 208 582 l 117 608 q 239 668 168 646 q 378 690 310 690 m 332 64 q 480 125 422 64 q 538 281 538 186 l 538 326 l 511 326 q 307 315 378 326 q 207 277 236 304 q 178 199 178 250 q 222 102 178 140 q 332 64 267 64 m 410 764 l 346 764 l 485 1043 l 592 1043 l 410 764 z "},"ă":{"ha":731,"x_min":89,"x_max":621,"o":"m 378 690 q 560 626 500 690 q 621 433 621 563 l 621 0 l 538 0 l 538 121 q 453 24 508 58 q 325 -10 397 -10 q 206 17 260 -10 q 120 90 151 43 q 89 194 89 138 q 128 311 89 269 q 257 371 167 353 q 508 389 347 389 l 538 389 l 538 440 q 500 574 538 532 q 382 617 463 617 q 265 599 321 617 q 149 543 208 582 l 117 608 q 239 668 168 646 q 378 690 310 690 m 332 64 q 480 125 422 64 q 538 281 538 186 l 538 326 l 511 326 q 307 315 378 326 q 207 277 236 304 q 178 199 178 250 q 222 102 178 140 q 332 64 267 64 m 378 810 q 246 850 304 810 q 157 976 188 890 l 221 1004 q 290 907 251 936 q 378 878 328 878 q 466 907 428 878 q 535 1004 504 936 l 599 978 q 510 851 569 892 q 378 810 451 810 z "},"ắ":{"ha":731,"x_min":89,"x_max":621,"o":"m 378 690 q 560 626 500 690 q 621 433 621 563 l 621 0 l 538 0 l 538 121 q 453 24 508 58 q 325 -10 397 -10 q 206 17 260 -10 q 120 90 151 43 q 89 194 89 138 q 128 311 89 269 q 257 371 167 353 q 508 389 347 389 l 538 389 l 538 440 q 500 574 538 532 q 382 617 463 617 q 265 599 321 617 q 149 543 208 582 l 117 608 q 239 668 168 646 q 378 690 310 690 m 332 64 q 480 125 422 64 q 538 281 538 186 l 538 326 l 511 326 q 307 315 378 326 q 207 277 236 304 q 178 199 178 250 q 222 102 178 140 q 332 64 267 64 m 408 906 l 347 906 l 485 1103 l 588 1103 l 408 906 m 378 757 q 157 904 217 757 l 219 931 q 289 848 251 871 q 378 825 326 825 q 467 848 429 825 q 536 931 504 871 l 599 904 q 378 757 538 757 z "},"ặ":{"ha":731,"x_min":89,"x_max":621,"o":"m 378 690 q 560 626 500 690 q 621 433 621 563 l 621 0 l 538 0 l 538 121 q 453 24 508 58 q 325 -10 397 -10 q 206 17 260 -10 q 120 90 151 43 q 89 194 89 138 q 128 311 89 269 q 257 371 167 353 q 508 389 347 389 l 538 389 l 538 440 q 500 574 538 532 q 382 617 463 617 q 265 599 321 617 q 149 543 208 582 l 117 608 q 239 668 168 646 q 378 690 310 690 m 332 64 q 480 125 422 64 q 538 281 538 186 l 538 326 l 511 326 q 307 315 378 326 q 207 277 236 304 q 178 199 178 250 q 222 102 178 140 q 332 64 267 64 m 319 -140 l 428 -140 l 428 -247 l 319 -247 l 319 -140 m 378 810 q 246 850 304 810 q 157 976 188 890 l 221 1004 q 290 907 251 936 q 378 878 328 878 q 466 907 428 878 q 535 1004 504 936 l 599 978 q 510 851 569 892 q 378 810 451 810 z "},"ằ":{"ha":731,"x_min":89,"x_max":621,"o":"m 378 690 q 560 626 500 690 q 621 433 621 563 l 621 0 l 538 0 l 538 121 q 453 24 508 58 q 325 -10 397 -10 q 206 17 260 -10 q 120 90 151 43 q 89 194 89 138 q 128 311 89 269 q 257 371 167 353 q 508 389 347 389 l 538 389 l 538 440 q 500 574 538 532 q 382 617 463 617 q 265 599 321 617 q 149 543 208 582 l 117 608 q 239 668 168 646 q 378 690 310 690 m 332 64 q 480 125 422 64 q 538 281 538 186 l 538 326 l 511 326 q 307 315 378 326 q 207 277 236 304 q 178 199 178 250 q 222 102 178 140 q 332 64 267 64 m 347 906 l 168 1103 l 271 1103 l 408 906 l 347 906 m 378 757 q 157 904 218 757 l 219 931 q 289 848 251 871 q 378 825 326 825 q 467 848 429 825 q 536 931 504 871 l 599 904 q 378 757 539 757 z "},"ẳ":{"ha":731,"x_min":89,"x_max":621,"o":"m 378 690 q 560 626 500 690 q 621 433 621 563 l 621 0 l 538 0 l 538 121 q 453 24 508 58 q 325 -10 397 -10 q 206 17 260 -10 q 120 90 151 43 q 89 194 89 138 q 128 311 89 269 q 257 371 167 353 q 508 389 347 389 l 538 389 l 538 440 q 500 574 538 532 q 382 617 463 617 q 265 599 321 617 q 149 543 208 582 l 117 608 q 239 668 168 646 q 378 690 310 690 m 332 64 q 480 125 422 64 q 538 281 538 186 l 538 326 l 511 326 q 307 315 378 326 q 207 277 236 304 q 178 199 178 250 q 222 102 178 140 q 332 64 267 64 m 411 906 l 346 906 l 346 928 q 361 965 346 951 q 404 989 376 978 q 432 1003 424 997 q 440 1019 440 1010 q 424 1040 440 1033 q 381 1047 408 1047 q 294 1031 339 1047 l 275 1086 q 383 1110 329 1110 q 482 1085 446 1110 q 518 1021 518 1061 q 503 985 518 997 q 457 957 488 972 q 423 939 435 947 q 411 918 411 931 l 411 906 m 378 757 q 157 904 218 757 l 219 931 q 289 848 251 871 q 378 825 326 825 q 467 848 429 825 q 536 931 504 871 l 599 904 q 378 757 539 757 z "},"ẵ":{"ha":731,"x_min":89,"x_max":621,"o":"m 378 690 q 560 626 500 690 q 621 433 621 563 l 621 0 l 538 0 l 538 121 q 453 24 508 58 q 325 -10 397 -10 q 206 17 260 -10 q 120 90 151 43 q 89 194 89 138 q 128 311 89 269 q 257 371 167 353 q 508 389 347 389 l 538 389 l 538 440 q 500 574 538 532 q 382 617 463 617 q 265 599 321 617 q 149 543 208 582 l 117 608 q 239 668 168 646 q 378 690 310 690 m 332 64 q 480 125 422 64 q 538 281 538 186 l 538 326 l 511 326 q 307 315 378 326 q 207 277 236 304 q 178 199 178 250 q 222 102 178 140 q 332 64 267 64 m 160 972 q 191 1076 160 1038 q 276 1114 222 1114 q 333 1101 306 1114 q 394 1068 361 1089 q 418 1055 400 1065 q 451 1040 436 1044 q 476 1035 465 1035 q 524 1057 507 1035 q 542 1110 542 1079 l 596 1110 q 565 1007 596 1046 q 479 968 533 968 q 422 981 450 968 q 361 1014 394 993 q 338 1027 356 1017 q 305 1042 319 1038 q 279 1047 290 1047 q 231 1025 249 1047 q 214 972 214 1003 l 160 972 m 378 757 q 157 904 218 757 l 219 931 q 289 848 251 871 q 378 825 326 825 q 467 848 429 825 q 536 931 504 871 l 599 904 q 378 757 539 757 z "},"ǎ":{"ha":731,"x_min":89,"x_max":621,"o":"m 378 690 q 560 626 500 690 q 621 433 621 563 l 621 0 l 538 0 l 538 121 q 453 24 508 58 q 325 -10 397 -10 q 206 17 260 -10 q 120 90 151 43 q 89 194 89 138 q 128 311 89 269 q 257 371 167 353 q 508 389 347 389 l 538 389 l 538 440 q 500 574 538 532 q 382 617 463 617 q 265 599 321 617 q 149 543 208 582 l 117 608 q 239 668 168 646 q 378 690 310 690 m 332 64 q 480 125 422 64 q 538 281 538 186 l 538 326 l 511 326 q 307 315 378 326 q 207 277 236 304 q 178 199 178 250 q 222 102 178 140 q 332 64 267 64 m 483 1043 l 569 1043 l 411 764 l 344 764 l 186 1043 l 272 1043 l 378 833 l 483 1043 z "},"â":{"ha":731,"x_min":89,"x_max":621,"o":"m 378 690 q 560 626 500 690 q 621 433 621 563 l 621 0 l 538 0 l 538 121 q 453 24 508 58 q 325 -10 397 -10 q 206 17 260 -10 q 120 90 151 43 q 89 194 89 138 q 128 311 89 269 q 257 371 167 353 q 508 389 347 389 l 538 389 l 538 440 q 500 574 538 532 q 382 617 463 617 q 265 599 321 617 q 149 543 208 582 l 117 608 q 239 668 168 646 q 378 690 310 690 m 332 64 q 480 125 422 64 q 538 281 538 186 l 538 326 l 511 326 q 307 315 378 326 q 207 277 236 304 q 178 199 178 250 q 222 102 178 140 q 332 64 267 64 m 272 764 l 186 764 l 344 1043 l 411 1043 l 569 764 l 483 764 l 378 974 l 272 764 z "},"ấ":{"ha":731,"x_min":89,"x_max":728,"o":"m 378 690 q 560 626 500 690 q 621 433 621 563 l 621 0 l 538 0 l 538 121 q 453 24 508 58 q 325 -10 397 -10 q 206 17 260 -10 q 120 90 151 43 q 89 194 89 138 q 128 311 89 269 q 257 371 167 353 q 508 389 347 389 l 538 389 l 538 440 q 500 574 538 532 q 382 617 463 617 q 265 599 321 617 q 149 543 208 582 l 117 608 q 239 668 168 646 q 378 690 310 690 m 332 64 q 480 125 422 64 q 538 281 538 186 l 538 326 l 511 326 q 307 315 378 326 q 207 277 236 304 q 178 199 178 250 q 222 102 178 140 q 332 64 267 64 m 550 906 l 492 906 l 626 1103 l 728 1103 l 550 906 m 272 764 l 186 764 l 346 972 l 410 972 l 569 764 l 483 764 l 378 914 l 272 764 z "},"ậ":{"ha":731,"x_min":89,"x_max":621,"o":"m 378 690 q 560 626 500 690 q 621 433 621 563 l 621 0 l 538 0 l 538 121 q 453 24 508 58 q 325 -10 397 -10 q 206 17 260 -10 q 120 90 151 43 q 89 194 89 138 q 128 311 89 269 q 257 371 167 353 q 508 389 347 389 l 538 389 l 538 440 q 500 574 538 532 q 382 617 463 617 q 265 599 321 617 q 149 543 208 582 l 117 608 q 239 668 168 646 q 378 690 310 690 m 332 64 q 480 125 422 64 q 538 281 538 186 l 538 326 l 511 326 q 307 315 378 326 q 207 277 236 304 q 178 199 178 250 q 222 102 178 140 q 332 64 267 64 m 319 -140 l 428 -140 l 428 -247 l 319 -247 l 319 -140 m 272 764 l 186 764 l 344 1043 l 411 1043 l 569 764 l 483 764 l 378 974 l 272 764 z "},"ầ":{"ha":731,"x_min":89,"x_max":621,"o":"m 378 690 q 560 626 500 690 q 621 433 621 563 l 621 0 l 538 0 l 538 121 q 453 24 508 58 q 325 -10 397 -10 q 206 17 260 -10 q 120 90 151 43 q 89 194 89 138 q 128 311 89 269 q 257 371 167 353 q 508 389 347 389 l 538 389 l 538 440 q 500 574 538 532 q 382 617 463 617 q 265 599 321 617 q 149 543 208 582 l 117 608 q 239 668 168 646 q 378 690 310 690 m 332 64 q 480 125 422 64 q 538 281 538 186 l 538 326 l 511 326 q 307 315 378 326 q 207 277 236 304 q 178 199 178 250 q 222 102 178 140 q 332 64 267 64 m 551 906 l 400 1103 l 501 1103 l 610 906 l 551 906 m 272 764 l 186 764 l 346 972 l 410 972 l 569 764 l 483 764 l 378 914 l 272 764 z "},"ẩ":{"ha":731,"x_min":89,"x_max":663,"o":"m 378 690 q 560 626 500 690 q 621 433 621 563 l 621 0 l 538 0 l 538 121 q 453 24 508 58 q 325 -10 397 -10 q 206 17 260 -10 q 120 90 151 43 q 89 194 89 138 q 128 311 89 269 q 257 371 167 353 q 508 389 347 389 l 538 389 l 538 440 q 500 574 538 532 q 382 617 463 617 q 265 599 321 617 q 149 543 208 582 l 117 608 q 239 668 168 646 q 378 690 310 690 m 332 64 q 480 125 422 64 q 538 281 538 186 l 538 326 l 511 326 q 307 315 378 326 q 207 277 236 304 q 178 199 178 250 q 222 102 178 140 q 332 64 267 64 m 556 906 l 490 906 l 490 928 q 506 965 490 951 q 549 989 521 978 q 576 1003 568 997 q 585 1019 585 1010 q 569 1040 585 1033 q 525 1047 553 1047 q 439 1031 483 1047 l 419 1086 q 528 1110 474 1110 q 626 1085 590 1110 q 663 1021 663 1061 q 647 985 663 997 q 601 957 632 972 q 567 939 579 947 q 556 918 556 931 l 556 906 m 272 764 l 186 764 l 346 972 l 410 972 l 569 764 l 483 764 l 378 914 l 272 764 z "},"ẫ":{"ha":731,"x_min":89,"x_max":621,"o":"m 378 690 q 560 626 500 690 q 621 433 621 563 l 621 0 l 538 0 l 538 121 q 453 24 508 58 q 325 -10 397 -10 q 206 17 260 -10 q 120 90 151 43 q 89 194 89 138 q 128 311 89 269 q 257 371 167 353 q 508 389 347 389 l 538 389 l 538 440 q 500 574 538 532 q 382 617 463 617 q 265 599 321 617 q 149 543 208 582 l 117 608 q 239 668 168 646 q 378 690 310 690 m 332 64 q 480 125 422 64 q 538 281 538 186 l 538 326 l 511 326 q 307 315 378 326 q 207 277 236 304 q 178 199 178 250 q 222 102 178 140 q 332 64 267 64 m 160 992 q 192 1088 160 1051 q 276 1125 224 1125 q 332 1116 306 1125 q 394 1089 358 1107 q 441 1068 422 1075 q 476 1061 460 1061 q 524 1083 507 1061 q 542 1129 542 1104 l 596 1129 q 564 1032 596 1069 q 479 994 532 994 q 424 1003 450 994 q 361 1031 397 1013 q 315 1051 333 1044 q 279 1058 296 1058 q 231 1038 249 1058 q 214 992 214 1017 l 160 992 m 272 764 l 186 764 l 346 972 l 410 972 l 569 764 l 483 764 l 378 914 l 272 764 z "},"ȁ":{"ha":731,"x_min":89,"x_max":621,"o":"m 378 690 q 560 626 500 690 q 621 433 621 563 l 621 0 l 538 0 l 538 121 q 453 24 508 58 q 325 -10 397 -10 q 206 17 260 -10 q 120 90 151 43 q 89 194 89 138 q 128 311 89 269 q 257 371 167 353 q 508 389 347 389 l 538 389 l 538 440 q 500 574 538 532 q 382 617 463 617 q 265 599 321 617 q 149 543 208 582 l 117 608 q 239 668 168 646 q 378 690 310 690 m 332 64 q 480 125 422 64 q 538 281 538 186 l 538 326 l 511 326 q 307 315 378 326 q 207 277 236 304 q 178 199 178 250 q 222 102 178 140 q 332 64 267 64 m 274 764 l 164 1043 l 253 1043 l 321 764 l 274 764 m 435 764 l 325 1043 l 414 1043 l 482 764 l 435 764 z "},"ä":{"ha":731,"x_min":89,"x_max":621,"o":"m 378 690 q 560 626 500 690 q 621 433 621 563 l 621 0 l 538 0 l 538 121 q 453 24 508 58 q 325 -10 397 -10 q 206 17 260 -10 q 120 90 151 43 q 89 194 89 138 q 128 311 89 269 q 257 371 167 353 q 508 389 347 389 l 538 389 l 538 440 q 500 574 538 532 q 382 617 463 617 q 265 599 321 617 q 149 543 208 582 l 117 608 q 239 668 168 646 q 378 690 310 690 m 332 64 q 480 125 422 64 q 538 281 538 186 l 538 326 l 511 326 q 307 315 378 326 q 207 277 236 304 q 178 199 178 250 q 222 102 178 140 q 332 64 267 64 m 211 956 l 315 956 l 315 854 l 211 854 l 211 956 m 440 956 l 544 956 l 544 854 l 440 854 l 440 956 z "},"ȧ":{"ha":731,"x_min":89,"x_max":621,"o":"m 378 690 q 560 626 500 690 q 621 433 621 563 l 621 0 l 538 0 l 538 121 q 453 24 508 58 q 325 -10 397 -10 q 206 17 260 -10 q 120 90 151 43 q 89 194 89 138 q 128 311 89 269 q 257 371 167 353 q 508 389 347 389 l 538 389 l 538 440 q 500 574 538 532 q 382 617 463 617 q 265 599 321 617 q 149 543 208 582 l 117 608 q 239 668 168 646 q 378 690 310 690 m 332 64 q 480 125 422 64 q 538 281 538 186 l 538 326 l 511 326 q 307 315 378 326 q 207 277 236 304 q 178 199 178 250 q 222 102 178 140 q 332 64 267 64 m 322 958 l 433 958 l 433 851 l 322 851 l 322 958 z "},"ạ":{"ha":731,"x_min":89,"x_max":621,"o":"m 378 690 q 560 626 500 690 q 621 433 621 563 l 621 0 l 538 0 l 538 121 q 453 24 508 58 q 325 -10 397 -10 q 206 17 260 -10 q 120 90 151 43 q 89 194 89 138 q 128 311 89 269 q 257 371 167 353 q 508 389 347 389 l 538 389 l 538 440 q 500 574 538 532 q 382 617 463 617 q 265 599 321 617 q 149 543 208 582 l 117 608 q 239 668 168 646 q 378 690 310 690 m 332 64 q 480 125 422 64 q 538 281 538 186 l 538 326 l 511 326 q 307 315 378 326 q 207 277 236 304 q 178 199 178 250 q 222 102 178 140 q 332 64 267 64 m 319 -140 l 428 -140 l 428 -247 l 319 -247 l 319 -140 z "},"à":{"ha":731,"x_min":89,"x_max":621,"o":"m 378 690 q 560 626 500 690 q 621 433 621 563 l 621 0 l 538 0 l 538 121 q 453 24 508 58 q 325 -10 397 -10 q 206 17 260 -10 q 120 90 151 43 q 89 194 89 138 q 128 311 89 269 q 257 371 167 353 q 508 389 347 389 l 538 389 l 538 440 q 500 574 538 532 q 382 617 463 617 q 265 599 321 617 q 149 543 208 582 l 117 608 q 239 668 168 646 q 378 690 310 690 m 332 64 q 480 125 422 64 q 538 281 538 186 l 538 326 l 511 326 q 307 315 378 326 q 207 277 236 304 q 178 199 178 250 q 222 102 178 140 q 332 64 267 64 m 346 764 l 164 1043 l 271 1043 l 410 764 l 346 764 z "},"ả":{"ha":731,"x_min":89,"x_max":621,"o":"m 378 690 q 560 626 500 690 q 621 433 621 563 l 621 0 l 538 0 l 538 121 q 453 24 508 58 q 325 -10 397 -10 q 206 17 260 -10 q 120 90 151 43 q 89 194 89 138 q 128 311 89 269 q 257 371 167 353 q 508 389 347 389 l 538 389 l 538 440 q 500 574 538 532 q 382 617 463 617 q 265 599 321 617 q 149 543 208 582 l 117 608 q 239 668 168 646 q 378 690 310 690 m 332 64 q 480 125 422 64 q 538 281 538 186 l 538 326 l 511 326 q 307 315 378 326 q 207 277 236 304 q 178 199 178 250 q 222 102 178 140 q 332 64 267 64 m 413 764 l 349 764 l 349 804 q 363 852 349 832 q 403 897 376 872 q 430 926 421 914 q 439 951 439 939 q 423 977 439 968 q 379 986 407 986 q 294 969 339 986 l 275 1025 q 385 1049 326 1049 q 482 1023 446 1049 q 518 957 518 997 q 504 906 518 925 q 463 864 490 888 q 425 828 438 844 q 413 786 413 811 l 413 764 z "},"ȃ":{"ha":731,"x_min":89,"x_max":621,"o":"m 378 690 q 560 626 500 690 q 621 433 621 563 l 621 0 l 538 0 l 538 121 q 453 24 508 58 q 325 -10 397 -10 q 206 17 260 -10 q 120 90 151 43 q 89 194 89 138 q 128 311 89 269 q 257 371 167 353 q 508 389 347 389 l 538 389 l 538 440 q 500 574 538 532 q 382 617 463 617 q 265 599 321 617 q 149 543 208 582 l 117 608 q 239 668 168 646 q 378 690 310 690 m 332 64 q 480 125 422 64 q 538 281 538 186 l 538 326 l 511 326 q 307 315 378 326 q 207 277 236 304 q 178 199 178 250 q 222 102 178 140 q 332 64 267 64 m 378 1003 q 510 962 451 1003 q 599 835 568 921 l 535 807 q 467 904 506 875 q 378 933 428 933 q 289 904 328 933 q 221 807 250 875 l 157 833 q 245 962 186 921 q 378 1003 304 1003 z "},"ā":{"ha":731,"x_min":89,"x_max":621,"o":"m 378 690 q 560 626 500 690 q 621 433 621 563 l 621 0 l 538 0 l 538 121 q 453 24 508 58 q 325 -10 397 -10 q 206 17 260 -10 q 120 90 151 43 q 89 194 89 138 q 128 311 89 269 q 257 371 167 353 q 508 389 347 389 l 538 389 l 538 440 q 500 574 538 532 q 382 617 463 617 q 265 599 321 617 q 149 543 208 582 l 117 608 q 239 668 168 646 q 378 690 310 690 m 332 64 q 480 125 422 64 q 538 281 538 186 l 538 326 l 511 326 q 307 315 378 326 q 207 277 236 304 q 178 199 178 250 q 222 102 178 140 q 332 64 267 64 m 172 869 l 172 940 l 583 940 l 583 869 l 172 869 z "},"ą":{"ha":731,"x_min":89,"x_max":686,"o":"m 686 -235 q 572 -265 638 -265 q 458 -226 503 -265 q 414 -122 414 -186 q 447 -25 414 -67 q 538 39 479 17 l 538 121 q 453 24 508 58 q 325 -10 397 -10 q 206 17 260 -10 q 120 90 151 43 q 89 194 89 138 q 128 311 89 269 q 257 371 167 353 q 508 389 347 389 l 538 389 l 538 440 q 500 574 538 532 q 382 617 463 617 q 265 599 321 617 q 149 543 208 582 l 117 608 q 239 668 168 646 q 378 690 310 690 q 560 626 500 690 q 621 433 621 563 l 621 0 l 615 0 q 524 -31 560 0 q 489 -112 489 -62 q 514 -178 489 -154 q 582 -203 539 -203 q 664 -178 617 -203 l 686 -235 m 332 64 q 480 125 422 64 q 538 281 538 186 l 538 326 l 511 326 q 307 315 378 326 q 207 277 236 304 q 178 199 178 250 q 222 102 178 140 q 332 64 267 64 z "},"å":{"ha":731,"x_min":89,"x_max":621,"o":"m 378 690 q 560 626 500 690 q 621 433 621 563 l 621 0 l 538 0 l 538 121 q 453 24 508 58 q 325 -10 397 -10 q 206 17 260 -10 q 120 90 151 43 q 89 194 89 138 q 128 311 89 269 q 257 371 167 353 q 508 389 347 389 l 538 389 l 538 440 q 500 574 538 532 q 382 617 463 617 q 265 599 321 617 q 149 543 208 582 l 117 608 q 239 668 168 646 q 378 690 310 690 m 332 64 q 480 125 422 64 q 538 281 538 186 l 538 326 l 511 326 q 307 315 378 326 q 207 277 236 304 q 178 199 178 250 q 222 102 178 140 q 332 64 267 64 m 378 769 q 281 808 321 769 q 240 904 240 847 q 281 999 240 960 q 378 1038 321 1038 q 475 999 435 1038 q 515 904 515 960 q 475 808 515 847 q 378 769 435 769 m 378 832 q 428 853 408 832 q 447 904 447 874 q 427 954 447 933 q 378 975 407 975 q 328 954 349 975 q 308 904 308 933 q 328 853 308 874 q 378 832 347 832 z "},"ǻ":{"ha":731,"x_min":89,"x_max":665,"o":"m 378 771 q 281 810 321 771 q 242 904 242 849 q 281 1000 242 961 q 378 1039 321 1039 q 454 1017 418 1039 l 563 1178 l 665 1178 l 493 978 q 515 904 515 944 q 475 810 515 849 q 378 771 435 771 m 378 976 q 329 956 349 976 q 310 904 310 935 q 329 854 310 875 q 378 833 349 833 q 427 854 407 833 q 447 904 447 875 q 428 956 447 935 q 378 976 408 976 m 378 690 q 560 626 500 690 q 621 433 621 563 l 621 0 l 538 0 l 538 121 q 453 24 508 58 q 325 -10 397 -10 q 206 17 260 -10 q 120 90 151 43 q 89 194 89 138 q 128 311 89 269 q 257 371 167 353 q 508 389 347 389 l 538 389 l 538 440 q 500 574 538 532 q 382 617 463 617 q 265 599 321 617 q 149 543 208 582 l 117 608 q 239 668 168 646 q 378 690 310 690 m 332 64 q 480 125 422 64 q 538 281 538 186 l 538 326 l 511 326 q 307 315 378 326 q 207 277 236 304 q 178 199 178 250 q 222 102 178 140 q 332 64 267 64 z "},"ã":{"ha":731,"x_min":89,"x_max":621,"o":"m 378 690 q 560 626 500 690 q 621 433 621 563 l 621 0 l 538 0 l 538 121 q 453 24 508 58 q 325 -10 397 -10 q 206 17 260 -10 q 120 90 151 43 q 89 194 89 138 q 128 311 89 269 q 257 371 167 353 q 508 389 347 389 l 538 389 l 538 440 q 500 574 538 532 q 382 617 463 617 q 265 599 321 617 q 149 543 208 582 l 117 608 q 239 668 168 646 q 378 690 310 690 m 332 64 q 480 125 422 64 q 538 281 538 186 l 538 326 l 511 326 q 307 315 378 326 q 207 277 236 304 q 178 199 178 250 q 222 102 178 140 q 332 64 267 64 m 160 835 q 191 942 160 903 q 276 981 222 981 q 333 968 306 981 q 394 935 361 956 q 443 908 426 915 q 476 900 460 900 q 524 922 507 900 q 542 976 542 944 l 596 976 q 565 869 596 908 q 479 831 533 831 q 422 843 450 831 q 361 876 394 856 q 313 903 329 896 q 279 911 296 911 q 231 889 249 911 q 214 835 214 867 l 160 835 z "},"æ":{"ha":1190,"x_min":89,"x_max":1126,"o":"m 1126 326 l 628 326 q 693 132 632 199 q 867 65 754 65 q 1082 149 982 65 l 1115 82 q 1003 16 1071 42 q 868 -10 935 -10 q 691 38 764 -10 q 582 175 618 85 q 492 39 557 88 q 333 -10 426 -10 q 208 17 264 -10 q 121 90 153 43 q 89 194 89 136 q 128 311 89 269 q 259 371 168 353 q 513 389 350 389 l 543 389 l 543 436 q 506 574 543 531 q 385 617 468 617 q 149 543 267 617 l 117 608 q 240 668 168 646 q 381 690 311 690 q 606 557 558 690 q 709 656 646 621 q 850 690 772 690 q 1053 603 981 690 q 1126 363 1126 517 l 1126 326 m 850 621 q 699 559 757 621 q 631 389 642 497 l 1049 389 q 993 560 1044 500 q 850 621 942 621 m 339 64 q 485 126 428 64 q 543 289 543 189 l 543 326 l 517 326 q 309 315 381 326 q 208 277 238 304 q 178 199 178 250 q 224 101 178 139 q 339 64 269 64 z "},"ǽ":{"ha":1190,"x_min":89,"x_max":1126,"o":"m 1126 326 l 628 326 q 693 132 632 199 q 867 65 754 65 q 1082 149 982 65 l 1115 82 q 1003 16 1071 42 q 868 -10 935 -10 q 691 38 764 -10 q 582 175 618 85 q 492 39 557 88 q 333 -10 426 -10 q 208 17 264 -10 q 121 90 153 43 q 89 194 89 136 q 128 311 89 269 q 259 371 168 353 q 513 389 350 389 l 543 389 l 543 436 q 506 574 543 531 q 385 617 468 617 q 149 543 267 617 l 117 608 q 240 668 168 646 q 381 690 311 690 q 606 557 558 690 q 709 656 646 621 q 850 690 772 690 q 1053 603 981 690 q 1126 363 1126 517 l 1126 326 m 850 621 q 699 559 757 621 q 631 389 642 497 l 1049 389 q 993 560 1044 500 q 850 621 942 621 m 339 64 q 485 126 428 64 q 543 289 543 189 l 543 326 l 517 326 q 309 315 381 326 q 208 277 238 304 q 178 199 178 250 q 224 101 178 139 q 339 64 269 64 m 618 764 l 554 764 l 693 1043 l 800 1043 l 618 764 z "},"b":{"ha":796,"x_min":111,"x_max":728,"o":"m 428 690 q 585 647 517 690 q 690 526 653 604 q 728 343 728 447 q 690 158 728 238 q 585 34 653 78 q 428 -10 517 -10 q 286 26 346 -10 q 196 129 226 61 l 196 0 l 111 0 l 111 979 l 196 979 l 196 551 q 286 655 226 619 q 428 690 346 690 m 417 65 q 581 139 522 65 q 640 343 640 213 q 581 545 640 474 q 415 617 522 617 q 253 544 310 617 q 196 340 196 472 q 253 137 196 208 q 417 65 311 65 z "},"c":{"ha":660,"x_min":68,"x_max":622,"o":"m 385 -10 q 217 33 289 -10 q 107 156 146 76 q 68 338 68 235 q 108 522 68 442 q 219 647 147 603 q 389 690 292 690 q 520 667 457 690 q 622 601 583 643 l 590 535 q 491 597 539 578 q 392 617 443 617 q 220 542 283 617 q 157 338 157 468 q 219 137 157 208 q 390 65 282 65 q 490 85 442 65 q 590 146 538 104 l 622 81 q 517 15 581 39 q 385 -10 453 -10 z "},"ć":{"ha":660,"x_min":68,"x_max":622,"o":"m 385 -10 q 217 33 289 -10 q 107 156 146 76 q 68 338 68 235 q 108 522 68 442 q 219 647 147 603 q 389 690 292 690 q 520 667 457 690 q 622 601 583 643 l 590 535 q 491 597 539 578 q 392 617 443 617 q 220 542 283 617 q 157 338 157 468 q 219 137 157 208 q 390 65 282 65 q 490 85 442 65 q 590 146 538 104 l 622 81 q 517 15 581 39 q 385 -10 453 -10 m 415 764 l 351 764 l 490 1043 l 597 1043 l 415 764 z "},"č":{"ha":660,"x_min":68,"x_max":622,"o":"m 385 -10 q 217 33 289 -10 q 107 156 146 76 q 68 338 68 235 q 108 522 68 442 q 219 647 147 603 q 389 690 292 690 q 520 667 457 690 q 622 601 583 643 l 590 535 q 491 597 539 578 q 392 617 443 617 q 220 542 283 617 q 157 338 157 468 q 219 137 157 208 q 390 65 282 65 q 490 85 442 65 q 590 146 538 104 l 622 81 q 517 15 581 39 q 385 -10 453 -10 m 489 1043 l 575 1043 l 417 764 l 350 764 l 192 1043 l 278 1043 l 383 833 l 489 1043 z "},"ç":{"ha":660,"x_min":68,"x_max":622,"o":"m 622 81 q 524 17 583 42 q 401 -10 465 -7 l 396 -61 q 433 -57 415 -57 q 506 -81 475 -57 q 536 -153 536 -106 q 495 -234 536 -203 q 382 -265 454 -265 q 319 -259 353 -265 q 263 -239 286 -253 l 282 -186 q 385 -206 328 -206 q 445 -192 425 -206 q 465 -153 465 -178 q 453 -123 465 -133 q 415 -112 440 -112 q 349 -126 390 -112 l 322 -106 l 332 -6 q 139 103 210 11 q 68 338 68 196 q 108 522 68 442 q 219 647 147 603 q 389 690 292 690 q 520 667 457 690 q 622 601 583 643 l 590 535 q 491 597 539 578 q 392 617 443 617 q 220 542 283 617 q 157 338 157 468 q 219 137 157 208 q 390 65 282 65 q 490 85 442 65 q 590 146 538 104 l 622 81 z "},"ḉ":{"ha":660,"x_min":68,"x_max":622,"o":"m 597 1043 l 415 764 l 351 764 l 490 1043 l 597 1043 m 622 81 q 524 17 583 42 q 401 -10 465 -7 l 396 -61 q 433 -57 415 -57 q 506 -81 475 -57 q 536 -153 536 -106 q 495 -234 536 -203 q 382 -265 454 -265 q 319 -259 353 -265 q 263 -239 286 -253 l 282 -186 q 385 -206 328 -206 q 445 -192 425 -206 q 465 -153 465 -178 q 453 -123 465 -133 q 415 -112 440 -112 q 349 -126 390 -112 l 322 -106 l 332 -6 q 139 103 210 11 q 68 338 68 196 q 108 522 68 442 q 219 647 147 603 q 389 690 292 690 q 520 667 457 690 q 622 601 583 643 l 590 535 q 491 597 539 578 q 392 617 443 617 q 220 542 283 617 q 157 338 157 468 q 219 137 157 208 q 390 65 282 65 q 490 85 442 65 q 590 146 538 104 l 622 81 z "},"ĉ":{"ha":660,"x_min":68,"x_max":622,"o":"m 385 -10 q 217 33 289 -10 q 107 156 146 76 q 68 338 68 235 q 108 522 68 442 q 219 647 147 603 q 389 690 292 690 q 520 667 457 690 q 622 601 583 643 l 590 535 q 491 597 539 578 q 392 617 443 617 q 220 542 283 617 q 157 338 157 468 q 219 137 157 208 q 390 65 282 65 q 490 85 442 65 q 590 146 538 104 l 622 81 q 517 15 581 39 q 385 -10 453 -10 m 278 764 l 192 764 l 350 1043 l 417 1043 l 575 764 l 489 764 l 383 974 l 278 764 z "},"ċ":{"ha":660,"x_min":68,"x_max":622,"o":"m 385 -10 q 217 33 289 -10 q 107 156 146 76 q 68 338 68 235 q 108 522 68 442 q 219 647 147 603 q 389 690 292 690 q 520 667 457 690 q 622 601 583 643 l 590 535 q 491 597 539 578 q 392 617 443 617 q 220 542 283 617 q 157 338 157 468 q 219 137 157 208 q 390 65 282 65 q 490 85 442 65 q 590 146 538 104 l 622 81 q 517 15 581 39 q 385 -10 453 -10 m 328 958 l 439 958 l 439 851 l 328 851 l 328 958 z "},"d":{"ha":796,"x_min":68,"x_max":685,"o":"m 685 979 l 685 0 l 600 0 l 600 129 q 510 26 569 61 q 368 -10 450 -10 q 211 34 279 -10 q 106 158 143 78 q 68 343 68 238 q 106 526 68 447 q 211 647 143 604 q 368 690 279 690 q 510 655 450 690 q 600 551 569 619 l 600 979 l 685 979 m 379 65 q 542 137 485 65 q 600 340 600 208 q 543 544 600 472 q 381 617 486 617 q 215 545 274 617 q 157 343 157 474 q 215 138 157 211 q 379 65 274 65 z "},"ð":{"ha":763,"x_min":68,"x_max":694,"o":"m 544 814 q 694 396 694 653 q 614 93 694 196 q 376 -10 533 -10 q 215 30 285 -10 q 106 142 144 69 q 68 311 68 215 q 106 480 68 407 q 215 592 144 553 q 376 632 285 632 q 603 522 531 632 q 468 785 576 679 l 251 700 l 231 761 l 413 832 q 221 922 329 892 l 243 988 q 493 863 388 947 l 669 931 l 692 871 l 544 814 m 378 65 q 542 131 482 65 q 601 311 601 196 q 542 492 601 428 q 379 557 483 557 q 215 492 274 557 q 157 311 157 428 q 214 129 157 193 q 378 65 271 65 z "},"ď":{"ha":796,"x_min":68,"x_max":817,"o":"m 600 979 l 685 979 l 685 0 l 600 0 l 600 129 q 510 26 569 61 q 368 -10 450 -10 q 211 34 279 -10 q 106 158 143 78 q 68 343 68 238 q 106 526 68 447 q 211 647 143 604 q 368 690 279 690 q 510 655 450 690 q 600 551 569 619 l 600 979 m 733 979 l 817 979 l 781 717 l 733 717 l 733 979 m 379 65 q 542 137 485 65 q 600 340 600 208 q 543 544 600 472 q 381 617 486 617 q 215 545 274 617 q 157 343 157 474 q 215 138 157 211 q 379 65 274 65 z "},"đ":{"ha":796,"x_min":68,"x_max":815,"o":"m 815 779 l 685 779 l 685 0 l 600 0 l 600 129 q 510 26 569 61 q 368 -10 450 -10 q 211 34 279 -10 q 106 158 143 78 q 68 343 68 238 q 106 526 68 447 q 211 647 143 604 q 368 690 279 690 q 510 655 450 690 q 600 551 569 619 l 600 779 l 329 779 l 329 847 l 600 847 l 600 979 l 685 979 l 685 847 l 815 847 l 815 779 m 379 65 q 542 137 485 65 q 600 340 600 208 q 543 544 600 472 q 381 617 486 617 q 215 545 274 617 q 157 343 157 474 q 215 138 157 211 q 379 65 274 65 z "},"ḍ":{"ha":796,"x_min":68,"x_max":685,"o":"m 685 979 l 685 0 l 600 0 l 600 129 q 510 26 569 61 q 368 -10 450 -10 q 211 34 279 -10 q 106 158 143 78 q 68 343 68 238 q 106 526 68 447 q 211 647 143 604 q 368 690 279 690 q 510 655 450 690 q 600 551 569 619 l 600 979 l 685 979 m 379 65 q 542 137 485 65 q 600 340 600 208 q 543 544 600 472 q 381 617 486 617 q 215 545 274 617 q 157 343 157 474 q 215 138 157 211 q 379 65 274 65 m 346 -140 l 454 -140 l 454 -247 l 346 -247 l 346 -140 z "},"ḏ":{"ha":796,"x_min":68,"x_max":685,"o":"m 685 979 l 685 0 l 600 0 l 600 129 q 510 26 569 61 q 368 -10 450 -10 q 211 34 279 -10 q 106 158 143 78 q 68 343 68 238 q 106 526 68 447 q 211 647 143 604 q 368 690 279 690 q 510 655 450 690 q 600 551 569 619 l 600 979 l 685 979 m 379 65 q 542 137 485 65 q 600 340 600 208 q 543 544 600 472 q 381 617 486 617 q 215 545 274 617 q 157 343 157 474 q 215 138 157 211 q 379 65 274 65 m 194 -229 l 194 -158 l 606 -158 l 606 -229 l 194 -229 z "},"ǆ":{"ha":1489,"x_min":68,"x_max":1428,"o":"m 685 979 l 685 0 l 600 0 l 600 129 q 510 26 569 61 q 368 -10 450 -10 q 211 34 279 -10 q 106 158 143 78 q 68 343 68 238 q 106 526 68 447 q 211 647 143 604 q 368 690 279 690 q 510 655 450 690 q 600 551 569 619 l 600 979 l 685 979 m 379 65 q 542 137 485 65 q 600 340 600 208 q 543 544 600 472 q 381 617 486 617 q 215 545 274 617 q 157 343 157 474 q 215 138 157 211 q 379 65 274 65 m 972 69 l 1428 69 l 1428 0 l 864 0 l 864 58 l 1310 606 l 881 606 l 881 674 l 1413 674 l 1413 610 l 972 69 m 1253 1043 l 1339 1043 l 1181 764 l 1114 764 l 956 1043 l 1042 1043 l 1147 833 l 1253 1043 z "},"e":{"ha":731,"x_min":68,"x_max":665,"o":"m 665 326 l 156 326 q 222 133 160 200 q 400 65 285 65 q 621 149 522 65 l 654 82 q 541 15 610 40 q 400 -10 472 -10 q 157 83 246 -10 q 68 339 68 176 q 108 523 68 443 q 219 647 147 603 q 383 690 290 690 q 590 604 515 690 q 665 364 665 518 l 665 326 m 383 621 q 228 560 286 621 q 158 389 169 499 l 588 389 q 532 560 585 500 q 383 621 479 621 z "},"é":{"ha":731,"x_min":68,"x_max":665,"o":"m 665 326 l 156 326 q 222 133 160 200 q 400 65 285 65 q 621 149 522 65 l 654 82 q 541 15 610 40 q 400 -10 472 -10 q 157 83 246 -10 q 68 339 68 176 q 108 523 68 443 q 219 647 147 603 q 383 690 290 690 q 590 604 515 690 q 665 364 665 518 l 665 326 m 383 621 q 228 560 286 621 q 158 389 169 499 l 588 389 q 532 560 585 500 q 383 621 479 621 m 415 764 l 351 764 l 490 1043 l 597 1043 l 415 764 z "},"ĕ":{"ha":731,"x_min":68,"x_max":665,"o":"m 665 326 l 156 326 q 222 133 160 200 q 400 65 285 65 q 621 149 522 65 l 654 82 q 541 15 610 40 q 400 -10 472 -10 q 157 83 246 -10 q 68 339 68 176 q 108 523 68 443 q 219 647 147 603 q 383 690 290 690 q 590 604 515 690 q 665 364 665 518 l 665 326 m 383 621 q 228 560 286 621 q 158 389 169 499 l 588 389 q 532 560 585 500 q 383 621 479 621 m 383 810 q 251 850 310 810 q 163 976 193 890 l 226 1004 q 295 907 257 936 q 383 878 333 878 q 472 907 433 878 q 540 1004 510 936 l 604 978 q 516 851 575 892 q 383 810 457 810 z "},"ě":{"ha":731,"x_min":68,"x_max":665,"o":"m 665 326 l 156 326 q 222 133 160 200 q 400 65 285 65 q 621 149 522 65 l 654 82 q 541 15 610 40 q 400 -10 472 -10 q 157 83 246 -10 q 68 339 68 176 q 108 523 68 443 q 219 647 147 603 q 383 690 290 690 q 590 604 515 690 q 665 364 665 518 l 665 326 m 383 621 q 228 560 286 621 q 158 389 169 499 l 588 389 q 532 560 585 500 q 383 621 479 621 m 489 1043 l 575 1043 l 417 764 l 350 764 l 192 1043 l 278 1043 l 383 833 l 489 1043 z "},"ḝ":{"ha":731,"x_min":68,"x_max":665,"o":"m 383 810 q 251 850 310 810 q 163 976 193 890 l 226 1004 q 295 907 257 936 q 383 878 333 878 q 472 907 433 878 q 540 1004 510 936 l 604 978 q 516 851 575 892 q 383 810 457 810 m 665 326 l 156 326 q 222 133 160 200 q 400 65 285 65 q 621 149 522 65 l 654 82 q 550 19 613 43 q 421 -10 488 -6 l 415 -61 q 453 -57 435 -57 q 525 -81 494 -57 q 556 -153 556 -106 q 515 -234 556 -203 q 401 -265 474 -265 q 339 -259 372 -265 q 282 -239 306 -253 l 301 -186 q 404 -206 347 -206 q 465 -192 444 -206 q 485 -153 485 -178 q 472 -123 485 -133 q 435 -112 460 -112 q 368 -126 410 -112 l 342 -106 l 351 -7 q 143 99 218 8 q 68 339 68 190 q 108 523 68 443 q 219 647 147 603 q 383 690 290 690 q 590 604 515 690 q 665 364 665 518 l 665 326 m 383 621 q 228 560 286 621 q 158 389 169 499 l 588 389 q 532 560 585 500 q 383 621 479 621 z "},"ê":{"ha":731,"x_min":68,"x_max":665,"o":"m 665 326 l 156 326 q 222 133 160 200 q 400 65 285 65 q 621 149 522 65 l 654 82 q 541 15 610 40 q 400 -10 472 -10 q 157 83 246 -10 q 68 339 68 176 q 108 523 68 443 q 219 647 147 603 q 383 690 290 690 q 590 604 515 690 q 665 364 665 518 l 665 326 m 383 621 q 228 560 286 621 q 158 389 169 499 l 588 389 q 532 560 585 500 q 383 621 479 621 m 278 764 l 192 764 l 350 1043 l 417 1043 l 575 764 l 489 764 l 383 974 l 278 764 z "},"ế":{"ha":731,"x_min":68,"x_max":733,"o":"m 665 326 l 156 326 q 222 133 160 200 q 400 65 285 65 q 621 149 522 65 l 654 82 q 541 15 610 40 q 400 -10 472 -10 q 157 83 246 -10 q 68 339 68 176 q 108 523 68 443 q 219 647 147 603 q 383 690 290 690 q 590 604 515 690 q 665 364 665 518 l 665 326 m 383 621 q 228 560 286 621 q 158 389 169 499 l 588 389 q 532 560 585 500 q 383 621 479 621 m 556 906 l 497 906 l 632 1103 l 733 1103 l 556 906 m 278 764 l 192 764 l 351 972 l 415 972 l 575 764 l 489 764 l 383 914 l 278 764 z "},"ệ":{"ha":731,"x_min":68,"x_max":665,"o":"m 665 326 l 156 326 q 222 133 160 200 q 400 65 285 65 q 621 149 522 65 l 654 82 q 541 15 610 40 q 400 -10 472 -10 q 157 83 246 -10 q 68 339 68 176 q 108 523 68 443 q 219 647 147 603 q 383 690 290 690 q 590 604 515 690 q 665 364 665 518 l 665 326 m 383 621 q 228 560 286 621 q 158 389 169 499 l 588 389 q 532 560 585 500 q 383 621 479 621 m 346 -140 l 454 -140 l 454 -247 l 346 -247 l 346 -140 m 278 764 l 192 764 l 350 1043 l 417 1043 l 575 764 l 489 764 l 383 974 l 278 764 z "},"ề":{"ha":731,"x_min":68,"x_max":665,"o":"m 665 326 l 156 326 q 222 133 160 200 q 400 65 285 65 q 621 149 522 65 l 654 82 q 541 15 610 40 q 400 -10 472 -10 q 157 83 246 -10 q 68 339 68 176 q 108 523 68 443 q 219 647 147 603 q 383 690 290 690 q 590 604 515 690 q 665 364 665 518 l 665 326 m 383 621 q 228 560 286 621 q 158 389 169 499 l 588 389 q 532 560 585 500 q 383 621 479 621 m 557 906 l 406 1103 l 507 1103 l 615 906 l 557 906 m 278 764 l 192 764 l 351 972 l 415 972 l 575 764 l 489 764 l 383 914 l 278 764 z "},"ể":{"ha":731,"x_min":68,"x_max":668,"o":"m 665 326 l 156 326 q 222 133 160 200 q 400 65 285 65 q 621 149 522 65 l 654 82 q 541 15 610 40 q 400 -10 472 -10 q 157 83 246 -10 q 68 339 68 176 q 108 523 68 443 q 219 647 147 603 q 383 690 290 690 q 590 604 515 690 q 665 364 665 518 l 665 326 m 383 621 q 228 560 286 621 q 158 389 169 499 l 588 389 q 532 560 585 500 q 383 621 479 621 m 561 906 l 496 906 l 496 928 q 511 965 496 951 q 554 989 526 978 q 582 1003 574 997 q 590 1019 590 1010 q 574 1040 590 1033 q 531 1047 558 1047 q 444 1031 489 1047 l 425 1086 q 533 1110 479 1110 q 632 1085 596 1110 q 668 1021 668 1061 q 653 985 668 997 q 607 957 638 972 q 573 939 585 947 q 561 918 561 931 l 561 906 m 278 764 l 192 764 l 351 972 l 415 972 l 575 764 l 489 764 l 383 914 l 278 764 z "},"ễ":{"ha":731,"x_min":68,"x_max":665,"o":"m 665 326 l 156 326 q 222 133 160 200 q 400 65 285 65 q 621 149 522 65 l 654 82 q 541 15 610 40 q 400 -10 472 -10 q 157 83 246 -10 q 68 339 68 176 q 108 523 68 443 q 219 647 147 603 q 383 690 290 690 q 590 604 515 690 q 665 364 665 518 l 665 326 m 383 621 q 228 560 286 621 q 158 389 169 499 l 588 389 q 532 560 585 500 q 383 621 479 621 m 165 992 q 197 1088 165 1051 q 282 1125 229 1125 q 338 1116 311 1125 q 400 1089 364 1107 q 447 1068 428 1075 q 482 1061 465 1061 q 530 1083 513 1061 q 547 1129 547 1104 l 601 1129 q 569 1032 601 1069 q 485 994 538 994 q 429 1003 456 994 q 367 1031 403 1013 q 320 1051 339 1044 q 285 1058 301 1058 q 237 1038 254 1058 q 219 992 219 1017 l 165 992 m 278 764 l 192 764 l 351 972 l 415 972 l 575 764 l 489 764 l 383 914 l 278 764 z "},"ȅ":{"ha":731,"x_min":68,"x_max":665,"o":"m 665 326 l 156 326 q 222 133 160 200 q 400 65 285 65 q 621 149 522 65 l 654 82 q 541 15 610 40 q 400 -10 472 -10 q 157 83 246 -10 q 68 339 68 176 q 108 523 68 443 q 219 647 147 603 q 383 690 290 690 q 590 604 515 690 q 665 364 665 518 l 665 326 m 383 621 q 228 560 286 621 q 158 389 169 499 l 588 389 q 532 560 585 500 q 383 621 479 621 m 279 764 l 169 1043 l 258 1043 l 326 764 l 279 764 m 440 764 l 331 1043 l 419 1043 l 488 764 l 440 764 z "},"ë":{"ha":731,"x_min":68,"x_max":665,"o":"m 665 326 l 156 326 q 222 133 160 200 q 400 65 285 65 q 621 149 522 65 l 654 82 q 541 15 610 40 q 400 -10 472 -10 q 157 83 246 -10 q 68 339 68 176 q 108 523 68 443 q 219 647 147 603 q 383 690 290 690 q 590 604 515 690 q 665 364 665 518 l 665 326 m 383 621 q 228 560 286 621 q 158 389 169 499 l 588 389 q 532 560 585 500 q 383 621 479 621 m 217 956 l 321 956 l 321 854 l 217 854 l 217 956 m 446 956 l 550 956 l 550 854 l 446 854 l 446 956 z "},"ė":{"ha":731,"x_min":68,"x_max":665,"o":"m 665 326 l 156 326 q 222 133 160 200 q 400 65 285 65 q 621 149 522 65 l 654 82 q 541 15 610 40 q 400 -10 472 -10 q 157 83 246 -10 q 68 339 68 176 q 108 523 68 443 q 219 647 147 603 q 383 690 290 690 q 590 604 515 690 q 665 364 665 518 l 665 326 m 383 621 q 228 560 286 621 q 158 389 169 499 l 588 389 q 532 560 585 500 q 383 621 479 621 m 328 958 l 439 958 l 439 851 l 328 851 l 328 958 z "},"ẹ":{"ha":731,"x_min":68,"x_max":665,"o":"m 665 326 l 156 326 q 222 133 160 200 q 400 65 285 65 q 621 149 522 65 l 654 82 q 541 15 610 40 q 400 -10 472 -10 q 157 83 246 -10 q 68 339 68 176 q 108 523 68 443 q 219 647 147 603 q 383 690 290 690 q 590 604 515 690 q 665 364 665 518 l 665 326 m 383 621 q 228 560 286 621 q 158 389 169 499 l 588 389 q 532 560 585 500 q 383 621 479 621 m 346 -140 l 454 -140 l 454 -247 l 346 -247 l 346 -140 z "},"è":{"ha":731,"x_min":68,"x_max":665,"o":"m 665 326 l 156 326 q 222 133 160 200 q 400 65 285 65 q 621 149 522 65 l 654 82 q 541 15 610 40 q 400 -10 472 -10 q 157 83 246 -10 q 68 339 68 176 q 108 523 68 443 q 219 647 147 603 q 383 690 290 690 q 590 604 515 690 q 665 364 665 518 l 665 326 m 383 621 q 228 560 286 621 q 158 389 169 499 l 588 389 q 532 560 585 500 q 383 621 479 621 m 351 764 l 169 1043 l 276 1043 l 415 764 l 351 764 z "},"ẻ":{"ha":731,"x_min":68,"x_max":665,"o":"m 665 326 l 156 326 q 222 133 160 200 q 400 65 285 65 q 621 149 522 65 l 654 82 q 541 15 610 40 q 400 -10 472 -10 q 157 83 246 -10 q 68 339 68 176 q 108 523 68 443 q 219 647 147 603 q 383 690 290 690 q 590 604 515 690 q 665 364 665 518 l 665 326 m 383 621 q 228 560 286 621 q 158 389 169 499 l 588 389 q 532 560 585 500 q 383 621 479 621 m 418 764 l 354 764 l 354 804 q 368 852 354 832 q 408 897 382 872 q 435 926 426 914 q 444 951 444 939 q 428 977 444 968 q 385 986 413 986 q 300 969 344 986 l 281 1025 q 390 1049 332 1049 q 488 1023 451 1049 q 524 957 524 997 q 510 906 524 925 q 468 864 496 888 q 431 828 443 844 q 418 786 418 811 l 418 764 z "},"ȇ":{"ha":731,"x_min":68,"x_max":665,"o":"m 665 326 l 156 326 q 222 133 160 200 q 400 65 285 65 q 621 149 522 65 l 654 82 q 541 15 610 40 q 400 -10 472 -10 q 157 83 246 -10 q 68 339 68 176 q 108 523 68 443 q 219 647 147 603 q 383 690 290 690 q 590 604 515 690 q 665 364 665 518 l 665 326 m 383 621 q 228 560 286 621 q 158 389 169 499 l 588 389 q 532 560 585 500 q 383 621 479 621 m 383 1003 q 515 962 457 1003 q 604 835 574 921 l 540 807 q 472 904 511 875 q 383 933 433 933 q 294 904 333 933 q 226 807 256 875 l 163 833 q 251 962 192 921 q 383 1003 310 1003 z "},"ē":{"ha":731,"x_min":68,"x_max":665,"o":"m 665 326 l 156 326 q 222 133 160 200 q 400 65 285 65 q 621 149 522 65 l 654 82 q 541 15 610 40 q 400 -10 472 -10 q 157 83 246 -10 q 68 339 68 176 q 108 523 68 443 q 219 647 147 603 q 383 690 290 690 q 590 604 515 690 q 665 364 665 518 l 665 326 m 383 621 q 228 560 286 621 q 158 389 169 499 l 588 389 q 532 560 585 500 q 383 621 479 621 m 178 869 l 178 940 l 589 940 l 589 869 l 178 869 z "},"ḗ":{"ha":731,"x_min":68,"x_max":665,"o":"m 665 326 l 156 326 q 222 133 160 200 q 400 65 285 65 q 621 149 522 65 l 654 82 q 541 15 610 40 q 400 -10 472 -10 q 157 83 246 -10 q 68 339 68 176 q 108 523 68 443 q 219 647 147 603 q 383 690 290 690 q 590 604 515 690 q 665 364 665 518 l 665 326 m 383 621 q 228 560 286 621 q 158 389 169 499 l 588 389 q 532 560 585 500 q 383 621 479 621 m 178 869 l 178 940 l 589 940 l 589 869 l 178 869 m 415 1033 l 351 1033 l 490 1313 l 597 1313 l 415 1033 z "},"ḕ":{"ha":731,"x_min":68,"x_max":665,"o":"m 665 326 l 156 326 q 222 133 160 200 q 400 65 285 65 q 621 149 522 65 l 654 82 q 541 15 610 40 q 400 -10 472 -10 q 157 83 246 -10 q 68 339 68 176 q 108 523 68 443 q 219 647 147 603 q 383 690 290 690 q 590 604 515 690 q 665 364 665 518 l 665 326 m 383 621 q 228 560 286 621 q 158 389 169 499 l 588 389 q 532 560 585 500 q 383 621 479 621 m 178 869 l 178 940 l 589 940 l 589 869 l 178 869 m 351 1033 l 169 1313 l 276 1313 l 415 1033 l 351 1033 z "},"ę":{"ha":731,"x_min":68,"x_max":665,"o":"m 665 326 l 156 326 q 222 133 160 200 q 400 65 285 65 q 621 149 522 65 l 654 83 q 585 38 635 64 q 485 -37 514 -3 q 456 -112 456 -71 q 481 -178 456 -154 q 550 -203 507 -203 q 632 -178 585 -203 l 654 -235 q 540 -265 606 -265 q 426 -226 471 -265 q 382 -122 382 -186 q 433 -8 382 -56 q 400 -10 424 -10 q 157 83 246 -10 q 68 339 68 176 q 108 523 68 443 q 219 647 147 603 q 383 690 290 690 q 590 604 515 690 q 665 364 665 518 l 665 326 m 383 621 q 228 560 286 621 q 158 389 169 499 l 588 389 q 532 560 585 500 q 383 621 479 621 z "},"ẽ":{"ha":731,"x_min":68,"x_max":665,"o":"m 665 326 l 156 326 q 222 133 160 200 q 400 65 285 65 q 621 149 522 65 l 654 82 q 541 15 610 40 q 400 -10 472 -10 q 157 83 246 -10 q 68 339 68 176 q 108 523 68 443 q 219 647 147 603 q 383 690 290 690 q 590 604 515 690 q 665 364 665 518 l 665 326 m 383 621 q 228 560 286 621 q 158 389 169 499 l 588 389 q 532 560 585 500 q 383 621 479 621 m 165 835 q 197 942 165 903 q 282 981 228 981 q 339 968 311 981 q 400 935 367 956 q 449 908 432 915 q 482 900 465 900 q 530 922 513 900 q 547 976 547 944 l 601 976 q 570 869 601 908 q 485 831 539 831 q 428 843 456 831 q 367 876 400 856 q 318 903 335 896 q 285 911 301 911 q 237 889 254 911 q 219 835 219 867 l 165 835 z "},"ə":{"ha":731,"x_min":65,"x_max":663,"o":"m 336 690 q 575 597 488 690 q 663 342 663 504 q 625 156 663 235 q 518 33 588 76 q 356 -10 449 -10 q 142 77 219 -10 q 65 319 65 164 l 65 356 l 576 356 q 509 549 571 482 q 336 617 447 617 q 108 533 224 617 l 76 599 q 195 666 125 642 q 336 690 265 690 m 354 60 q 508 120 451 60 q 575 292 564 181 l 147 292 q 203 119 150 179 q 354 60 257 60 z "},"f":{"ha":438,"x_min":11,"x_max":458,"o":"m 229 674 l 426 674 l 426 606 l 229 606 l 229 0 l 144 0 l 144 606 l 11 606 l 11 674 l 144 674 l 144 707 q 208 905 144 838 q 403 979 272 972 l 451 982 l 458 913 l 394 910 q 269 856 310 904 q 229 715 229 808 l 229 674 z "},"g":{"ha":801,"x_min":68,"x_max":690,"o":"m 690 674 l 690 39 q 617 -184 690 -108 q 401 -260 544 -260 q 110 -167 232 -260 l 143 -100 q 269 -166 211 -147 q 403 -185 326 -185 q 556 -131 504 -185 q 607 31 607 -76 l 607 163 q 517 58 578 94 q 371 21 457 21 q 213 63 282 21 q 106 181 144 104 q 68 356 68 257 q 106 531 68 454 q 213 649 144 607 q 371 690 282 690 q 515 655 456 690 q 606 551 575 619 l 606 674 l 690 674 m 382 96 q 547 165 488 96 q 606 356 606 235 q 546 547 606 476 q 382 617 486 617 q 217 547 276 617 q 157 356 157 478 q 217 165 157 233 q 382 96 276 96 z "},"ğ":{"ha":801,"x_min":68,"x_max":690,"o":"m 690 674 l 690 39 q 617 -184 690 -108 q 401 -260 544 -260 q 110 -167 232 -260 l 143 -100 q 269 -166 211 -147 q 403 -185 326 -185 q 556 -131 504 -185 q 607 31 607 -76 l 607 163 q 517 58 578 94 q 371 21 457 21 q 213 63 282 21 q 106 181 144 104 q 68 356 68 257 q 106 531 68 454 q 213 649 144 607 q 371 690 282 690 q 515 655 456 690 q 606 551 575 619 l 606 674 l 690 674 m 382 96 q 547 165 488 96 q 606 356 606 235 q 546 547 606 476 q 382 617 486 617 q 217 547 276 617 q 157 356 157 478 q 217 165 157 233 q 382 96 276 96 m 403 810 q 271 850 329 810 q 182 976 213 890 l 246 1004 q 315 907 276 936 q 403 878 353 878 q 491 907 453 878 q 560 1004 529 936 l 624 978 q 535 851 594 892 q 403 810 476 810 z "},"ǧ":{"ha":801,"x_min":68,"x_max":690,"o":"m 690 674 l 690 39 q 617 -184 690 -108 q 401 -260 544 -260 q 110 -167 232 -260 l 143 -100 q 269 -166 211 -147 q 403 -185 326 -185 q 556 -131 504 -185 q 607 31 607 -76 l 607 163 q 517 58 578 94 q 371 21 457 21 q 213 63 282 21 q 106 181 144 104 q 68 356 68 257 q 106 531 68 454 q 213 649 144 607 q 371 690 282 690 q 515 655 456 690 q 606 551 575 619 l 606 674 l 690 674 m 382 96 q 547 165 488 96 q 606 356 606 235 q 546 547 606 476 q 382 617 486 617 q 217 547 276 617 q 157 356 157 478 q 217 165 157 233 q 382 96 276 96 m 508 1043 l 594 1043 l 436 764 l 369 764 l 211 1043 l 297 1043 l 403 833 l 508 1043 z "},"ĝ":{"ha":801,"x_min":68,"x_max":690,"o":"m 690 674 l 690 39 q 617 -184 690 -108 q 401 -260 544 -260 q 110 -167 232 -260 l 143 -100 q 269 -166 211 -147 q 403 -185 326 -185 q 556 -131 504 -185 q 607 31 607 -76 l 607 163 q 517 58 578 94 q 371 21 457 21 q 213 63 282 21 q 106 181 144 104 q 68 356 68 257 q 106 531 68 454 q 213 649 144 607 q 371 690 282 690 q 515 655 456 690 q 606 551 575 619 l 606 674 l 690 674 m 382 96 q 547 165 488 96 q 606 356 606 235 q 546 547 606 476 q 382 617 486 617 q 217 547 276 617 q 157 356 157 478 q 217 165 157 233 q 382 96 276 96 m 297 764 l 211 764 l 369 1043 l 436 1043 l 594 764 l 508 764 l 403 974 l 297 764 z "},"ģ":{"ha":801,"x_min":68,"x_max":690,"o":"m 690 674 l 690 39 q 617 -184 690 -108 q 401 -260 544 -260 q 110 -167 232 -260 l 143 -100 q 269 -166 211 -147 q 403 -185 326 -185 q 556 -131 504 -185 q 607 31 607 -76 l 607 163 q 517 58 578 94 q 371 21 457 21 q 213 63 282 21 q 106 181 144 104 q 68 356 68 257 q 106 531 68 454 q 213 649 144 607 q 371 690 282 690 q 515 655 456 690 q 606 551 575 619 l 606 674 l 690 674 m 382 96 q 547 165 488 96 q 606 356 606 235 q 546 547 606 476 q 382 617 486 617 q 217 547 276 617 q 157 356 157 478 q 217 165 157 233 q 382 96 276 96 m 461 907 l 461 804 l 344 804 l 344 882 q 360 976 344 935 q 411 1056 375 1018 l 456 1022 q 418 965 429 993 q 406 907 407 938 l 461 907 z "},"ġ":{"ha":801,"x_min":68,"x_max":690,"o":"m 690 674 l 690 39 q 617 -184 690 -108 q 401 -260 544 -260 q 110 -167 232 -260 l 143 -100 q 269 -166 211 -147 q 403 -185 326 -185 q 556 -131 504 -185 q 607 31 607 -76 l 607 163 q 517 58 578 94 q 371 21 457 21 q 213 63 282 21 q 106 181 144 104 q 68 356 68 257 q 106 531 68 454 q 213 649 144 607 q 371 690 282 690 q 515 655 456 690 q 606 551 575 619 l 606 674 l 690 674 m 382 96 q 547 165 488 96 q 606 356 606 235 q 546 547 606 476 q 382 617 486 617 q 217 547 276 617 q 157 356 157 478 q 217 165 157 233 q 382 96 276 96 m 347 958 l 458 958 l 458 851 l 347 851 l 347 958 z "},"ḡ":{"ha":801,"x_min":68,"x_max":690,"o":"m 690 674 l 690 39 q 617 -184 690 -108 q 401 -260 544 -260 q 110 -167 232 -260 l 143 -100 q 269 -166 211 -147 q 403 -185 326 -185 q 556 -131 504 -185 q 607 31 607 -76 l 607 163 q 517 58 578 94 q 371 21 457 21 q 213 63 282 21 q 106 181 144 104 q 68 356 68 257 q 106 531 68 454 q 213 649 144 607 q 371 690 282 690 q 515 655 456 690 q 606 551 575 619 l 606 674 l 690 674 m 382 96 q 547 165 488 96 q 606 356 606 235 q 546 547 606 476 q 382 617 486 617 q 217 547 276 617 q 157 356 157 478 q 217 165 157 233 q 382 96 276 96 m 197 869 l 197 940 l 608 940 l 608 869 l 197 869 z "},"h":{"ha":779,"x_min":111,"x_max":669,"o":"m 426 690 q 669 429 669 690 l 669 0 l 585 0 l 585 424 q 544 569 585 524 q 417 615 504 615 q 256 554 317 615 q 196 390 196 493 l 196 0 l 111 0 l 111 979 l 196 979 l 196 561 q 288 657 228 624 q 426 690 349 690 z "},"ħ":{"ha":779,"x_min":-19,"x_max":669,"o":"m 426 690 q 669 429 669 690 l 669 0 l 585 0 l 585 424 q 544 569 585 524 q 417 615 504 615 q 256 554 317 615 q 196 390 196 493 l 196 0 l 111 0 l 111 779 l -19 779 l -19 847 l 111 847 l 111 979 l 196 979 l 196 847 l 467 847 l 467 779 l 196 779 l 196 561 q 288 657 228 624 q 426 690 349 690 z "},"ḫ":{"ha":779,"x_min":111,"x_max":669,"o":"m 426 690 q 669 429 669 690 l 669 0 l 585 0 l 585 424 q 544 569 585 524 q 417 615 504 615 q 256 554 317 615 q 196 390 196 493 l 196 0 l 111 0 l 111 979 l 196 979 l 196 561 q 288 657 228 624 q 426 690 349 690 m 389 -287 q 257 -247 315 -287 q 168 -119 199 -206 l 232 -92 q 301 -189 263 -160 q 389 -218 339 -218 q 477 -189 439 -218 q 546 -92 515 -160 l 610 -118 q 522 -247 581 -206 q 389 -287 463 -287 z "},"ĥ":{"ha":779,"x_min":-37,"x_max":669,"o":"m 426 690 q 669 429 669 690 l 669 0 l 585 0 l 585 424 q 544 569 585 524 q 417 615 504 615 q 256 554 317 615 q 196 390 196 493 l 196 0 l 111 0 l 111 979 l 196 979 l 196 561 q 288 657 228 624 q 426 690 349 690 m 49 1063 l -37 1063 l 122 1271 l 186 1271 l 346 1063 l 260 1063 l 154 1213 l 49 1063 z "},"ḥ":{"ha":779,"x_min":111,"x_max":669,"o":"m 426 690 q 669 429 669 690 l 669 0 l 585 0 l 585 424 q 544 569 585 524 q 417 615 504 615 q 256 554 317 615 q 196 390 196 493 l 196 0 l 111 0 l 111 979 l 196 979 l 196 561 q 288 657 228 624 q 426 690 349 690 m 335 -140 l 443 -140 l 443 -247 l 335 -247 l 335 -140 z "},"i":{"ha":308,"x_min":99,"x_max":210,"o":"m 111 0 l 111 674 l 196 674 l 196 0 l 111 0 m 99 958 l 210 958 l 210 851 l 99 851 l 99 958 z "},"ı":{"ha":308,"x_min":111,"x_max":196,"o":"m 111 0 l 111 674 l 196 674 l 196 0 l 111 0 z "},"í":{"ha":308,"x_min":111,"x_max":368,"o":"m 111 0 l 111 674 l 196 674 l 196 0 l 111 0 m 186 764 l 122 764 l 261 1043 l 368 1043 l 186 764 z "},"ĭ":{"ha":308,"x_min":-67,"x_max":375,"o":"m 111 0 l 111 674 l 196 674 l 196 0 l 111 0 m 154 810 q 22 850 81 810 q -67 976 -36 890 l -3 1004 q 66 907 28 936 q 154 878 104 878 q 242 907 204 878 q 311 1004 281 936 l 375 978 q 287 851 346 892 q 154 810 228 810 z "},"î":{"ha":308,"x_min":-37,"x_max":346,"o":"m 111 0 l 111 674 l 196 674 l 196 0 l 111 0 m 49 764 l -37 764 l 121 1043 l 188 1043 l 346 764 l 260 764 l 154 974 l 49 764 z "},"ȉ":{"ha":308,"x_min":-60,"x_max":258,"o":"m 111 0 l 111 674 l 196 674 l 196 0 l 111 0 m 50 764 l -60 1043 l 29 1043 l 97 764 l 50 764 m 211 764 l 101 1043 l 190 1043 l 258 764 l 211 764 z "},"ï":{"ha":308,"x_min":-12,"x_max":321,"o":"m 111 0 l 111 674 l 196 674 l 196 0 l 111 0 m -12 956 l 92 956 l 92 854 l -12 854 l -12 956 m 217 956 l 321 956 l 321 854 l 217 854 l 217 956 z "},"ḯ":{"ha":308,"x_min":-12,"x_max":368,"o":"m 111 0 l 111 674 l 196 674 l 196 0 l 111 0 m -12 956 l 92 956 l 92 854 l -12 854 l -12 956 m 217 956 l 321 956 l 321 854 l 217 854 l 217 956 m 186 1033 l 122 1033 l 261 1313 l 368 1313 l 186 1033 z "},"ị":{"ha":308,"x_min":99,"x_max":210,"o":"m 111 0 l 111 674 l 196 674 l 196 0 l 111 0 m 99 958 l 210 958 l 210 851 l 99 851 l 99 958 m 99 -140 l 207 -140 l 207 -247 l 99 -247 l 99 -140 z "},"ì":{"ha":308,"x_min":-60,"x_max":196,"o":"m 111 0 l 111 674 l 196 674 l 196 0 l 111 0 m 122 764 l -60 1043 l 47 1043 l 186 764 l 122 764 z "},"ỉ":{"ha":308,"x_min":51,"x_max":294,"o":"m 111 0 l 111 674 l 196 674 l 196 0 l 111 0 m 189 764 l 125 764 l 125 804 q 139 852 125 832 q 179 897 153 872 q 206 926 197 914 q 215 951 215 939 q 199 977 215 968 q 156 986 183 986 q 71 969 115 986 l 51 1025 q 161 1049 103 1049 q 258 1023 222 1049 q 294 957 294 997 q 281 906 294 925 q 239 864 267 888 q 201 828 214 844 q 189 786 189 811 l 189 764 z "},"ȋ":{"ha":308,"x_min":-67,"x_max":375,"o":"m 111 0 l 111 674 l 196 674 l 196 0 l 111 0 m 154 1003 q 286 962 228 1003 q 375 835 344 921 l 311 807 q 243 904 282 875 q 154 933 204 933 q 65 904 104 933 q -3 807 26 875 l -67 833 q 22 962 -37 921 q 154 1003 81 1003 z "},"ī":{"ha":308,"x_min":-51,"x_max":360,"o":"m 111 0 l 111 674 l 196 674 l 196 0 l 111 0 m -51 869 l -51 940 l 360 940 l 360 869 l -51 869 z "},"į":{"ha":308,"x_min":-11,"x_max":261,"o":"m 210 958 l 210 851 l 99 851 l 99 958 l 210 958 m 261 -235 q 147 -265 214 -265 q 33 -225 76 -265 q -11 -122 -11 -185 q 20 -27 -11 -69 q 111 38 51 15 l 111 674 l 196 674 l 196 0 l 190 0 q 97 -33 131 0 q 63 -112 63 -65 q 88 -179 63 -156 q 157 -203 114 -203 q 239 -178 196 -203 l 261 -235 z "},"ĩ":{"ha":308,"x_min":-64,"x_max":372,"o":"m 111 0 l 111 674 l 196 674 l 196 0 l 111 0 m -64 835 q -33 942 -64 903 q 53 981 -1 981 q 110 968 82 981 q 171 935 138 956 q 219 908 203 915 q 253 900 236 900 q 301 922 283 900 q 318 976 318 944 l 372 976 q 341 869 372 908 q 256 831 310 831 q 199 843 226 831 q 138 876 171 856 q 89 903 106 896 q 56 911 72 911 q 8 889 25 911 q -10 835 -10 867 l -64 835 z "},"j":{"ha":308,"x_min":-106,"x_max":210,"o":"m 196 -4 q -36 -250 196 -235 l -97 -254 l -106 -186 l -44 -182 q 72 -133 32 -176 q 111 -12 111 -90 l 111 674 l 196 674 l 196 -4 m 99 958 l 210 958 l 210 851 l 99 851 l 99 958 z "},"ȷ":{"ha":308,"x_min":-106,"x_max":196,"o":"m 196 -4 q -36 -250 196 -235 l -97 -254 l -106 -186 l -44 -182 q 72 -133 32 -176 q 111 -12 111 -90 l 111 674 l 196 674 l 196 -4 z "},"ĵ":{"ha":308,"x_min":-106,"x_max":346,"o":"m 196 -4 q -36 -250 196 -235 l -97 -254 l -106 -186 l -44 -182 q 72 -133 32 -176 q 111 -12 111 -90 l 111 674 l 196 674 l 196 -4 m 49 764 l -37 764 l 121 1043 l 188 1043 l 346 764 l 260 764 l 154 974 l 49 764 z "},"k":{"ha":672,"x_min":111,"x_max":678,"o":"m 678 0 l 564 0 l 196 328 l 196 0 l 111 0 l 111 979 l 196 979 l 196 363 l 531 674 l 640 674 l 290 350 l 678 0 z "},"ķ":{"ha":672,"x_min":111,"x_max":678,"o":"m 678 0 l 564 0 l 196 328 l 196 0 l 111 0 l 111 979 l 196 979 l 196 363 l 531 674 l 640 674 l 290 350 l 678 0 m 394 -103 l 394 -181 q 379 -275 394 -233 q 328 -354 364 -317 l 283 -321 q 322 -264 311 -290 q 333 -204 332 -237 l 278 -204 l 278 -103 l 394 -103 z "},"ĸ":{"ha":672,"x_min":111,"x_max":678,"o":"m 678 0 l 564 0 l 196 328 l 196 0 l 111 0 l 111 674 l 196 674 l 196 363 l 531 674 l 640 674 l 290 350 l 678 0 z "},"l":{"ha":308,"x_min":111,"x_max":196,"o":"m 111 0 l 111 979 l 196 979 l 196 0 l 111 0 z "},"ĺ":{"ha":308,"x_min":111,"x_max":364,"o":"m 111 0 l 111 979 l 196 979 l 196 0 l 111 0 m 186 1063 l 122 1063 l 261 1271 l 364 1271 l 186 1063 z "},"ľ":{"ha":308,"x_min":111,"x_max":333,"o":"m 111 0 l 111 979 l 196 979 l 196 0 l 111 0 m 297 717 l 249 717 l 249 979 l 333 979 l 297 717 z "},"ļ":{"ha":308,"x_min":96,"x_max":213,"o":"m 111 0 l 111 979 l 196 979 l 196 0 l 111 0 m 213 -103 l 213 -181 q 197 -275 213 -233 q 146 -354 182 -317 l 101 -321 q 140 -264 129 -290 q 151 -204 150 -237 l 96 -204 l 96 -103 l 213 -103 z "},"ŀ":{"ha":318,"x_min":111,"x_max":371,"o":"m 111 0 l 111 979 l 196 979 l 196 0 l 111 0 m 253 546 l 371 546 l 371 435 l 253 435 l 253 546 z "},"ḷ":{"ha":308,"x_min":100,"x_max":208,"o":"m 111 0 l 111 979 l 196 979 l 196 0 l 111 0 m 100 -140 l 208 -140 l 208 -247 l 100 -247 l 100 -140 z "},"ǉ":{"ha":617,"x_min":111,"x_max":518,"o":"m 111 0 l 111 979 l 196 979 l 196 0 l 111 0 m 504 -4 q 272 -250 504 -235 l 211 -254 l 203 -186 l 264 -182 q 380 -133 340 -176 q 419 -12 419 -90 l 419 674 l 504 674 l 504 -4 m 407 958 l 518 958 l 518 851 l 407 851 l 407 958 z "},"ḻ":{"ha":308,"x_min":-51,"x_max":360,"o":"m 111 0 l 111 979 l 196 979 l 196 0 l 111 0 m -51 -229 l -51 -158 l 360 -158 l 360 -229 l -51 -229 z "},"ł":{"ha":365,"x_min":-7,"x_max":372,"o":"m 372 563 l 225 478 l 225 0 l 140 0 l 140 429 l 29 365 l -7 428 l 140 514 l 140 979 l 225 979 l 225 563 l 335 626 l 372 563 z "},"m":{"ha":1171,"x_min":111,"x_max":1063,"o":"m 839 690 q 1063 429 1063 690 l 1063 0 l 978 0 l 978 424 q 942 570 978 525 q 826 615 906 615 q 683 554 736 615 q 629 389 629 493 l 629 0 l 544 0 l 544 424 q 508 570 544 525 q 393 615 472 615 q 249 554 303 615 q 196 389 196 493 l 196 0 l 111 0 l 111 674 l 194 674 l 194 563 q 278 658 224 625 q 406 690 333 690 q 613 557 568 690 q 701 655 642 619 q 839 690 761 690 z "},"ṃ":{"ha":1171,"x_min":111,"x_max":1063,"o":"m 839 690 q 1063 429 1063 690 l 1063 0 l 978 0 l 978 424 q 942 570 978 525 q 826 615 906 615 q 683 554 736 615 q 629 389 629 493 l 629 0 l 544 0 l 544 424 q 508 570 544 525 q 393 615 472 615 q 249 554 303 615 q 196 389 196 493 l 196 0 l 111 0 l 111 674 l 194 674 l 194 563 q 278 658 224 625 q 406 690 333 690 q 613 557 568 690 q 701 655 642 619 q 839 690 761 690 m 533 -140 l 642 -140 l 642 -247 l 533 -247 l 533 -140 z "},"n":{"ha":779,"x_min":111,"x_max":669,"o":"m 426 690 q 669 429 669 690 l 669 0 l 585 0 l 585 424 q 544 569 585 524 q 417 615 504 615 q 256 554 317 615 q 196 390 196 493 l 196 0 l 111 0 l 111 674 l 194 674 l 194 558 q 287 656 226 622 q 426 690 347 690 z "},"ń":{"ha":779,"x_min":111,"x_max":669,"o":"m 426 690 q 669 429 669 690 l 669 0 l 585 0 l 585 424 q 544 569 585 524 q 417 615 504 615 q 256 554 317 615 q 196 390 196 493 l 196 0 l 111 0 l 111 674 l 194 674 l 194 558 q 287 656 226 622 q 426 690 347 690 m 421 764 l 357 764 l 496 1043 l 603 1043 l 421 764 z "},"ŉ":{"ha":779,"x_min":111,"x_max":669,"o":"m 263 1044 l 263 967 q 247 872 263 914 q 196 793 232 831 l 151 826 q 189 883 178 856 q 201 942 200 911 l 146 942 l 146 1044 l 263 1044 m 426 690 q 669 429 669 690 l 669 0 l 585 0 l 585 424 q 544 569 585 524 q 417 615 504 615 q 256 554 317 615 q 196 390 196 493 l 196 0 l 111 0 l 111 674 l 194 674 l 194 558 q 287 656 226 622 q 426 690 347 690 z "},"ň":{"ha":779,"x_min":111,"x_max":669,"o":"m 426 690 q 669 429 669 690 l 669 0 l 585 0 l 585 424 q 544 569 585 524 q 417 615 504 615 q 256 554 317 615 q 196 390 196 493 l 196 0 l 111 0 l 111 674 l 194 674 l 194 558 q 287 656 226 622 q 426 690 347 690 m 494 1043 l 581 1043 l 422 764 l 356 764 l 197 1043 l 283 1043 l 389 833 l 494 1043 z "},"ņ":{"ha":779,"x_min":111,"x_max":669,"o":"m 426 690 q 669 429 669 690 l 669 0 l 585 0 l 585 424 q 544 569 585 524 q 417 615 504 615 q 256 554 317 615 q 196 390 196 493 l 196 0 l 111 0 l 111 674 l 194 674 l 194 558 q 287 656 226 622 q 426 690 347 690 m 447 -103 l 447 -181 q 432 -275 447 -233 q 381 -354 417 -317 l 336 -321 q 374 -264 364 -290 q 386 -204 385 -237 l 331 -204 l 331 -103 l 447 -103 z "},"ṅ":{"ha":779,"x_min":111,"x_max":669,"o":"m 426 690 q 669 429 669 690 l 669 0 l 585 0 l 585 424 q 544 569 585 524 q 417 615 504 615 q 256 554 317 615 q 196 390 196 493 l 196 0 l 111 0 l 111 674 l 194 674 l 194 558 q 287 656 226 622 q 426 690 347 690 m 333 958 l 444 958 l 444 851 l 333 851 l 333 958 z "},"ṇ":{"ha":779,"x_min":111,"x_max":669,"o":"m 426 690 q 669 429 669 690 l 669 0 l 585 0 l 585 424 q 544 569 585 524 q 417 615 504 615 q 256 554 317 615 q 196 390 196 493 l 196 0 l 111 0 l 111 674 l 194 674 l 194 558 q 287 656 226 622 q 426 690 347 690 m 335 -140 l 443 -140 l 443 -247 l 335 -247 l 335 -140 z "},"ŋ":{"ha":779,"x_min":111,"x_max":669,"o":"m 426 690 q 669 429 669 690 l 669 -4 q 438 -250 669 -235 l 376 -254 l 369 -186 l 429 -182 q 585 -12 585 -172 l 585 424 q 543 572 585 528 q 417 615 501 615 q 258 556 319 615 q 196 390 196 497 l 196 0 l 111 0 l 111 674 l 194 674 l 194 560 q 287 657 226 624 q 426 690 347 690 z "},"ǌ":{"ha":1088,"x_min":111,"x_max":989,"o":"m 426 690 q 669 429 669 690 l 669 0 l 585 0 l 585 424 q 544 569 585 524 q 417 615 504 615 q 256 554 317 615 q 196 390 196 493 l 196 0 l 111 0 l 111 674 l 194 674 l 194 558 q 287 656 226 622 q 426 690 347 690 m 975 -4 q 743 -250 975 -235 l 682 -254 l 674 -186 l 735 -182 q 851 -133 811 -176 q 890 -12 890 -90 l 890 674 l 975 674 l 975 -4 m 878 958 l 989 958 l 989 851 l 878 851 l 878 958 z "},"ṉ":{"ha":779,"x_min":111,"x_max":669,"o":"m 426 690 q 669 429 669 690 l 669 0 l 585 0 l 585 424 q 544 569 585 524 q 417 615 504 615 q 256 554 317 615 q 196 390 196 493 l 196 0 l 111 0 l 111 674 l 194 674 l 194 558 q 287 656 226 622 q 426 690 347 690 m 183 -229 l 183 -158 l 594 -158 l 594 -229 l 183 -229 z "},"ñ":{"ha":779,"x_min":111,"x_max":669,"o":"m 426 690 q 669 429 669 690 l 669 0 l 585 0 l 585 424 q 544 569 585 524 q 417 615 504 615 q 256 554 317 615 q 196 390 196 493 l 196 0 l 111 0 l 111 674 l 194 674 l 194 558 q 287 656 226 622 q 426 690 347 690 m 171 835 q 202 942 171 903 q 288 981 233 981 q 344 968 317 981 q 406 935 372 956 q 454 908 438 915 q 488 900 471 900 q 535 922 518 900 q 553 976 553 944 l 607 976 q 576 869 607 908 q 490 831 544 831 q 433 843 461 831 q 372 876 406 856 q 324 903 340 896 q 290 911 307 911 q 242 889 260 911 q 225 835 225 867 l 171 835 z "},"o":{"ha":757,"x_min":68,"x_max":689,"o":"m 379 -10 q 216 33 286 -10 q 107 156 146 76 q 68 340 68 235 q 107 525 68 446 q 216 647 146 604 q 379 690 286 690 q 542 647 471 690 q 651 525 613 604 q 689 340 689 446 q 651 156 689 235 q 542 33 613 76 q 379 -10 471 -10 m 378 65 q 543 136 485 65 q 601 340 601 207 q 542 544 601 471 q 379 617 483 617 q 215 544 274 617 q 157 340 157 471 q 214 136 157 207 q 378 65 271 65 z "},"ó":{"ha":757,"x_min":68,"x_max":689,"o":"m 379 -10 q 216 33 286 -10 q 107 156 146 76 q 68 340 68 235 q 107 525 68 446 q 216 647 146 604 q 379 690 286 690 q 542 647 471 690 q 651 525 613 604 q 689 340 689 446 q 651 156 689 235 q 542 33 613 76 q 379 -10 471 -10 m 378 65 q 543 136 485 65 q 601 340 601 207 q 542 544 601 471 q 379 617 483 617 q 215 544 274 617 q 157 340 157 471 q 214 136 157 207 q 378 65 271 65 m 411 764 l 347 764 l 486 1043 l 593 1043 l 411 764 z "},"ŏ":{"ha":757,"x_min":68,"x_max":689,"o":"m 379 -10 q 216 33 286 -10 q 107 156 146 76 q 68 340 68 235 q 107 525 68 446 q 216 647 146 604 q 379 690 286 690 q 542 647 471 690 q 651 525 613 604 q 689 340 689 446 q 651 156 689 235 q 542 33 613 76 q 379 -10 471 -10 m 378 65 q 543 136 485 65 q 601 340 601 207 q 542 544 601 471 q 379 617 483 617 q 215 544 274 617 q 157 340 157 471 q 214 136 157 207 q 378 65 271 65 m 379 810 q 247 850 306 810 q 158 976 189 890 l 222 1004 q 291 907 253 936 q 379 878 329 878 q 467 907 429 878 q 536 1004 506 936 l 600 978 q 512 851 571 892 q 379 810 453 810 z "},"ô":{"ha":757,"x_min":68,"x_max":689,"o":"m 379 -10 q 216 33 286 -10 q 107 156 146 76 q 68 340 68 235 q 107 525 68 446 q 216 647 146 604 q 379 690 286 690 q 542 647 471 690 q 651 525 613 604 q 689 340 689 446 q 651 156 689 235 q 542 33 613 76 q 379 -10 471 -10 m 378 65 q 543 136 485 65 q 601 340 601 207 q 542 544 601 471 q 379 617 483 617 q 215 544 274 617 q 157 340 157 471 q 214 136 157 207 q 378 65 271 65 m 274 764 l 188 764 l 346 1043 l 413 1043 l 571 764 l 485 764 l 379 974 l 274 764 z "},"ố":{"ha":757,"x_min":68,"x_max":729,"o":"m 379 -10 q 216 33 286 -10 q 107 156 146 76 q 68 340 68 235 q 107 525 68 446 q 216 647 146 604 q 379 690 286 690 q 542 647 471 690 q 651 525 613 604 q 689 340 689 446 q 651 156 689 235 q 542 33 613 76 q 379 -10 471 -10 m 378 65 q 543 136 485 65 q 601 340 601 207 q 542 544 601 471 q 379 617 483 617 q 215 544 274 617 q 157 340 157 471 q 214 136 157 207 q 378 65 271 65 m 551 906 l 493 906 l 628 1103 l 729 1103 l 551 906 m 274 764 l 188 764 l 347 972 l 411 972 l 571 764 l 485 764 l 379 914 l 274 764 z "},"ộ":{"ha":757,"x_min":68,"x_max":689,"o":"m 379 -10 q 216 33 286 -10 q 107 156 146 76 q 68 340 68 235 q 107 525 68 446 q 216 647 146 604 q 379 690 286 690 q 542 647 471 690 q 651 525 613 604 q 689 340 689 446 q 651 156 689 235 q 542 33 613 76 q 379 -10 471 -10 m 378 65 q 543 136 485 65 q 601 340 601 207 q 542 544 601 471 q 379 617 483 617 q 215 544 274 617 q 157 340 157 471 q 214 136 157 207 q 378 65 271 65 m 325 -140 l 433 -140 l 433 -247 l 325 -247 l 325 -140 m 274 764 l 188 764 l 346 1043 l 413 1043 l 571 764 l 485 764 l 379 974 l 274 764 z "},"ồ":{"ha":757,"x_min":68,"x_max":689,"o":"m 379 -10 q 216 33 286 -10 q 107 156 146 76 q 68 340 68 235 q 107 525 68 446 q 216 647 146 604 q 379 690 286 690 q 542 647 471 690 q 651 525 613 604 q 689 340 689 446 q 651 156 689 235 q 542 33 613 76 q 379 -10 471 -10 m 378 65 q 543 136 485 65 q 601 340 601 207 q 542 544 601 471 q 379 617 483 617 q 215 544 274 617 q 157 340 157 471 q 214 136 157 207 q 378 65 271 65 m 553 906 l 401 1103 l 503 1103 l 611 906 l 553 906 m 274 764 l 188 764 l 347 972 l 411 972 l 571 764 l 485 764 l 379 914 l 274 764 z "},"ổ":{"ha":757,"x_min":68,"x_max":689,"o":"m 379 -10 q 216 33 286 -10 q 107 156 146 76 q 68 340 68 235 q 107 525 68 446 q 216 647 146 604 q 379 690 286 690 q 542 647 471 690 q 651 525 613 604 q 689 340 689 446 q 651 156 689 235 q 542 33 613 76 q 379 -10 471 -10 m 378 65 q 543 136 485 65 q 601 340 601 207 q 542 544 601 471 q 379 617 483 617 q 215 544 274 617 q 157 340 157 471 q 214 136 157 207 q 378 65 271 65 m 557 906 l 492 906 l 492 928 q 507 965 492 951 q 550 989 522 978 q 578 1003 569 997 q 586 1019 586 1010 q 570 1040 586 1033 q 526 1047 554 1047 q 440 1031 485 1047 l 421 1086 q 529 1110 475 1110 q 628 1085 592 1110 q 664 1021 664 1061 q 649 985 664 997 q 603 957 633 972 q 569 939 581 947 q 557 918 557 931 l 557 906 m 274 764 l 188 764 l 347 972 l 411 972 l 571 764 l 485 764 l 379 914 l 274 764 z "},"ỗ":{"ha":757,"x_min":68,"x_max":689,"o":"m 379 -10 q 216 33 286 -10 q 107 156 146 76 q 68 340 68 235 q 107 525 68 446 q 216 647 146 604 q 379 690 286 690 q 542 647 471 690 q 651 525 613 604 q 689 340 689 446 q 651 156 689 235 q 542 33 613 76 q 379 -10 471 -10 m 378 65 q 543 136 485 65 q 601 340 601 207 q 542 544 601 471 q 379 617 483 617 q 215 544 274 617 q 157 340 157 471 q 214 136 157 207 q 378 65 271 65 m 161 992 q 193 1088 161 1051 q 278 1125 225 1125 q 333 1116 307 1125 q 396 1089 360 1107 q 442 1068 424 1075 q 478 1061 461 1061 q 526 1083 508 1061 q 543 1129 543 1104 l 597 1129 q 565 1032 597 1069 q 481 994 533 994 q 425 1003 451 994 q 363 1031 399 1013 q 316 1051 335 1044 q 281 1058 297 1058 q 233 1038 250 1058 q 215 992 215 1017 l 161 992 m 274 764 l 188 764 l 347 972 l 411 972 l 571 764 l 485 764 l 379 914 l 274 764 z "},"ȍ":{"ha":757,"x_min":68,"x_max":689,"o":"m 379 -10 q 216 33 286 -10 q 107 156 146 76 q 68 340 68 235 q 107 525 68 446 q 216 647 146 604 q 379 690 286 690 q 542 647 471 690 q 651 525 613 604 q 689 340 689 446 q 651 156 689 235 q 542 33 613 76 q 379 -10 471 -10 m 378 65 q 543 136 485 65 q 601 340 601 207 q 542 544 601 471 q 379 617 483 617 q 215 544 274 617 q 157 340 157 471 q 214 136 157 207 q 378 65 271 65 m 275 764 l 165 1043 l 254 1043 l 322 764 l 275 764 m 436 764 l 326 1043 l 415 1043 l 483 764 l 436 764 z "},"ö":{"ha":757,"x_min":68,"x_max":689,"o":"m 379 -10 q 216 33 286 -10 q 107 156 146 76 q 68 340 68 235 q 107 525 68 446 q 216 647 146 604 q 379 690 286 690 q 542 647 471 690 q 651 525 613 604 q 689 340 689 446 q 651 156 689 235 q 542 33 613 76 q 379 -10 471 -10 m 378 65 q 543 136 485 65 q 601 340 601 207 q 542 544 601 471 q 379 617 483 617 q 215 544 274 617 q 157 340 157 471 q 214 136 157 207 q 378 65 271 65 m 213 956 l 317 956 l 317 854 l 213 854 l 213 956 m 442 956 l 546 956 l 546 854 l 442 854 l 442 956 z "},"ȫ":{"ha":757,"x_min":68,"x_max":689,"o":"m 379 -10 q 216 33 286 -10 q 107 156 146 76 q 68 340 68 235 q 107 525 68 446 q 216 647 146 604 q 379 690 286 690 q 542 647 471 690 q 651 525 613 604 q 689 340 689 446 q 651 156 689 235 q 542 33 613 76 q 379 -10 471 -10 m 378 65 q 543 136 485 65 q 601 340 601 207 q 542 544 601 471 q 379 617 483 617 q 215 544 274 617 q 157 340 157 471 q 214 136 157 207 q 378 65 271 65 m 213 956 l 317 956 l 317 854 l 213 854 l 213 956 m 442 956 l 546 956 l 546 854 l 442 854 l 442 956 m 174 1139 l 174 1210 l 585 1210 l 585 1139 l 174 1139 z "},"ȱ":{"ha":757,"x_min":68,"x_max":689,"o":"m 379 -10 q 216 33 286 -10 q 107 156 146 76 q 68 340 68 235 q 107 525 68 446 q 216 647 146 604 q 379 690 286 690 q 542 647 471 690 q 651 525 613 604 q 689 340 689 446 q 651 156 689 235 q 542 33 613 76 q 379 -10 471 -10 m 378 65 q 543 136 485 65 q 601 340 601 207 q 542 544 601 471 q 379 617 483 617 q 215 544 274 617 q 157 340 157 471 q 214 136 157 207 q 378 65 271 65 m 324 958 l 435 958 l 435 851 l 324 851 l 324 958 m 174 1139 l 174 1210 l 585 1210 l 585 1139 l 174 1139 z "},"ọ":{"ha":757,"x_min":68,"x_max":689,"o":"m 379 -10 q 216 33 286 -10 q 107 156 146 76 q 68 340 68 235 q 107 525 68 446 q 216 647 146 604 q 379 690 286 690 q 542 647 471 690 q 651 525 613 604 q 689 340 689 446 q 651 156 689 235 q 542 33 613 76 q 379 -10 471 -10 m 378 65 q 543 136 485 65 q 601 340 601 207 q 542 544 601 471 q 379 617 483 617 q 215 544 274 617 q 157 340 157 471 q 214 136 157 207 q 378 65 271 65 m 325 -140 l 433 -140 l 433 -247 l 325 -247 l 325 -140 z "},"ò":{"ha":757,"x_min":68,"x_max":689,"o":"m 379 -10 q 216 33 286 -10 q 107 156 146 76 q 68 340 68 235 q 107 525 68 446 q 216 647 146 604 q 379 690 286 690 q 542 647 471 690 q 651 525 613 604 q 689 340 689 446 q 651 156 689 235 q 542 33 613 76 q 379 -10 471 -10 m 378 65 q 543 136 485 65 q 601 340 601 207 q 542 544 601 471 q 379 617 483 617 q 215 544 274 617 q 157 340 157 471 q 214 136 157 207 q 378 65 271 65 m 347 764 l 165 1043 l 272 1043 l 411 764 l 347 764 z "},"ỏ":{"ha":757,"x_min":68,"x_max":689,"o":"m 379 -10 q 216 33 286 -10 q 107 156 146 76 q 68 340 68 235 q 107 525 68 446 q 216 647 146 604 q 379 690 286 690 q 542 647 471 690 q 651 525 613 604 q 689 340 689 446 q 651 156 689 235 q 542 33 613 76 q 379 -10 471 -10 m 378 65 q 543 136 485 65 q 601 340 601 207 q 542 544 601 471 q 379 617 483 617 q 215 544 274 617 q 157 340 157 471 q 214 136 157 207 q 378 65 271 65 m 414 764 l 350 764 l 350 804 q 364 852 350 832 q 404 897 378 872 q 431 926 422 914 q 440 951 440 939 q 424 977 440 968 q 381 986 408 986 q 296 969 340 986 l 276 1025 q 386 1049 328 1049 q 483 1023 447 1049 q 519 957 519 997 q 506 906 519 925 q 464 864 492 888 q 426 828 439 844 q 414 786 414 811 l 414 764 z "},"ơ":{"ha":757,"x_min":68,"x_max":689,"o":"m 560 633 q 656 513 622 588 q 689 340 689 438 q 651 156 689 235 q 542 33 613 76 q 379 -10 471 -10 q 216 33 286 -10 q 107 156 146 76 q 68 340 68 235 q 106 525 68 446 q 215 647 144 604 q 378 690 286 690 q 436 686 382 690 q 475 682 460 682 q 576 719 544 682 q 608 838 608 756 l 608 856 l 686 856 l 686 824 q 653 702 686 751 q 560 633 621 653 m 378 65 q 543 136 485 65 q 601 340 601 207 q 542 544 601 471 q 379 617 483 617 q 215 544 274 617 q 157 340 157 471 q 214 136 157 207 q 378 65 271 65 z "},"ớ":{"ha":757,"x_min":68,"x_max":689,"o":"m 560 633 q 656 513 622 588 q 689 340 689 438 q 651 156 689 235 q 542 33 613 76 q 379 -10 471 -10 q 216 33 286 -10 q 107 156 146 76 q 68 340 68 235 q 106 525 68 446 q 215 647 144 604 q 378 690 286 690 q 436 686 382 690 q 475 682 460 682 q 576 719 544 682 q 608 838 608 756 l 608 856 l 686 856 l 686 824 q 653 702 686 751 q 560 633 621 653 m 378 65 q 543 136 485 65 q 601 340 601 207 q 542 544 601 471 q 379 617 483 617 q 215 544 274 617 q 157 340 157 471 q 214 136 157 207 q 378 65 271 65 m 411 764 l 347 764 l 486 1043 l 593 1043 l 411 764 z "},"ợ":{"ha":757,"x_min":68,"x_max":689,"o":"m 560 633 q 656 513 622 588 q 689 340 689 438 q 651 156 689 235 q 542 33 613 76 q 379 -10 471 -10 q 216 33 286 -10 q 107 156 146 76 q 68 340 68 235 q 106 525 68 446 q 215 647 144 604 q 378 690 286 690 q 436 686 382 690 q 475 682 460 682 q 576 719 544 682 q 608 838 608 756 l 608 856 l 686 856 l 686 824 q 653 702 686 751 q 560 633 621 653 m 378 65 q 543 136 485 65 q 601 340 601 207 q 542 544 601 471 q 379 617 483 617 q 215 544 274 617 q 157 340 157 471 q 214 136 157 207 q 378 65 271 65 m 325 -140 l 433 -140 l 433 -247 l 325 -247 l 325 -140 z "},"ờ":{"ha":757,"x_min":68,"x_max":689,"o":"m 560 633 q 656 513 622 588 q 689 340 689 438 q 651 156 689 235 q 542 33 613 76 q 379 -10 471 -10 q 216 33 286 -10 q 107 156 146 76 q 68 340 68 235 q 106 525 68 446 q 215 647 144 604 q 378 690 286 690 q 436 686 382 690 q 475 682 460 682 q 576 719 544 682 q 608 838 608 756 l 608 856 l 686 856 l 686 824 q 653 702 686 751 q 560 633 621 653 m 378 65 q 543 136 485 65 q 601 340 601 207 q 542 544 601 471 q 379 617 483 617 q 215 544 274 617 q 157 340 157 471 q 214 136 157 207 q 378 65 271 65 m 347 764 l 165 1043 l 272 1043 l 411 764 l 347 764 z "},"ở":{"ha":757,"x_min":68,"x_max":689,"o":"m 560 633 q 656 513 622 588 q 689 340 689 438 q 651 156 689 235 q 542 33 613 76 q 379 -10 471 -10 q 216 33 286 -10 q 107 156 146 76 q 68 340 68 235 q 106 525 68 446 q 215 647 144 604 q 378 690 286 690 q 436 686 382 690 q 475 682 460 682 q 576 719 544 682 q 608 838 608 756 l 608 856 l 686 856 l 686 824 q 653 702 686 751 q 560 633 621 653 m 378 65 q 543 136 485 65 q 601 340 601 207 q 542 544 601 471 q 379 617 483 617 q 215 544 274 617 q 157 340 157 471 q 214 136 157 207 q 378 65 271 65 m 414 764 l 350 764 l 350 804 q 364 852 350 832 q 404 897 378 872 q 431 926 422 914 q 440 951 440 939 q 424 977 440 968 q 381 986 408 986 q 296 969 340 986 l 276 1025 q 386 1049 328 1049 q 483 1023 447 1049 q 519 957 519 997 q 506 906 519 925 q 464 864 492 888 q 426 828 439 844 q 414 786 414 811 l 414 764 z "},"ỡ":{"ha":757,"x_min":68,"x_max":689,"o":"m 560 633 q 656 513 622 588 q 689 340 689 438 q 651 156 689 235 q 542 33 613 76 q 379 -10 471 -10 q 216 33 286 -10 q 107 156 146 76 q 68 340 68 235 q 106 525 68 446 q 215 647 144 604 q 378 690 286 690 q 436 686 382 690 q 475 682 460 682 q 576 719 544 682 q 608 838 608 756 l 608 856 l 686 856 l 686 824 q 653 702 686 751 q 560 633 621 653 m 378 65 q 543 136 485 65 q 601 340 601 207 q 542 544 601 471 q 379 617 483 617 q 215 544 274 617 q 157 340 157 471 q 214 136 157 207 q 378 65 271 65 m 161 835 q 192 942 161 903 q 278 981 224 981 q 335 968 307 981 q 396 935 363 956 q 444 908 428 915 q 478 900 461 900 q 526 922 508 900 q 543 976 543 944 l 597 976 q 566 869 597 908 q 481 831 535 831 q 424 843 451 831 q 363 876 396 856 q 314 903 331 896 q 281 911 297 911 q 233 889 250 911 q 215 835 215 867 l 161 835 z "},"ő":{"ha":757,"x_min":68,"x_max":689,"o":"m 379 -10 q 216 33 286 -10 q 107 156 146 76 q 68 340 68 235 q 107 525 68 446 q 216 647 146 604 q 379 690 286 690 q 542 647 471 690 q 651 525 613 604 q 689 340 689 446 q 651 156 689 235 q 542 33 613 76 q 379 -10 471 -10 m 378 65 q 543 136 485 65 q 601 340 601 207 q 542 544 601 471 q 379 617 483 617 q 215 544 274 617 q 157 340 157 471 q 214 136 157 207 q 378 65 271 65 m 322 764 l 275 764 l 343 1043 l 432 1043 l 322 764 m 483 764 l 436 764 l 504 1043 l 593 1043 l 483 764 z "},"ȏ":{"ha":757,"x_min":68,"x_max":689,"o":"m 379 -10 q 216 33 286 -10 q 107 156 146 76 q 68 340 68 235 q 107 525 68 446 q 216 647 146 604 q 379 690 286 690 q 542 647 471 690 q 651 525 613 604 q 689 340 689 446 q 651 156 689 235 q 542 33 613 76 q 379 -10 471 -10 m 378 65 q 543 136 485 65 q 601 340 601 207 q 542 544 601 471 q 379 617 483 617 q 215 544 274 617 q 157 340 157 471 q 214 136 157 207 q 378 65 271 65 m 379 1003 q 511 962 453 1003 q 600 835 569 921 l 536 807 q 468 904 507 875 q 379 933 429 933 q 290 904 329 933 q 222 807 251 875 l 158 833 q 247 962 188 921 q 379 1003 306 1003 z "},"ō":{"ha":757,"x_min":68,"x_max":689,"o":"m 379 -10 q 216 33 286 -10 q 107 156 146 76 q 68 340 68 235 q 107 525 68 446 q 216 647 146 604 q 379 690 286 690 q 542 647 471 690 q 651 525 613 604 q 689 340 689 446 q 651 156 689 235 q 542 33 613 76 q 379 -10 471 -10 m 378 65 q 543 136 485 65 q 601 340 601 207 q 542 544 601 471 q 379 617 483 617 q 215 544 274 617 q 157 340 157 471 q 214 136 157 207 q 378 65 271 65 m 174 869 l 174 940 l 585 940 l 585 869 l 174 869 z "},"ṓ":{"ha":757,"x_min":68,"x_max":689,"o":"m 379 -10 q 216 33 286 -10 q 107 156 146 76 q 68 340 68 235 q 107 525 68 446 q 216 647 146 604 q 379 690 286 690 q 542 647 471 690 q 651 525 613 604 q 689 340 689 446 q 651 156 689 235 q 542 33 613 76 q 379 -10 471 -10 m 378 65 q 543 136 485 65 q 601 340 601 207 q 542 544 601 471 q 379 617 483 617 q 215 544 274 617 q 157 340 157 471 q 214 136 157 207 q 378 65 271 65 m 174 869 l 174 940 l 585 940 l 585 869 l 174 869 m 411 1033 l 347 1033 l 486 1313 l 593 1313 l 411 1033 z "},"ṑ":{"ha":757,"x_min":68,"x_max":689,"o":"m 379 -10 q 216 33 286 -10 q 107 156 146 76 q 68 340 68 235 q 107 525 68 446 q 216 647 146 604 q 379 690 286 690 q 542 647 471 690 q 651 525 613 604 q 689 340 689 446 q 651 156 689 235 q 542 33 613 76 q 379 -10 471 -10 m 378 65 q 543 136 485 65 q 601 340 601 207 q 542 544 601 471 q 379 617 483 617 q 215 544 274 617 q 157 340 157 471 q 214 136 157 207 q 378 65 271 65 m 174 869 l 174 940 l 585 940 l 585 869 l 174 869 m 347 1033 l 165 1313 l 272 1313 l 411 1033 l 347 1033 z "},"ǫ":{"ha":757,"x_min":68,"x_max":689,"o":"m 492 11 q 398 -39 425 -11 q 371 -112 371 -67 q 396 -178 371 -154 q 464 -203 421 -203 q 546 -178 499 -203 l 568 -235 q 454 -265 519 -265 q 340 -226 385 -265 q 296 -122 296 -186 q 343 -8 296 -53 q 143 97 218 3 q 68 340 68 192 q 107 525 68 446 q 216 647 146 604 q 379 690 286 690 q 542 647 471 690 q 651 525 613 604 q 689 340 689 446 q 637 128 689 215 q 492 11 585 40 m 157 340 q 214 136 157 207 q 378 65 271 65 q 543 136 485 65 q 601 340 601 207 q 542 544 601 471 q 379 617 483 617 q 215 544 274 617 q 157 340 157 471 z "},"ø":{"ha":757,"x_min":68,"x_max":689,"o":"m 579 619 q 660 502 632 574 q 689 340 689 431 q 651 156 689 235 q 542 33 613 76 q 379 -10 471 -10 q 233 24 299 -10 l 188 -57 l 129 -22 l 178 61 q 97 178 125 107 q 68 340 68 250 q 107 525 68 446 q 216 647 146 604 q 379 690 286 690 q 524 657 461 690 l 569 738 l 629 704 l 579 619 m 156 340 q 218 131 156 204 l 485 592 q 379 617 442 617 q 215 544 274 617 q 156 340 156 471 m 378 65 q 543 136 485 65 q 601 340 601 207 q 539 549 601 475 l 272 89 q 378 65 317 65 z "},"ǿ":{"ha":757,"x_min":68,"x_max":689,"o":"m 579 619 q 660 502 632 574 q 689 340 689 431 q 651 156 689 235 q 542 33 613 76 q 379 -10 471 -10 q 233 24 299 -10 l 188 -57 l 129 -22 l 178 61 q 97 178 125 107 q 68 340 68 250 q 107 525 68 446 q 216 647 146 604 q 379 690 286 690 q 524 657 461 690 l 569 738 l 629 704 l 579 619 m 156 340 q 218 131 156 204 l 485 592 q 379 617 442 617 q 215 544 274 617 q 156 340 156 471 m 378 65 q 543 136 485 65 q 601 340 601 207 q 539 549 601 475 l 272 89 q 378 65 317 65 m 411 764 l 347 764 l 486 1043 l 593 1043 l 411 764 z "},"õ":{"ha":757,"x_min":68,"x_max":689,"o":"m 379 -10 q 216 33 286 -10 q 107 156 146 76 q 68 340 68 235 q 107 525 68 446 q 216 647 146 604 q 379 690 286 690 q 542 647 471 690 q 651 525 613 604 q 689 340 689 446 q 651 156 689 235 q 542 33 613 76 q 379 -10 471 -10 m 378 65 q 543 136 485 65 q 601 340 601 207 q 542 544 601 471 q 379 617 483 617 q 215 544 274 617 q 157 340 157 471 q 214 136 157 207 q 378 65 271 65 m 161 835 q 192 942 161 903 q 278 981 224 981 q 335 968 307 981 q 396 935 363 956 q 444 908 428 915 q 478 900 461 900 q 526 922 508 900 q 543 976 543 944 l 597 976 q 566 869 597 908 q 481 831 535 831 q 424 843 451 831 q 363 876 396 856 q 314 903 331 896 q 281 911 297 911 q 233 889 250 911 q 215 835 215 867 l 161 835 z "},"ṍ":{"ha":757,"x_min":68,"x_max":689,"o":"m 379 -10 q 216 33 286 -10 q 107 156 146 76 q 68 340 68 235 q 107 525 68 446 q 216 647 146 604 q 379 690 286 690 q 542 647 471 690 q 651 525 613 604 q 689 340 689 446 q 651 156 689 235 q 542 33 613 76 q 379 -10 471 -10 m 378 65 q 543 136 485 65 q 601 340 601 207 q 542 544 601 471 q 379 617 483 617 q 215 544 274 617 q 157 340 157 471 q 214 136 157 207 q 378 65 271 65 m 161 835 q 192 942 161 903 q 278 981 224 981 q 335 968 307 981 q 396 935 363 956 q 444 908 428 915 q 478 900 461 900 q 526 922 508 900 q 543 976 543 944 l 597 976 q 566 869 597 908 q 481 831 535 831 q 424 843 451 831 q 363 876 396 856 q 314 903 331 896 q 281 911 297 911 q 233 889 250 911 q 215 835 215 867 l 161 835 m 411 1033 l 347 1033 l 486 1313 l 593 1313 l 411 1033 z "},"ṏ":{"ha":757,"x_min":68,"x_max":689,"o":"m 379 -10 q 216 33 286 -10 q 107 156 146 76 q 68 340 68 235 q 107 525 68 446 q 216 647 146 604 q 379 690 286 690 q 542 647 471 690 q 651 525 613 604 q 689 340 689 446 q 651 156 689 235 q 542 33 613 76 q 379 -10 471 -10 m 378 65 q 543 136 485 65 q 601 340 601 207 q 542 544 601 471 q 379 617 483 617 q 215 544 274 617 q 157 340 157 471 q 214 136 157 207 q 378 65 271 65 m 161 835 q 192 942 161 903 q 278 981 224 981 q 335 968 307 981 q 396 935 363 956 q 444 908 428 915 q 478 900 461 900 q 526 922 508 900 q 543 976 543 944 l 597 976 q 566 869 597 908 q 481 831 535 831 q 424 843 451 831 q 363 876 396 856 q 314 903 331 896 q 281 911 297 911 q 233 889 250 911 q 215 835 215 867 l 161 835 m 213 1225 l 317 1225 l 317 1124 l 213 1124 l 213 1225 m 442 1225 l 546 1225 l 546 1124 l 442 1124 l 442 1225 z "},"ȭ":{"ha":757,"x_min":68,"x_max":689,"o":"m 379 -10 q 216 33 286 -10 q 107 156 146 76 q 68 340 68 235 q 107 525 68 446 q 216 647 146 604 q 379 690 286 690 q 542 647 471 690 q 651 525 613 604 q 689 340 689 446 q 651 156 689 235 q 542 33 613 76 q 379 -10 471 -10 m 378 65 q 543 136 485 65 q 601 340 601 207 q 542 544 601 471 q 379 617 483 617 q 215 544 274 617 q 157 340 157 471 q 214 136 157 207 q 378 65 271 65 m 161 835 q 192 942 161 903 q 278 981 224 981 q 335 968 307 981 q 396 935 363 956 q 444 908 428 915 q 478 900 461 900 q 526 922 508 900 q 543 976 543 944 l 597 976 q 566 869 597 908 q 481 831 535 831 q 424 843 451 831 q 363 876 396 856 q 314 903 331 896 q 281 911 297 911 q 233 889 250 911 q 215 835 215 867 l 161 835 m 174 1139 l 174 1210 l 585 1210 l 585 1139 l 174 1139 z "},"œ":{"ha":1257,"x_min":68,"x_max":1193,"o":"m 1193 326 l 689 326 q 755 132 693 199 q 931 65 817 65 q 1149 149 1047 65 l 1182 82 q 1069 16 1138 42 q 932 -10 1000 -10 q 756 37 829 -10 q 646 169 682 83 q 542 38 611 85 q 378 -10 472 -10 q 215 33 286 -10 q 106 156 144 76 q 68 340 68 235 q 106 525 68 446 q 215 647 144 604 q 378 690 286 690 q 541 644 472 690 q 644 514 610 599 q 751 644 681 597 q 915 690 822 690 q 1119 604 1044 690 q 1193 364 1193 518 l 1193 326 m 914 621 q 760 560 818 621 q 692 389 701 499 l 1115 389 q 1060 560 1113 500 q 914 621 1007 621 m 378 65 q 542 136 485 65 q 600 340 600 207 q 542 544 600 471 q 379 617 483 617 q 215 544 274 617 q 157 340 157 471 q 214 136 157 207 q 378 65 271 65 z "},"p":{"ha":796,"x_min":111,"x_max":728,"o":"m 428 690 q 585 647 517 690 q 690 523 653 603 q 728 338 728 443 q 690 155 728 233 q 585 33 653 76 q 428 -10 517 -10 q 286 26 346 -10 q 196 129 226 61 l 196 -250 l 111 -250 l 111 674 l 196 674 l 196 551 q 286 655 226 619 q 428 690 346 690 m 415 65 q 581 137 522 65 q 640 338 640 208 q 581 543 640 469 q 417 617 522 617 q 253 544 311 617 q 196 340 196 472 q 253 137 196 208 q 415 65 310 65 z "},"þ":{"ha":796,"x_min":111,"x_max":728,"o":"m 428 690 q 582 648 514 690 q 689 526 650 606 q 728 338 728 446 q 689 151 728 229 q 582 31 650 72 q 428 -10 514 -10 q 286 26 346 -10 q 196 129 226 61 l 196 -250 l 111 -250 l 111 979 l 196 979 l 196 551 q 286 655 226 619 q 428 690 346 690 m 415 65 q 582 138 524 65 q 640 338 640 210 q 582 542 640 468 q 417 617 524 617 q 253 544 311 617 q 196 340 196 472 q 253 137 196 208 q 415 65 310 65 z "},"q":{"ha":796,"x_min":68,"x_max":685,"o":"m 685 674 l 685 -250 l 600 -250 l 600 129 q 510 26 569 61 q 368 -10 450 -10 q 211 33 279 -10 q 106 155 143 76 q 68 338 68 233 q 106 523 68 443 q 211 647 143 603 q 368 690 279 690 q 510 655 450 690 q 600 551 569 619 l 600 674 l 685 674 m 381 65 q 543 137 486 65 q 600 340 600 208 q 542 544 600 472 q 379 617 485 617 q 215 543 274 617 q 157 338 157 469 q 215 136 157 207 q 381 65 274 65 z "},"r":{"ha":471,"x_min":111,"x_max":464,"o":"m 464 617 l 404 611 q 245 540 294 600 q 196 394 196 481 l 196 0 l 111 0 l 111 674 l 194 674 l 194 556 q 281 649 225 618 q 421 688 338 681 l 457 690 l 464 617 z "},"ŕ":{"ha":471,"x_min":111,"x_max":504,"o":"m 464 617 l 404 611 q 245 540 294 600 q 196 394 196 481 l 196 0 l 111 0 l 111 674 l 194 674 l 194 556 q 281 649 225 618 q 421 688 338 681 l 457 690 l 464 617 m 322 764 l 258 764 l 397 1043 l 504 1043 l 322 764 z "},"ř":{"ha":471,"x_min":99,"x_max":482,"o":"m 464 617 l 404 611 q 245 540 294 600 q 196 394 196 481 l 196 0 l 111 0 l 111 674 l 194 674 l 194 556 q 281 649 225 618 q 421 688 338 681 l 457 690 l 464 617 m 396 1043 l 482 1043 l 324 764 l 257 764 l 99 1043 l 185 1043 l 290 833 l 396 1043 z "},"ŗ":{"ha":471,"x_min":96,"x_max":464,"o":"m 464 617 l 404 611 q 245 540 294 600 q 196 394 196 481 l 196 0 l 111 0 l 111 674 l 194 674 l 194 556 q 281 649 225 618 q 421 688 338 681 l 457 690 l 464 617 m 213 -103 l 213 -181 q 197 -275 213 -233 q 146 -354 182 -317 l 101 -321 q 140 -264 129 -290 q 151 -204 150 -237 l 96 -204 l 96 -103 l 213 -103 z "},"ȑ":{"ha":471,"x_min":76,"x_max":464,"o":"m 464 617 l 404 611 q 245 540 294 600 q 196 394 196 481 l 196 0 l 111 0 l 111 674 l 194 674 l 194 556 q 281 649 225 618 q 421 688 338 681 l 457 690 l 464 617 m 186 764 l 76 1043 l 165 1043 l 233 764 l 186 764 m 347 764 l 238 1043 l 326 1043 l 394 764 l 347 764 z "},"ṛ":{"ha":471,"x_min":100,"x_max":464,"o":"m 464 617 l 404 611 q 245 540 294 600 q 196 394 196 481 l 196 0 l 111 0 l 111 674 l 194 674 l 194 556 q 281 649 225 618 q 421 688 338 681 l 457 690 l 464 617 m 100 -140 l 208 -140 l 208 -247 l 100 -247 l 100 -140 z "},"ȓ":{"ha":471,"x_min":69,"x_max":511,"o":"m 464 617 l 404 611 q 245 540 294 600 q 196 394 196 481 l 196 0 l 111 0 l 111 674 l 194 674 l 194 556 q 281 649 225 618 q 421 688 338 681 l 457 690 l 464 617 m 290 1003 q 422 962 364 1003 q 511 835 481 921 l 447 807 q 379 904 418 875 q 290 933 340 933 q 201 904 240 933 q 133 807 163 875 l 69 833 q 158 962 99 921 q 290 1003 217 1003 z "},"ṟ":{"ha":471,"x_min":-51,"x_max":464,"o":"m 464 617 l 404 611 q 245 540 294 600 q 196 394 196 481 l 196 0 l 111 0 l 111 674 l 194 674 l 194 556 q 281 649 225 618 q 421 688 338 681 l 457 690 l 464 617 m -51 -229 l -51 -158 l 360 -158 l 360 -229 l -51 -229 z "},"s":{"ha":664,"x_min":69,"x_max":590,"o":"m 331 -10 q 69 81 171 -10 l 101 146 q 210 83 156 101 q 335 64 264 64 q 460 93 417 64 q 504 175 504 122 q 475 247 504 219 q 382 288 446 274 l 268 314 q 140 381 186 333 q 93 494 93 429 q 161 636 93 582 q 343 690 229 690 q 476 667 414 690 q 578 601 538 644 l 546 536 q 449 597 499 578 q 343 617 400 617 q 224 586 267 617 q 181 501 181 556 q 208 429 181 457 q 292 388 235 401 l 407 360 q 590 179 590 318 q 520 42 590 93 q 331 -10 450 -10 z "},"ś":{"ha":664,"x_min":69,"x_max":590,"o":"m 331 -10 q 69 81 171 -10 l 101 146 q 210 83 156 101 q 335 64 264 64 q 460 93 417 64 q 504 175 504 122 q 475 247 504 219 q 382 288 446 274 l 268 314 q 140 381 186 333 q 93 494 93 429 q 161 636 93 582 q 343 690 229 690 q 476 667 414 690 q 578 601 538 644 l 546 536 q 449 597 499 578 q 343 617 400 617 q 224 586 267 617 q 181 501 181 556 q 208 429 181 457 q 292 388 235 401 l 407 360 q 590 179 590 318 q 520 42 590 93 q 331 -10 450 -10 m 375 764 l 311 764 l 450 1043 l 557 1043 l 375 764 z "},"ṥ":{"ha":664,"x_min":69,"x_max":590,"o":"m 331 -10 q 69 81 171 -10 l 101 146 q 210 83 156 101 q 335 64 264 64 q 460 93 417 64 q 504 175 504 122 q 475 247 504 219 q 382 288 446 274 l 268 314 q 140 381 186 333 q 93 494 93 429 q 161 636 93 582 q 343 690 229 690 q 476 667 414 690 q 578 601 538 644 l 546 536 q 449 597 499 578 q 343 617 400 617 q 224 586 267 617 q 181 501 181 556 q 208 429 181 457 q 292 388 235 401 l 407 360 q 590 179 590 318 q 520 42 590 93 q 331 -10 450 -10 m 378 764 l 314 764 l 453 1043 l 560 1043 l 378 764 m 160 1044 l 271 1044 l 271 938 l 160 938 l 160 1044 z "},"š":{"ha":664,"x_min":69,"x_max":590,"o":"m 331 -10 q 69 81 171 -10 l 101 146 q 210 83 156 101 q 335 64 264 64 q 460 93 417 64 q 504 175 504 122 q 475 247 504 219 q 382 288 446 274 l 268 314 q 140 381 186 333 q 93 494 93 429 q 161 636 93 582 q 343 690 229 690 q 476 667 414 690 q 578 601 538 644 l 546 536 q 449 597 499 578 q 343 617 400 617 q 224 586 267 617 q 181 501 181 556 q 208 429 181 457 q 292 388 235 401 l 407 360 q 590 179 590 318 q 520 42 590 93 q 331 -10 450 -10 m 449 1043 l 535 1043 l 376 764 l 310 764 l 151 1043 l 238 1043 l 343 833 l 449 1043 z "},"ṧ":{"ha":664,"x_min":69,"x_max":590,"o":"m 331 -10 q 69 81 171 -10 l 101 146 q 210 83 156 101 q 335 64 264 64 q 460 93 417 64 q 504 175 504 122 q 475 247 504 219 q 382 288 446 274 l 268 314 q 140 381 186 333 q 93 494 93 429 q 161 636 93 582 q 343 690 229 690 q 476 667 414 690 q 578 601 538 644 l 546 536 q 449 597 499 578 q 343 617 400 617 q 224 586 267 617 q 181 501 181 556 q 208 429 181 457 q 292 388 235 401 l 407 360 q 590 179 590 318 q 520 42 590 93 q 331 -10 450 -10 m 449 1043 l 535 1043 l 376 764 l 310 764 l 151 1043 l 238 1043 l 343 833 l 449 1043 m 288 1228 l 399 1228 l 399 1121 l 288 1121 l 288 1228 z "},"ş":{"ha":664,"x_min":69,"x_max":590,"o":"m 590 179 q 526 46 590 97 q 350 -10 461 -6 l 344 -61 q 382 -57 364 -57 q 454 -81 424 -57 q 485 -153 485 -106 q 444 -234 485 -203 q 331 -265 403 -265 q 268 -259 301 -265 q 211 -239 235 -253 l 231 -186 q 333 -206 276 -206 q 394 -192 374 -206 q 414 -153 414 -178 q 401 -123 414 -133 q 364 -112 389 -112 q 297 -126 339 -112 l 271 -106 l 281 -7 q 69 81 153 6 l 101 146 q 210 83 156 101 q 335 64 264 64 q 460 93 417 64 q 504 175 504 122 q 475 247 504 219 q 382 288 446 274 l 268 314 q 140 381 186 333 q 93 494 93 429 q 161 636 93 582 q 343 690 229 690 q 476 667 414 690 q 578 601 538 644 l 546 536 q 449 597 499 578 q 343 617 400 617 q 224 586 267 617 q 181 501 181 556 q 208 429 181 457 q 292 388 235 401 l 407 360 q 590 179 590 318 z "},"ŝ":{"ha":664,"x_min":69,"x_max":590,"o":"m 331 -10 q 69 81 171 -10 l 101 146 q 210 83 156 101 q 335 64 264 64 q 460 93 417 64 q 504 175 504 122 q 475 247 504 219 q 382 288 446 274 l 268 314 q 140 381 186 333 q 93 494 93 429 q 161 636 93 582 q 343 690 229 690 q 476 667 414 690 q 578 601 538 644 l 546 536 q 449 597 499 578 q 343 617 400 617 q 224 586 267 617 q 181 501 181 556 q 208 429 181 457 q 292 388 235 401 l 407 360 q 590 179 590 318 q 520 42 590 93 q 331 -10 450 -10 m 238 764 l 151 764 l 310 1043 l 376 1043 l 535 764 l 449 764 l 343 974 l 238 764 z "},"ș":{"ha":664,"x_min":69,"x_max":590,"o":"m 331 -10 q 69 81 171 -10 l 101 146 q 210 83 156 101 q 335 64 264 64 q 460 93 417 64 q 504 175 504 122 q 475 247 504 219 q 382 288 446 274 l 268 314 q 140 381 186 333 q 93 494 93 429 q 161 636 93 582 q 343 690 229 690 q 476 667 414 690 q 578 601 538 644 l 546 536 q 449 597 499 578 q 343 617 400 617 q 224 586 267 617 q 181 501 181 556 q 208 429 181 457 q 292 388 235 401 l 407 360 q 590 179 590 318 q 520 42 590 93 q 331 -10 450 -10 m 388 -103 l 388 -181 q 372 -275 388 -233 q 321 -354 357 -317 l 276 -321 q 315 -264 304 -290 q 326 -204 325 -237 l 271 -204 l 271 -103 l 388 -103 z "},"ṡ":{"ha":664,"x_min":69,"x_max":590,"o":"m 331 -10 q 69 81 171 -10 l 101 146 q 210 83 156 101 q 335 64 264 64 q 460 93 417 64 q 504 175 504 122 q 475 247 504 219 q 382 288 446 274 l 268 314 q 140 381 186 333 q 93 494 93 429 q 161 636 93 582 q 343 690 229 690 q 476 667 414 690 q 578 601 538 644 l 546 536 q 449 597 499 578 q 343 617 400 617 q 224 586 267 617 q 181 501 181 556 q 208 429 181 457 q 292 388 235 401 l 407 360 q 590 179 590 318 q 520 42 590 93 q 331 -10 450 -10 m 288 958 l 399 958 l 399 851 l 288 851 l 288 958 z "},"ṣ":{"ha":664,"x_min":69,"x_max":590,"o":"m 331 -10 q 69 81 171 -10 l 101 146 q 210 83 156 101 q 335 64 264 64 q 460 93 417 64 q 504 175 504 122 q 475 247 504 219 q 382 288 446 274 l 268 314 q 140 381 186 333 q 93 494 93 429 q 161 636 93 582 q 343 690 229 690 q 476 667 414 690 q 578 601 538 644 l 546 536 q 449 597 499 578 q 343 617 400 617 q 224 586 267 617 q 181 501 181 556 q 208 429 181 457 q 292 388 235 401 l 407 360 q 590 179 590 318 q 520 42 590 93 q 331 -10 450 -10 m 275 -140 l 383 -140 l 383 -247 l 275 -247 l 275 -140 z "},"ṩ":{"ha":664,"x_min":69,"x_max":590,"o":"m 331 -10 q 69 81 171 -10 l 101 146 q 210 83 156 101 q 335 64 264 64 q 460 93 417 64 q 504 175 504 122 q 475 247 504 219 q 382 288 446 274 l 268 314 q 140 381 186 333 q 93 494 93 429 q 161 636 93 582 q 343 690 229 690 q 476 667 414 690 q 578 601 538 644 l 546 536 q 449 597 499 578 q 343 617 400 617 q 224 586 267 617 q 181 501 181 556 q 208 429 181 457 q 292 388 235 401 l 407 360 q 590 179 590 318 q 520 42 590 93 q 331 -10 450 -10 m 275 -140 l 383 -140 l 383 -247 l 275 -247 l 275 -140 m 288 958 l 399 958 l 399 851 l 288 851 l 288 958 z "},"ß":{"ha":831,"x_min":111,"x_max":785,"o":"m 111 675 q 189 903 111 821 q 406 985 267 985 q 565 939 507 985 q 624 811 624 893 q 594 712 624 753 q 510 625 564 671 q 447 563 467 588 q 428 508 428 539 q 448 451 428 474 q 499 413 468 428 q 582 379 529 399 q 688 335 647 356 q 756 276 728 314 q 785 181 785 239 q 717 43 785 96 q 539 -10 649 -10 q 403 14 468 -10 q 292 81 338 38 l 325 146 q 434 83 383 103 q 539 64 485 64 q 656 94 614 64 q 699 179 699 125 q 678 240 699 215 q 626 278 657 264 q 539 313 594 293 q 437 353 476 333 q 369 409 397 374 q 342 500 342 444 q 369 585 342 550 q 447 665 396 621 q 518 738 494 707 q 542 810 542 769 q 506 885 542 858 q 407 913 471 913 q 251 853 306 913 q 196 682 196 793 l 196 0 l 111 0 l 111 675 z "},"t":{"ha":454,"x_min":11,"x_max":444,"o":"m 385 63 q 444 67 415 63 l 440 -4 q 375 -8 410 -8 q 203 53 261 -8 q 144 222 144 115 l 144 606 l 11 606 l 11 674 l 144 674 l 144 882 l 229 882 l 229 674 l 426 674 l 426 606 l 229 606 l 229 233 q 269 106 229 149 q 385 63 308 63 z "},"ŧ":{"ha":468,"x_min":18,"x_max":451,"o":"m 392 63 q 451 67 422 63 l 447 -4 q 382 -8 417 -8 q 210 53 268 -8 q 151 222 151 115 l 151 356 l 46 356 l 46 424 l 151 424 l 151 606 l 18 606 l 18 674 l 151 674 l 151 882 l 236 882 l 236 674 l 433 674 l 433 606 l 236 606 l 236 424 l 406 424 l 406 356 l 236 356 l 236 233 q 276 106 236 149 q 392 63 315 63 z "},"ť":{"ha":454,"x_min":11,"x_max":444,"o":"m 393 979 l 357 743 l 306 743 l 306 979 l 393 979 m 385 63 q 444 67 415 63 l 440 -4 q 375 -8 410 -8 q 203 53 261 -8 q 144 222 144 115 l 144 606 l 11 606 l 11 674 l 144 674 l 144 882 l 229 882 l 229 674 l 426 674 l 426 606 l 229 606 l 229 233 q 269 106 229 149 q 385 63 308 63 z "},"ţ":{"ha":454,"x_min":11,"x_max":449,"o":"m 346 -57 q 418 -81 388 -57 q 449 -153 449 -106 q 408 -234 449 -203 q 294 -265 367 -265 q 232 -259 265 -265 q 175 -239 199 -253 l 194 -186 q 297 -206 240 -206 q 358 -192 338 -206 q 378 -153 378 -178 q 365 -123 378 -133 q 328 -112 353 -112 q 261 -126 303 -112 l 235 -106 l 247 19 q 170 99 196 47 q 144 222 144 151 l 144 606 l 11 606 l 11 674 l 144 674 l 144 882 l 229 882 l 229 674 l 426 674 l 426 606 l 229 606 l 229 233 q 269 106 229 149 q 385 63 308 63 q 444 67 415 63 l 440 -4 q 375 -8 410 -8 q 314 -3 340 -8 l 308 -61 q 346 -57 328 -57 z "},"ț":{"ha":454,"x_min":11,"x_max":444,"o":"m 385 63 q 444 67 415 63 l 440 -4 q 375 -8 410 -8 q 203 53 261 -8 q 144 222 144 115 l 144 606 l 11 606 l 11 674 l 144 674 l 144 882 l 229 882 l 229 674 l 426 674 l 426 606 l 229 606 l 229 233 q 269 106 229 149 q 385 63 308 63 m 351 -103 l 351 -181 q 336 -275 351 -233 q 285 -354 321 -317 l 240 -321 q 278 -264 268 -290 q 290 -204 289 -237 l 235 -204 l 235 -103 l 351 -103 z "},"ẗ":{"ha":454,"x_min":11,"x_max":444,"o":"m 385 63 q 444 67 415 63 l 440 -4 q 375 -8 410 -8 q 203 53 261 -8 q 144 222 144 115 l 144 606 l 11 606 l 11 674 l 144 674 l 144 882 l 229 882 l 229 674 l 426 674 l 426 606 l 229 606 l 229 233 q 269 106 229 149 q 385 63 308 63 m 19 1121 l 124 1121 l 124 1021 l 19 1021 l 19 1121 m 249 1121 l 353 1121 l 353 1021 l 249 1021 l 249 1121 z "},"ṭ":{"ha":454,"x_min":11,"x_max":444,"o":"m 385 63 q 444 67 415 63 l 440 -4 q 375 -8 410 -8 q 203 53 261 -8 q 144 222 144 115 l 144 606 l 11 606 l 11 674 l 144 674 l 144 882 l 229 882 l 229 674 l 426 674 l 426 606 l 229 606 l 229 233 q 269 106 229 149 q 385 63 308 63 m 239 -140 l 347 -140 l 347 -247 l 239 -247 l 239 -140 z "},"ṯ":{"ha":454,"x_min":11,"x_max":499,"o":"m 385 63 q 444 67 415 63 l 440 -4 q 375 -8 410 -8 q 203 53 261 -8 q 144 222 144 115 l 144 606 l 11 606 l 11 674 l 144 674 l 144 882 l 229 882 l 229 674 l 426 674 l 426 606 l 229 606 l 229 233 q 269 106 229 149 q 385 63 308 63 m 88 -229 l 88 -158 l 499 -158 l 499 -229 l 88 -229 z "},"u":{"ha":768,"x_min":108,"x_max":657,"o":"m 657 674 l 657 0 l 574 0 l 574 121 q 483 24 542 57 q 349 -10 424 -10 q 169 56 229 -10 q 108 251 108 122 l 108 674 l 193 674 l 193 257 q 233 112 193 158 q 357 65 272 65 q 513 127 454 65 q 572 292 572 189 l 572 674 l 657 674 z "},"ú":{"ha":768,"x_min":108,"x_max":657,"o":"m 657 674 l 657 0 l 574 0 l 574 121 q 483 24 542 57 q 349 -10 424 -10 q 169 56 229 -10 q 108 251 108 122 l 108 674 l 193 674 l 193 257 q 233 112 193 158 q 357 65 272 65 q 513 127 454 65 q 572 292 572 189 l 572 674 l 657 674 m 415 764 l 351 764 l 490 1043 l 597 1043 l 415 764 z "},"ŭ":{"ha":768,"x_min":108,"x_max":657,"o":"m 657 674 l 657 0 l 574 0 l 574 121 q 483 24 542 57 q 349 -10 424 -10 q 169 56 229 -10 q 108 251 108 122 l 108 674 l 193 674 l 193 257 q 233 112 193 158 q 357 65 272 65 q 513 127 454 65 q 572 292 572 189 l 572 674 l 657 674 m 383 810 q 251 850 310 810 q 163 976 193 890 l 226 1004 q 295 907 257 936 q 383 878 333 878 q 472 907 433 878 q 540 1004 510 936 l 604 978 q 516 851 575 892 q 383 810 457 810 z "},"û":{"ha":768,"x_min":108,"x_max":657,"o":"m 657 674 l 657 0 l 574 0 l 574 121 q 483 24 542 57 q 349 -10 424 -10 q 169 56 229 -10 q 108 251 108 122 l 108 674 l 193 674 l 193 257 q 233 112 193 158 q 357 65 272 65 q 513 127 454 65 q 572 292 572 189 l 572 674 l 657 674 m 278 764 l 192 764 l 350 1043 l 417 1043 l 575 764 l 489 764 l 383 974 l 278 764 z "},"ȕ":{"ha":768,"x_min":108,"x_max":657,"o":"m 657 674 l 657 0 l 574 0 l 574 121 q 483 24 542 57 q 349 -10 424 -10 q 169 56 229 -10 q 108 251 108 122 l 108 674 l 193 674 l 193 257 q 233 112 193 158 q 357 65 272 65 q 513 127 454 65 q 572 292 572 189 l 572 674 l 657 674 m 279 764 l 169 1043 l 258 1043 l 326 764 l 279 764 m 440 764 l 331 1043 l 419 1043 l 488 764 l 440 764 z "},"ü":{"ha":768,"x_min":108,"x_max":657,"o":"m 657 674 l 657 0 l 574 0 l 574 121 q 483 24 542 57 q 349 -10 424 -10 q 169 56 229 -10 q 108 251 108 122 l 108 674 l 193 674 l 193 257 q 233 112 193 158 q 357 65 272 65 q 513 127 454 65 q 572 292 572 189 l 572 674 l 657 674 m 217 956 l 321 956 l 321 854 l 217 854 l 217 956 m 446 956 l 550 956 l 550 854 l 446 854 l 446 956 z "},"ụ":{"ha":768,"x_min":108,"x_max":657,"o":"m 657 674 l 657 0 l 574 0 l 574 121 q 483 24 542 57 q 349 -10 424 -10 q 169 56 229 -10 q 108 251 108 122 l 108 674 l 193 674 l 193 257 q 233 112 193 158 q 357 65 272 65 q 513 127 454 65 q 572 292 572 189 l 572 674 l 657 674 m 329 -140 l 438 -140 l 438 -247 l 329 -247 l 329 -140 z "},"ù":{"ha":768,"x_min":108,"x_max":657,"o":"m 657 674 l 657 0 l 574 0 l 574 121 q 483 24 542 57 q 349 -10 424 -10 q 169 56 229 -10 q 108 251 108 122 l 108 674 l 193 674 l 193 257 q 233 112 193 158 q 357 65 272 65 q 513 127 454 65 q 572 292 572 189 l 572 674 l 657 674 m 351 764 l 169 1043 l 276 1043 l 415 764 l 351 764 z "},"ủ":{"ha":768,"x_min":108,"x_max":657,"o":"m 657 674 l 657 0 l 574 0 l 574 121 q 483 24 542 57 q 349 -10 424 -10 q 169 56 229 -10 q 108 251 108 122 l 108 674 l 193 674 l 193 257 q 233 112 193 158 q 357 65 272 65 q 513 127 454 65 q 572 292 572 189 l 572 674 l 657 674 m 418 764 l 354 764 l 354 804 q 368 852 354 832 q 408 897 382 872 q 435 926 426 914 q 444 951 444 939 q 428 977 444 968 q 385 986 413 986 q 300 969 344 986 l 281 1025 q 390 1049 332 1049 q 488 1023 451 1049 q 524 957 524 997 q 510 906 524 925 q 468 864 496 888 q 431 828 443 844 q 418 786 418 811 l 418 764 z "},"ư":{"ha":783,"x_min":108,"x_max":821,"o":"m 821 856 l 821 824 q 778 685 821 738 q 657 622 736 632 l 657 0 l 574 0 l 574 121 q 483 24 542 57 q 349 -10 424 -10 q 169 56 229 -10 q 108 251 108 122 l 108 674 l 193 674 l 193 257 q 233 112 193 158 q 357 65 272 65 q 513 127 454 65 q 572 292 572 189 l 572 674 l 596 674 q 708 713 674 675 q 743 838 743 751 l 743 856 l 821 856 z "},"ứ":{"ha":783,"x_min":108,"x_max":821,"o":"m 821 856 l 821 824 q 778 685 821 738 q 657 622 736 632 l 657 0 l 574 0 l 574 121 q 483 24 542 57 q 349 -10 424 -10 q 169 56 229 -10 q 108 251 108 122 l 108 674 l 193 674 l 193 257 q 233 112 193 158 q 357 65 272 65 q 513 127 454 65 q 572 292 572 189 l 572 674 l 596 674 q 708 713 674 675 q 743 838 743 751 l 743 856 l 821 856 m 415 764 l 351 764 l 490 1043 l 597 1043 l 415 764 z "},"ự":{"ha":783,"x_min":108,"x_max":821,"o":"m 821 856 l 821 824 q 778 685 821 738 q 657 622 736 632 l 657 0 l 574 0 l 574 121 q 483 24 542 57 q 349 -10 424 -10 q 169 56 229 -10 q 108 251 108 122 l 108 674 l 193 674 l 193 257 q 233 112 193 158 q 357 65 272 65 q 513 127 454 65 q 572 292 572 189 l 572 674 l 596 674 q 708 713 674 675 q 743 838 743 751 l 743 856 l 821 856 m 329 -140 l 438 -140 l 438 -247 l 329 -247 l 329 -140 z "},"ừ":{"ha":783,"x_min":108,"x_max":821,"o":"m 821 856 l 821 824 q 778 685 821 738 q 657 622 736 632 l 657 0 l 574 0 l 574 121 q 483 24 542 57 q 349 -10 424 -10 q 169 56 229 -10 q 108 251 108 122 l 108 674 l 193 674 l 193 257 q 233 112 193 158 q 357 65 272 65 q 513 127 454 65 q 572 292 572 189 l 572 674 l 596 674 q 708 713 674 675 q 743 838 743 751 l 743 856 l 821 856 m 351 764 l 169 1043 l 276 1043 l 415 764 l 351 764 z "},"ử":{"ha":783,"x_min":108,"x_max":821,"o":"m 821 856 l 821 824 q 778 685 821 738 q 657 622 736 632 l 657 0 l 574 0 l 574 121 q 483 24 542 57 q 349 -10 424 -10 q 169 56 229 -10 q 108 251 108 122 l 108 674 l 193 674 l 193 257 q 233 112 193 158 q 357 65 272 65 q 513 127 454 65 q 572 292 572 189 l 572 674 l 596 674 q 708 713 674 675 q 743 838 743 751 l 743 856 l 821 856 m 418 764 l 354 764 l 354 804 q 368 852 354 832 q 408 897 382 872 q 435 926 426 914 q 444 951 444 939 q 428 977 444 968 q 385 986 413 986 q 300 969 344 986 l 281 1025 q 390 1049 332 1049 q 488 1023 451 1049 q 524 957 524 997 q 510 906 524 925 q 468 864 496 888 q 431 828 443 844 q 418 786 418 811 l 418 764 z "},"ữ":{"ha":783,"x_min":108,"x_max":821,"o":"m 821 856 l 821 824 q 778 685 821 738 q 657 622 736 632 l 657 0 l 574 0 l 574 121 q 483 24 542 57 q 349 -10 424 -10 q 169 56 229 -10 q 108 251 108 122 l 108 674 l 193 674 l 193 257 q 233 112 193 158 q 357 65 272 65 q 513 127 454 65 q 572 292 572 189 l 572 674 l 596 674 q 708 713 674 675 q 743 838 743 751 l 743 856 l 821 856 m 165 835 q 197 942 165 903 q 282 981 228 981 q 339 968 311 981 q 400 935 367 956 q 449 908 432 915 q 482 900 465 900 q 530 922 513 900 q 547 976 547 944 l 601 976 q 570 869 601 908 q 485 831 539 831 q 428 843 456 831 q 367 876 400 856 q 318 903 335 896 q 285 911 301 911 q 237 889 254 911 q 219 835 219 867 l 165 835 z "},"ű":{"ha":768,"x_min":108,"x_max":657,"o":"m 657 674 l 657 0 l 574 0 l 574 121 q 483 24 542 57 q 349 -10 424 -10 q 169 56 229 -10 q 108 251 108 122 l 108 674 l 193 674 l 193 257 q 233 112 193 158 q 357 65 272 65 q 513 127 454 65 q 572 292 572 189 l 572 674 l 657 674 m 326 764 l 279 764 l 347 1043 l 436 1043 l 326 764 m 488 764 l 440 764 l 508 1043 l 597 1043 l 488 764 z "},"ȗ":{"ha":768,"x_min":108,"x_max":657,"o":"m 657 674 l 657 0 l 574 0 l 574 121 q 483 24 542 57 q 349 -10 424 -10 q 169 56 229 -10 q 108 251 108 122 l 108 674 l 193 674 l 193 257 q 233 112 193 158 q 357 65 272 65 q 513 127 454 65 q 572 292 572 189 l 572 674 l 657 674 m 383 1003 q 515 962 457 1003 q 604 835 574 921 l 540 807 q 472 904 511 875 q 383 933 433 933 q 294 904 333 933 q 226 807 256 875 l 163 833 q 251 962 192 921 q 383 1003 310 1003 z "},"ū":{"ha":768,"x_min":108,"x_max":657,"o":"m 657 674 l 657 0 l 574 0 l 574 121 q 483 24 542 57 q 349 -10 424 -10 q 169 56 229 -10 q 108 251 108 122 l 108 674 l 193 674 l 193 257 q 233 112 193 158 q 357 65 272 65 q 513 127 454 65 q 572 292 572 189 l 572 674 l 657 674 m 178 869 l 178 940 l 589 940 l 589 869 l 178 869 z "},"ṻ":{"ha":768,"x_min":108,"x_max":657,"o":"m 657 674 l 657 0 l 574 0 l 574 121 q 483 24 542 57 q 349 -10 424 -10 q 169 56 229 -10 q 108 251 108 122 l 108 674 l 193 674 l 193 257 q 233 112 193 158 q 357 65 272 65 q 513 127 454 65 q 572 292 572 189 l 572 674 l 657 674 m 178 869 l 178 940 l 589 940 l 589 869 l 178 869 m 217 1225 l 321 1225 l 321 1124 l 217 1124 l 217 1225 m 446 1225 l 550 1225 l 550 1124 l 446 1124 l 446 1225 z "},"ų":{"ha":768,"x_min":108,"x_max":721,"o":"m 721 -235 q 607 -265 672 -265 q 493 -226 538 -265 q 449 -122 449 -186 q 481 -25 449 -67 q 574 39 514 17 l 574 121 q 483 24 542 57 q 349 -10 424 -10 q 169 56 229 -10 q 108 251 108 122 l 108 674 l 193 674 l 193 257 q 233 112 193 158 q 357 65 272 65 q 513 127 454 65 q 572 292 572 189 l 572 674 l 657 674 l 657 0 l 650 0 q 559 -31 594 0 q 524 -112 524 -62 q 549 -178 524 -154 q 617 -203 574 -203 q 699 -178 651 -203 l 721 -235 z "},"ů":{"ha":768,"x_min":108,"x_max":657,"o":"m 657 674 l 657 0 l 574 0 l 574 121 q 483 24 542 57 q 349 -10 424 -10 q 169 56 229 -10 q 108 251 108 122 l 108 674 l 193 674 l 193 257 q 233 112 193 158 q 357 65 272 65 q 513 127 454 65 q 572 292 572 189 l 572 674 l 657 674 m 383 769 q 286 808 326 769 q 246 904 246 847 q 286 999 246 960 q 383 1038 326 1038 q 481 999 440 1038 q 521 904 521 960 q 481 808 521 847 q 383 769 440 769 m 383 832 q 433 853 414 832 q 453 904 453 874 q 433 954 453 933 q 383 975 413 975 q 334 954 354 975 q 314 904 314 933 q 333 853 314 874 q 383 832 353 832 z "},"ũ":{"ha":768,"x_min":108,"x_max":657,"o":"m 657 674 l 657 0 l 574 0 l 574 121 q 483 24 542 57 q 349 -10 424 -10 q 169 56 229 -10 q 108 251 108 122 l 108 674 l 193 674 l 193 257 q 233 112 193 158 q 357 65 272 65 q 513 127 454 65 q 572 292 572 189 l 572 674 l 657 674 m 165 835 q 197 942 165 903 q 282 981 228 981 q 339 968 311 981 q 400 935 367 956 q 449 908 432 915 q 482 900 465 900 q 530 922 513 900 q 547 976 547 944 l 601 976 q 570 869 601 908 q 485 831 539 831 q 428 843 456 831 q 367 876 400 856 q 318 903 335 896 q 285 911 301 911 q 237 889 254 911 q 219 835 219 867 l 165 835 z "},"ṹ":{"ha":768,"x_min":108,"x_max":657,"o":"m 657 674 l 657 0 l 574 0 l 574 121 q 483 24 542 57 q 349 -10 424 -10 q 169 56 229 -10 q 108 251 108 122 l 108 674 l 193 674 l 193 257 q 233 112 193 158 q 357 65 272 65 q 513 127 454 65 q 572 292 572 189 l 572 674 l 657 674 m 165 835 q 197 942 165 903 q 282 981 228 981 q 339 968 311 981 q 400 935 367 956 q 449 908 432 915 q 482 900 465 900 q 530 922 513 900 q 547 976 547 944 l 601 976 q 570 869 601 908 q 485 831 539 831 q 428 843 456 831 q 367 876 400 856 q 318 903 335 896 q 285 911 301 911 q 237 889 254 911 q 219 835 219 867 l 165 835 m 415 1033 l 351 1033 l 490 1313 l 597 1313 l 415 1033 z "},"v":{"ha":707,"x_min":22,"x_max":685,"o":"m 599 674 l 685 674 l 396 0 l 310 0 l 22 674 l 113 674 l 356 86 l 599 674 z "},"w":{"ha":1161,"x_min":44,"x_max":1117,"o":"m 1029 674 l 1117 674 l 871 0 l 783 0 l 581 564 l 376 0 l 289 0 l 44 674 l 135 674 l 335 100 l 542 674 l 625 674 l 828 100 l 1029 674 z "},"ẃ":{"ha":1161,"x_min":44,"x_max":1117,"o":"m 1029 674 l 1117 674 l 871 0 l 783 0 l 581 564 l 376 0 l 289 0 l 44 674 l 135 674 l 335 100 l 542 674 l 625 674 l 828 100 l 1029 674 m 613 764 l 549 764 l 688 1043 l 794 1043 l 613 764 z "},"ŵ":{"ha":1161,"x_min":44,"x_max":1117,"o":"m 1029 674 l 1117 674 l 871 0 l 783 0 l 581 564 l 376 0 l 289 0 l 44 674 l 135 674 l 335 100 l 542 674 l 625 674 l 828 100 l 1029 674 m 475 764 l 389 764 l 547 1043 l 614 1043 l 772 764 l 686 764 l 581 974 l 475 764 z "}}}
